<svg width="342" height="423" viewBox="0 0 342 423" fill="none" xmlns="http://www.w3.org/2000/svg">
<path d="M279.144 262.589C278.786 269.083 277.111 280.097 277.458 283.915C277.82 287.865 280.143 293.76 283 295.667C286.062 297.713 294.367 291.139 295.306 289.379C296.254 287.607 292.058 282.478 290.084 282.682C288.176 282.88 287.276 284.391 286.493 283.527C285.727 282.682 285.21 281.194 285.21 281.194C285.21 281.194 287.817 268.6 279.144 262.589" fill="#FFB882"/>
<path d="M229.987 106.736C244.907 92.389 240.053 76.5612 248.436 69.1371C256.813 61.7131 276.707 38.7909 260.752 35.582C244.8 32.3707 174.094 68.9542 163.124 91.1614C152.154 113.369 229.987 106.736 229.987 106.736Z" fill="#F2CFA5"/>
<path d="M276.241 151.858L273.059 148.479L259.388 148.361L266.297 163.625C266.297 163.625 278.645 154.986 276.241 151.858Z" fill="#593D36"/>
<path d="M74.8868 162.501C56.1442 156.112 59.6075 148.89 59.6075 148.89L75.1082 130.552L74.8868 162.501Z" fill="#593D36"/>
<path d="M120.498 275.932L56.6736 211.501L60.5047 211.078L122.349 274.815L120.498 275.932" fill="#DD5F33"/>
<path d="M105.945 285.058L39.9137 222.852L43.9092 222.435L107.751 283.879L105.945 285.058Z" fill="#DD5F33"/>
<path d="M87.1547 292.177L21.3895 230.661L25.4299 230.249L88.9402 290.999L87.1547 292.177Z" fill="#DD5F33"/>
<path d="M30.6275 236.997L16.6431 235.834L0 221.467L15.9163 224.575L19.2928 215.257L31.1091 227.486L30.6275 236.997" fill="#E0C8B1"/>
<path d="M30.6275 236.997L16.6431 235.834L0 221.467L15.9163 224.575L30.6275 236.997Z" fill="#CCB29E"/>
<path d="M49.9922 228.978L38.1641 227.993L24.0899 215.844L37.5511 218.473L40.4071 210.594L50.402 220.933L49.9922 228.978Z" fill="#E0C8B1"/>
<path d="M66.7371 220.071L54.909 219.087L40.8348 206.94L54.2958 209.566L57.152 201.684L67.1469 212.029L66.7371 220.071Z" fill="#E0C8B1"/>
<path d="M222.603 108.833C240.095 92.7067 236.106 74.6449 243.586 66.6191C251.065 58.5932 272.503 43.0758 256.55 39.8645C240.595 36.6532 169.461 72.2376 158.495 94.4448C147.525 116.65 222.603 108.833 222.603 108.833Z" fill="#8E3A2F"/>
<path d="M33.8696 254.081L79.7378 216.756C79.7378 216.756 171.289 313.837 179.268 320.659C179.268 320.659 145.365 335.108 114.95 324.672C84.5348 314.239 33.8696 254.081 33.8696 254.081Z" fill="#593D36"/>
<path d="M220.482 102.42C243.741 108.024 273.534 160.496 275.496 174.976C277.458 189.46 231.65 199.094 226.589 194.918C221.529 190.743 220.482 102.42 220.482 102.42Z" fill="#A05D4B"/>
<path d="M248.367 171.28C253.84 164.181 261.909 159.617 269.482 158.608C259.236 137.47 238.008 106.643 220.482 102.42C220.482 102.42 221.529 190.743 226.589 194.917C228.476 196.475 236.037 196.109 244.668 194.289C241.067 188.237 242.198 179.285 248.367 171.28Z" fill="#934938"/>
<path d="M97.9929 239.813C97.9929 239.813 55.9199 368.083 49.2447 410.08L53.2583 411.448C53.2583 411.448 107.028 370.367 130.645 344.802C154.26 319.239 185.77 235.704 185.77 235.704L97.9929 239.813Z" fill="#89493A"/>
<path d="M64.5691 369.014C86.6044 340.661 118.282 323.377 135.326 330.406C136.959 331.083 138.343 332.014 139.593 333.069C161.497 300.046 185.77 235.704 185.77 235.704L97.9929 239.813C97.9929 239.813 68.7022 329.119 55.1245 383.092C57.7802 378.456 60.9025 373.735 64.5691 369.014" fill="#70362B"/>
<path d="M247.701 242.252C247.701 242.252 285.688 369.508 290.593 409.163L286.526 410.456C286.526 410.456 234.485 371.665 211.947 347.527C189.409 323.389 161.416 244.512 161.416 244.512L247.701 242.252Z" fill="#89493A"/>
<path d="M243.63 366.393C232.595 328.873 239.913 295.354 259.983 291.531C260.603 291.413 261.23 291.327 261.862 291.264C254.032 263.465 247.701 242.252 247.701 242.252L161.416 244.512C161.416 244.512 189.409 323.389 211.947 347.527C221.146 357.38 235.265 369.677 248.753 380.781C246.827 376.195 245.099 371.388 243.63 366.393" fill="#70362B"/>
<path d="M63.9619 323.96C102.524 319.398 227.552 291.122 259.876 276.512C259.876 276.512 240.897 213.494 237.493 211.21C234.09 208.93 103.092 217.604 99.6886 219.886C96.2852 222.165 63.9619 323.96 63.9619 323.96Z" fill="#A05D4B"/>
<path d="M172.063 219.597C231.665 214.373 249.465 243.188 256.846 277.805C257.923 277.367 258.946 276.931 259.876 276.512C259.876 276.512 240.897 213.494 237.493 211.21C234.09 208.93 103.092 217.604 99.6886 219.886C96.2852 222.165 63.9619 323.96 63.9619 323.96C67.4042 323.553 71.5642 322.949 76.2566 322.19C77.2585 278.551 100.61 225.858 172.063 219.597" fill="#934938"/>
<path d="M180.443 218.063L176.409 217.392C175.595 232.24 170.047 262.008 170.047 262.008L183.601 261.847L180.443 218.063" fill="#934938"/>
<path d="M187.226 217.796L183.12 218.02C187.301 232.5 191.909 262.375 191.909 262.375L204.91 259.283L187.226 217.796" fill="#934938"/>
<path d="M66.9974 314.453C65.1133 320.339 63.9619 323.96 63.9619 323.96C102.524 319.398 227.549 291.122 259.876 276.512C259.876 276.512 258.955 273.462 257.489 268.679C221.424 283.351 106.51 309.335 66.9974 314.453" fill="#D3874F"/>
<path d="M112.204 309.971L102.099 294.952L95.5225 295.85L91.1531 314.254L112.204 309.971" fill="#D3874F"/>
<path d="M144.399 301.806L134.294 286.787L127.72 287.687L123.348 306.088L144.399 301.806" fill="#D3874F"/>
<path d="M176.594 293.642L166.489 278.621L159.915 279.519L155.543 297.922L176.594 293.642" fill="#D3874F"/>
<path d="M208.792 285.477L198.686 270.458L192.11 271.356L187.737 289.757L208.792 285.477" fill="#D3874F"/>
<path d="M240.987 277.309L230.881 262.293L224.307 263.19L219.935 281.594L240.987 277.309" fill="#D3874F"/>
<path d="M102.464 219.277C97.9868 204.212 116.134 95.1141 117.836 90.0925C119.538 85.0709 214.809 96.4838 221.048 100.593C227.286 104.7 243.167 200.866 240.328 206.039C237.493 211.21 228.423 214.71 228.423 214.71L102.464 219.277" fill="#A05D4B"/>
<path d="M130.861 193.254C127.278 181.196 140.894 87.0618 117.836 90.0925C106.537 91.5778 97.9868 204.212 102.464 219.277L228.423 214.71C228.423 214.71 237.493 211.21 240.329 206.039C240.687 205.384 240.747 203.273 240.565 200.086L130.861 193.254" fill="#934938"/>
<path d="M97.8015 223.494L100.616 207.288L239.099 208.475L238.806 213.682L97.8015 223.494" fill="#472D27"/>
<path d="M183.38 212.147L179.348 211.475C178.538 226.325 172.987 256.094 172.987 256.094L186.541 255.93L183.38 212.147Z" fill="#472D27"/>
<path d="M190.166 211.879L186.06 212.103C190.241 226.583 194.849 256.457 194.849 256.457L207.85 253.366L190.166 211.879" fill="#472D27"/>
<path d="M134.246 213.723C134.246 211.446 137.365 209.349 142.569 207.65L100.616 207.288L97.8015 223.494L144.073 220.273C137.945 218.502 134.246 216.219 134.246 213.723" fill="#351E1B"/>
<path d="M212.04 208.242C216.215 209.828 218.664 211.704 218.664 213.723C218.664 214.198 218.487 214.657 218.23 215.112L238.806 213.682L239.099 208.475L212.04 208.242" fill="#351E1B"/>
<path d="M140.667 110.952C141.146 114.134 137.554 199.26 137.554 199.26L237.631 202.084C237.631 202.084 229.326 128.017 222.929 118.068C202.64 111.44 140.667 110.952 140.667 110.952" fill="#934938"/>
<path d="M143.021 109.059C143.496 112.239 139.907 197.368 139.907 197.368L234.177 200.038C234.177 200.038 231.676 126.122 225.282 116.173C204.994 109.546 143.021 109.059 143.021 109.059Z" fill="#F7B541"/>
<path d="M143.021 109.059C143.496 112.239 139.907 197.368 139.907 197.368L234.177 200.038C234.177 200.038 231.676 126.122 225.282 116.173C204.994 109.546 143.021 109.059 143.021 109.059Z" fill="#F7B541"/>
<path d="M162.46 189.111L158.548 189.015L153.542 197.756L185.509 198.658L190.486 189.97L194.401 190.069L200.283 179.867L168.25 179.073L162.46 189.111" fill="#FFCD5F"/>
<path d="M172.362 178.625L204.395 179.417L209.399 169.689L177.366 168.895L172.362 178.625Z" fill="#FFCD5F"/>
<path d="M180.303 168.686L212.336 169.478L217.336 159.75L185.306 158.955L180.303 168.686Z" fill="#FFCD5F"/>
<path d="M189.122 158.746L221.155 159.538L226.159 149.81L194.125 149.016L189.122 158.746Z" fill="#FFCD5F"/>
<path d="M230.145 139.764L202.359 139.076L197.355 148.806L229.389 149.598L230.869 146.716C230.642 144.338 230.403 142.01 230.145 139.764Z" fill="#FFCD5F"/>
<path d="M228.755 129.333L211.178 128.898L206.175 138.628L230.082 139.22C229.673 135.665 229.23 132.335 228.755 129.333Z" fill="#FFCD5F"/>
<path d="M226.539 119.1L220.88 118.961L215.88 128.688L228.704 129.006C228.049 124.943 227.328 121.527 226.539 119.1Z" fill="#FFCD5F"/>
<path d="M233.734 189.429L140.332 187.135C140.302 187.855 140.275 188.541 140.248 189.2L233.836 191.639C233.806 190.936 233.773 190.199 233.734 189.429Z" fill="#EA8A3B"/>
<path d="M233.223 179.239L140.748 176.969C140.721 177.674 140.694 178.353 140.664 179.034L233.339 181.449C233.3 180.719 233.265 179.995 233.223 179.239" fill="#EA8A3B"/>
<path d="M232.619 169.049L141.157 166.801C141.131 167.499 141.101 168.18 141.074 168.868L232.756 171.259C232.711 170.522 232.667 169.793 232.619 169.049" fill="#EA8A3B"/>
<path d="M231.907 158.854L141.555 156.635C141.528 157.325 141.504 158.014 141.474 158.7L232.068 161.064C232.014 160.327 231.961 159.591 231.907 158.854" fill="#EA8A3B"/>
<path d="M231.051 148.657L141.944 146.466C141.92 147.152 141.893 147.846 141.869 148.534L231.252 150.864C231.186 150.123 231.117 149.391 231.051 148.657Z" fill="#EA8A3B"/>
<path d="M229.993 138.452L142.321 136.3C142.297 136.989 142.273 137.668 142.246 138.368L230.244 140.662C230.163 139.913 230.079 139.182 229.993 138.452Z" fill="#EA8A3B"/>
<path d="M228.578 128.243L142.674 126.132C142.65 126.811 142.626 127.495 142.605 128.2L228.934 130.451C228.817 129.688 228.698 128.963 228.578 128.243" fill="#EA8A3B"/>
<path d="M226.147 118.005L142.973 115.964C142.958 116.609 142.94 117.312 142.919 118.031L226.88 120.222C226.64 119.382 226.395 118.655 226.147 118.005" fill="#EA8A3B"/>
<path d="M109.501 347.879L107.342 345.178C164.24 315.766 216.939 335.587 263.225 306.3C341.166 256.989 292.169 209.739 339.066 168.698L342 170.874C296.56 210.644 350.153 261.452 270.744 311.697C223.198 341.776 165.43 318.962 109.501 347.879" fill="#DD5F33"/>
<path d="M273.977 256.871C273.977 256.871 281.854 268.713 280.858 271.907C276.561 285.682 281.193 284.788 294.828 299.824C295.809 297.21 315.254 284.538 315.254 284.538C315.254 284.538 313.466 274.069 309.351 267.586C308.101 265.617 301.7 259.247 300.032 254.353C297.753 247.663 273.977 256.871 273.977 256.871" fill="#FFB882"/>
<path d="M294.128 286.474C290.889 285.268 286.636 289.307 287.552 290.79C288.467 292.275 292.28 301.839 294.948 301.755C297.612 301.668 302.104 299.105 301.856 297.6C301.608 296.096 296.745 287.451 294.128 286.474Z" fill="#FFB882"/>
<path d="M301.123 280.838C297.884 279.632 293.632 283.672 294.547 285.154C295.462 286.637 299.275 296.204 301.943 296.12C304.607 296.035 309.099 293.469 308.851 291.965C308.603 290.458 303.74 281.813 301.123 280.838Z" fill="#FFB882"/>
<path d="M308.684 276.086C305.511 275.003 301.102 278.729 301.949 280.082C302.798 281.433 306.19 290.157 308.851 290.058C311.513 289.962 316.095 287.583 315.912 286.209C315.727 284.832 311.253 276.96 308.684 276.086" fill="#FFB882"/>
<path d="M275.326 177.633C290.261 208.475 302.75 257.16 302.75 257.16L278.87 265.225C265.442 241.19 249.606 214.556 241.489 195.072C241.489 195.072 248.215 178.298 275.326 177.633Z" fill="#70362B"/>
<path d="M117.836 90.0926C90.0196 94.7121 63.594 159.726 67.0841 172.568C70.5742 185.411 107.521 185.402 114.451 176.584C121.38 167.766 141.737 86.1254 117.836 90.0926Z" fill="#A05D4B"/>
<path d="M117.836 90.0926C96.8204 93.5831 76.6124 131.531 69.4856 155.424C85.6204 150.137 113.293 150.453 106.202 154.514C101.411 157.258 82.9497 172.648 66.8628 167.788C66.7013 169.764 66.7641 171.391 67.0841 172.568C70.5743 185.411 107.521 185.402 114.451 176.584C121.38 167.766 141.738 86.1254 117.836 90.0926" fill="#934938"/>
<path d="M117.363 344.448L114.169 343.237L182.581 226.017L335.585 172.85L336.982 175.457L183.981 227.048L117.363 344.448" fill="#EDD6AE"/>
<path d="M339.335 174.776L336.357 177.701L332.421 173.948L335.035 171.579L339.335 174.776" fill="#EDD6AE"/>
<path d="M327.758 179.92L328.972 178.057L336.356 177.082L333.823 180.541L327.758 179.92Z" fill="#EDD6AE"/>
<path d="M330.073 185.779L326.323 182.14L327.98 179.583L332.388 182.939L330.073 185.779Z" fill="#EDD6AE"/>
<path d="M114.445 346.092L113.045 341.949L115.471 340.529L119.442 344.258L114.445 346.092" fill="#EDD6AE"/>
<path d="M118.634 339.169L122.896 342.484L125.983 341.593L120.985 337.277L118.634 339.169" fill="#EDD6AE"/>
<path d="M124.146 337.159L122.896 342.484L125.983 341.593L126.647 336.271L124.146 337.159Z" fill="#EDD6AE"/>
<path d="M165.047 204.571C165.047 204.571 171.719 210.873 174.477 211.638C178.72 212.816 182.644 214.715 188.593 217.517C190.333 218.34 191.951 226.537 192.041 229.457C189.72 228.911 172.497 233.174 172.497 233.174C172.497 233.174 165.514 228.292 162.412 223.855C161.467 222.507 156.215 218.639 152.109 216.126C147.291 213.179 165.047 204.571 165.047 204.571" fill="#FFB882"/>
<path d="M173.292 212.019C181.708 211.93 185.955 211.886 188.509 213.699C191.063 215.512 193.246 222.726 192.412 224.513C191.581 226.299 183.039 224.419 181.448 224.168C179.86 223.918 178.849 220.837 180.072 220.177C181.295 219.518 185.871 219.041 185.797 218.403C185.722 217.763 185.031 216.975 185.031 216.975C185.031 216.975 173.454 216.513 173.292 212.019" fill="#FFB882"/>
<path d="M182.498 223.976C182.922 221.985 187.624 221.54 188.344 222.544C189.065 223.547 194.559 229.036 193.414 230.257C192.271 231.479 188.56 232.606 187.552 231.908C186.544 231.21 182.154 225.584 182.498 223.976Z" fill="#FFB882"/>
<path d="M175.509 225.095C175.933 223.104 180.635 222.659 181.355 223.663C182.076 224.667 187.57 230.153 186.428 231.376C185.282 232.599 181.571 233.723 180.563 233.027C179.555 232.329 175.165 226.703 175.509 225.095" fill="#FFB882"/>
<path d="M168.938 226.821C169.431 224.91 173.965 224.269 174.614 225.191C175.266 226.113 180.312 231.075 179.16 232.29C178.009 233.506 174.396 234.748 173.46 234.13C172.521 233.513 168.54 228.367 168.938 226.821" fill="#FFB882"/>
<path d="M119.517 158.751C136.076 172.41 170.057 208.726 170.057 208.726L156.772 219.864C138.116 214.888 92.215 195.156 72.3179 178.021C72.3179 178.021 95.6811 159.588 119.517 158.751" fill="#70362B"/>
<path d="M116.945 146.083C116.945 146.083 66.7283 140.138 59.6075 148.89C59.6075 148.89 91.515 86.2842 127.912 84.2765C127.912 84.2765 130.902 104.344 116.945 146.083Z" fill="#F7B541"/>
<path d="M116.945 146.083C116.945 146.083 66.7283 140.138 59.6075 148.89C59.6075 148.89 91.515 86.2842 127.912 84.2765C127.912 84.2765 130.902 104.344 116.945 146.083Z" fill="#F7B541"/>
<path d="M78.3054 142.528C94.159 141.572 115.853 144.138 115.853 144.138C123.572 121.065 125.681 105.198 126.138 96.1156L125.771 95.9712C114.146 92.7815 95.3611 107.904 83.8171 129.748C81.5083 134.115 79.6871 138.409 78.3054 142.528" fill="#FFCD5F"/>
<path d="M119.137 139.232C119.451 138.207 119.735 137.23 120.031 136.233C109.69 135.191 80.7217 132.747 66.8269 136.365C66.0015 137.687 65.2539 138.922 64.563 140.082C76.786 135.239 109.986 138.277 119.137 139.232Z" fill="#EA8A3B"/>
<path d="M121.562 130.91C121.846 129.878 122.089 128.903 122.349 127.904C111.269 126.84 86.069 124.931 72.4075 127.836C71.5731 129.05 70.7687 130.241 70.006 131.397C82.5609 127.511 111.14 129.871 121.562 130.91" fill="#EA8A3B"/>
<path d="M123.677 122.567C123.916 121.556 124.162 120.53 124.374 119.56C113.186 118.542 91.88 117.095 78.6373 119.245C77.758 120.395 76.8938 121.541 76.0623 122.677C88.692 119.767 112.689 121.527 123.677 122.567Z" fill="#EA8A3B"/>
<path d="M125.483 114.204C125.681 113.164 125.857 112.177 126.03 111.192C115.327 110.28 98.0198 109.242 85.6772 110.648C84.7112 111.746 83.7662 112.851 82.842 113.963C95.0949 111.984 114.627 113.241 125.483 114.204Z" fill="#EA8A3B"/>
<path d="M126.889 105.819C127.035 104.784 127.176 103.763 127.296 102.805C117.812 102.064 104.62 101.378 93.8477 102.11C92.7501 103.154 91.6616 104.218 90.5999 105.311C101.791 104.168 116.9 105.003 126.889 105.819" fill="#EA8A3B"/>
<path d="M127.837 97.4204C127.924 96.3468 127.993 95.3404 128.04 94.3992C120.83 93.8961 112.112 93.5037 104.022 93.6818C102.646 94.6496 101.295 95.6751 99.9608 96.7488C109.106 96.3155 119.663 96.8186 127.837 97.4204Z" fill="#EA8A3B"/>
<path d="M128.067 85.981C125.546 85.8317 122.902 85.7089 120.211 85.6174C117.728 86.3131 115.282 87.2664 112.871 88.4267C118.111 88.4652 123.411 88.7012 128.172 89.0045C128.157 87.7407 128.118 86.7296 128.067 85.981" fill="#EA8A3B"/>
<path d="M222.047 98.4242L248.215 159.485C259.61 150.867 272.473 149.307 276.734 152.147C276.734 152.147 254.795 104.582 222.047 98.4242Z" fill="#F7B541"/>
<path d="M223.013 98.6456C222.69 98.5758 222.373 98.4844 222.047 98.4242L222.151 98.6649C222.435 98.6433 222.726 98.6384 223.013 98.6456" fill="#FFCD5F"/>
<path d="M227.965 100.013C236.958 104.748 246.337 120.971 250.847 141.088C252.028 146.358 252.758 151.454 253.108 156.259C263.076 150.53 273.074 149.709 276.734 152.147C276.734 152.147 257.412 110.256 227.965 100.013" fill="#FFCD5F"/>
<path d="M210.41 84.233L169.65 79.6159L167.23 93.4433C182.764 104.89 192.678 105.593 207.996 98.0604L210.41 84.233Z" fill="#E8975B"/>
<path d="M288.793 423H330.342C330.342 423 326.021 418.45 305.08 416.577C296.183 415.783 288.76 406.592 288.76 406.592L285.467 407.745C285.467 407.745 284.471 418.183 288.793 423Z" fill="#CC9285"/>
<path d="M52.7587 423H9.98007C9.98007 423 14.4272 418.45 35.9871 416.577C45.1475 415.783 52.7917 406.592 52.7917 406.592L56.1802 407.745C56.1802 407.745 57.2059 418.183 52.7587 423Z" fill="#CC9285"/>
<path d="M138.577 309.87L154.717 306.228C154.717 306.228 156.772 257.702 152.364 245.158C152.364 245.158 150.082 281.808 138.577 309.87Z" fill="#934938"/>
<path d="M228.076 287.757L242.736 282.896C242.736 282.896 234.599 257.861 227.843 251.296C227.843 251.296 234.255 271.654 228.076 287.757Z" fill="#934938"/>
<path d="M273.989 146.782C273.702 146.252 273.397 145.696 273.068 145.106C266.97 143.727 255.964 145.739 245.224 152.506L245.99 154.288C256.861 146.818 268.483 144.926 273.989 146.782" fill="#EA8A3B"/>
<path d="M270.439 140.585C270.113 140.046 269.781 139.497 269.431 138.934C263.309 137.815 252.818 139.863 242.533 146.226L243.283 147.978C253.739 140.934 264.828 139.009 270.439 140.585" fill="#EA8A3B"/>
<path d="M266.479 134.357C266.126 133.828 265.758 133.293 265.387 132.754C259.248 132.006 249.48 134.09 239.841 139.945L240.589 141.69C250.419 135.195 260.725 133.2 266.479 134.357Z" fill="#EA8A3B"/>
<path d="M262.062 128.12C261.688 127.624 261.305 127.124 260.919 126.625C254.839 126.305 245.981 128.397 237.149 133.662L237.894 135.407C246.89 129.581 256.215 127.492 262.062 128.12" fill="#EA8A3B"/>
<path d="M257.16 121.979C256.753 121.503 256.35 121.024 255.934 120.549C250.075 120.703 242.263 122.812 234.458 127.384L235.202 129.122C243.19 124.05 251.397 121.902 257.16 121.979" fill="#EA8A3B"/>
<path d="M250.341 114.678C244.955 115.265 238.37 117.307 231.766 121.103L232.511 122.839C239.333 118.592 246.286 116.459 251.711 116.021C251.262 115.566 250.799 115.123 250.341 114.678Z" fill="#EA8A3B"/>
<path d="M244.073 109.161C239.479 110.063 234.302 111.874 229.075 114.823L229.816 116.553C235.295 113.212 240.828 111.236 245.58 110.393C245.081 109.977 244.581 109.563 244.073 109.161Z" fill="#EA8A3B"/>
<path d="M236.826 104.168C233.48 105.167 229.954 106.58 226.389 108.554L227.122 110.27C231.027 107.935 234.951 106.298 238.594 105.261C238.011 104.885 237.422 104.517 236.826 104.168Z" fill="#EA8A3B"/>
<path d="M228.234 100.112C226.742 100.754 225.231 101.491 223.712 102.314L224.436 104.002C226.467 102.815 228.5 101.818 230.492 100.99C229.744 100.68 228.994 100.381 228.234 100.112Z" fill="#EA8A3B"/>
<path d="M154.687 192.65L134.467 212.043C138.612 213.723 142.503 215.194 146.077 216.46L162.287 200.534C160.083 198.23 157.499 195.541 154.687 192.65" fill="#EA8A3B"/>
<path d="M119.517 158.751C95.681 159.588 72.3148 178.021 72.3148 178.021C76.2415 181.401 81.3347 184.959 87.0858 188.514L129.051 167.246C125.522 163.943 122.253 161.006 119.517 158.751Z" fill="#EA8A3B"/>
<path d="M144.531 219.486H155.399V215.906H144.531V219.486Z" fill="#331714"/>
<path d="M156.772 219.864C156.329 219.746 155.869 219.621 155.399 219.486C152.328 218.613 148.643 217.399 144.534 215.907C145.054 216.097 145.569 216.28 146.077 216.46L151.404 211.227C155.372 212.857 159.018 214.246 162.173 215.334L156.772 219.864" fill="#501C16"/>
<path d="M101.304 196.661C90.7943 191.102 81.0445 185.144 73.9925 179.422L73.9956 179.424C81.0476 185.146 90.7973 191.102 101.304 196.661" fill="#B58383"/>
<path d="M123.731 207.488C116.326 204.215 108.631 200.534 101.304 196.66C108.631 200.534 116.326 204.215 123.731 207.488Z" fill="#68261D"/>
<path d="M134.473 212.036C131.019 210.639 127.409 209.113 123.731 207.488C127.409 209.113 131.019 210.639 134.473 212.036Z" fill="#25100E"/>
<path d="M73.9956 179.424L73.9925 179.422C73.4153 178.952 72.8561 178.488 72.3148 178.021C72.569 178.24 72.8291 178.461 73.0953 178.68C73.3884 178.928 73.6905 179.176 73.9956 179.424Z" fill="#68261D"/>
<path d="M134.473 212.036C131.019 210.639 127.409 209.113 123.731 207.488C123.731 207.486 123.731 207.488 123.731 207.488C116.326 204.214 108.631 200.534 101.304 196.66C90.7974 191.102 81.0477 185.146 73.9957 179.424C73.6906 179.176 73.3885 178.928 73.0954 178.68C76.9055 181.863 81.7087 185.19 87.0859 188.514L97.6909 183.139C110.072 191.547 126.126 199.966 140.323 206.424L134.473 212.036" fill="#501C16"/>
<path d="M146.077 216.46C145.569 216.28 145.054 216.097 144.534 215.907C144.534 215.907 144.534 215.907 144.531 215.907C141.397 214.768 138.014 213.471 134.473 212.036L140.323 206.425C144.19 208.184 147.922 209.799 151.404 211.227L146.077 216.46" fill="#A6471E"/>
<path d="M87.0858 188.514C81.7085 185.19 76.9054 181.863 73.0953 178.681C72.8291 178.461 72.569 178.24 72.3148 178.021C72.3148 178.021 72.3148 178.021 72.3178 178.021C72.5003 177.876 91.3835 163.088 112.486 159.516C97.5204 164.908 86.0779 174.222 86.0779 174.222C89.3138 177.135 93.2675 180.137 97.6908 183.139L87.0858 188.514" fill="#A6471E"/>
<path d="M221.048 100.593C221.033 100.583 221.018 100.574 221 100.562C221.018 100.574 221.033 100.583 221.048 100.593ZM221 100.562C220.997 100.559 220.991 100.557 220.985 100.552C220.991 100.557 220.997 100.559 221 100.562ZM220.979 100.55C220.976 100.547 220.973 100.545 220.97 100.542C220.973 100.545 220.976 100.547 220.979 100.55ZM220.964 100.54C220.958 100.538 220.955 100.535 220.952 100.533C220.955 100.535 220.958 100.538 220.964 100.54ZM220.943 100.528C220.94 100.525 220.937 100.525 220.937 100.523C220.94 100.525 220.94 100.525 220.943 100.528Z" fill="#651E18"/>
<path d="M225.958 113.542C224.765 108.966 223.634 105.331 222.636 103.065C222.902 103.162 223.174 103.287 223.446 103.395L224.185 103.698L224.334 103.759L224.436 104.002L226.838 109.601L227.122 110.27C227.122 110.27 227.122 110.27 227.125 110.268L228.183 112.745C227.46 113.022 226.718 113.287 225.958 113.542" fill="#68261D"/>
<path d="M221.021 115.003C202.308 110.617 164.009 109.447 149.125 109.153C140.123 105.444 132.837 100.819 127.971 95.7616C128.127 93.3953 128.181 91.3972 128.181 89.7675C128.181 89.4522 128.181 89.1488 128.178 88.8623C137.658 89.0067 152.447 90.2369 167.502 91.8955L167.23 93.4434C176.098 99.9768 183.132 103.01 190.387 103.01C195.842 103.01 201.42 101.294 207.996 98.0605L208.101 97.4491C214.791 98.6286 219.537 99.7119 220.937 100.523C220.937 100.526 220.94 100.526 220.943 100.528C220.946 100.53 220.949 100.53 220.952 100.533C220.955 100.535 220.958 100.538 220.964 100.54C220.964 100.54 220.967 100.542 220.97 100.542C220.973 100.545 220.976 100.547 220.979 100.55C220.982 100.55 220.985 100.552 220.985 100.552C220.991 100.557 220.997 100.559 221 100.562C221.018 100.574 221.033 100.583 221.048 100.593C221.054 100.598 221.063 100.603 221.069 100.607C221.532 100.93 222.056 101.806 222.612 103.058C222.621 103.061 222.627 103.063 222.636 103.065C223.634 105.331 224.765 108.966 225.958 113.542C224.379 114.074 222.731 114.563 221.021 115.003" fill="#723026"/>
<path d="M205.978 117.509L179.029 116.847C178.628 116.796 178.23 116.744 177.829 116.688C167.182 115.213 157.424 112.572 149.125 109.153C164.009 109.447 202.308 110.617 221.021 115.003C216.421 116.188 211.361 117.037 205.978 117.509Z" fill="#B05D21"/>
<path d="M195.797 117.947C190.393 117.947 184.765 117.591 179.029 116.847L205.978 117.509C202.694 117.798 199.293 117.947 195.797 117.947Z" fill="#A6471E"/>
<path d="M223.712 102.314L223.007 100.663L223.712 102.314Z" fill="#651E18"/>
<path d="M169.279 81.7322L169.65 79.6162L171.501 79.8255H171.498L169.65 79.6162L169.279 81.7322" fill="#B58383"/>
<path d="M169.096 82.7767L169.279 81.732L169.096 82.7767ZM181.427 80.952L171.498 79.8253H171.501L181.427 80.9496V80.952Z" fill="#651E18"/>
<path d="M127.972 95.7617C127.969 95.7569 127.966 95.7545 127.96 95.7497C127.992 95.2851 128.019 94.8349 128.04 94.3992C127.583 94.3679 127.119 94.3367 126.65 94.3054C125.089 92.483 123.841 90.6126 122.941 88.7133C124.736 88.7999 126.485 88.8986 128.172 89.0045C128.169 88.8553 128.166 88.7084 128.166 88.564C128.166 88.6603 128.169 88.7613 128.169 88.8624C128.172 88.8624 128.175 88.8624 128.178 88.8624C128.181 89.1489 128.181 89.4523 128.181 89.7676C128.181 91.3973 128.127 93.3954 127.972 95.7617V95.7617ZM128.064 85.981C126.046 85.8606 123.946 85.7571 121.808 85.6752C121.772 85.5404 121.736 85.4056 121.703 85.2732C123.758 84.7725 125.824 84.3921 127.912 84.2766C127.912 84.2766 127.993 84.8592 128.064 85.981" fill="#B05D21"/>
<path d="M127.96 95.7496C127.502 95.273 127.062 94.7891 126.65 94.3053C127.119 94.3366 127.583 94.3678 128.04 94.3991C128.019 94.8348 127.992 95.285 127.96 95.7496" fill="#A6471E"/>
<path d="M128.172 89.0045C126.485 88.8986 124.736 88.7999 122.941 88.7132C122.466 87.707 122.086 86.6935 121.808 85.6752C123.946 85.7571 126.045 85.8606 128.064 85.981C128.088 86.3565 128.112 86.7922 128.133 87.2857V87.3098C128.148 87.6901 128.157 88.1066 128.166 88.564C128.166 88.7084 128.169 88.8553 128.172 89.0045" fill="#A6471E"/>
<path d="M228.184 112.745L227.125 110.268C229.885 108.619 232.655 107.317 235.328 106.33C235.876 106.977 236.417 107.663 236.955 108.383C234.425 110.03 231.479 111.491 228.184 112.745ZM226.838 109.601L224.436 104.002C226.278 102.926 228.121 102.006 229.933 101.226C231.357 102.232 232.783 103.511 234.186 105.032C231.647 105.94 229.03 107.093 226.389 108.554L226.838 109.601V109.601ZM223.712 102.314L223.007 100.663L222.151 98.6649L222.047 98.4241L222.151 98.6649C222.361 98.648 222.57 98.6432 222.779 98.6432C222.857 98.6432 222.935 98.6432 223.013 98.6456C222.69 98.5758 222.373 98.4843 222.047 98.4241C224.104 98.8117 226.114 99.3774 228.082 100.076C228.118 100.095 228.151 100.114 228.186 100.133C226.709 100.769 225.214 101.498 223.712 102.314" fill="#B05D21"/>
<path d="M222.151 98.6649L222.047 98.4242C222.373 98.4844 222.69 98.5758 223.013 98.6456C222.935 98.6432 222.857 98.6433 222.779 98.6433C222.57 98.6433 222.361 98.6481 222.151 98.6649" fill="#B56931"/>
<path d="M236.955 108.383C236.417 107.663 235.876 106.977 235.328 106.33C236.438 105.92 237.526 105.564 238.594 105.261C238.495 105.198 238.4 105.136 238.304 105.076C238.48 105.184 238.654 105.292 238.827 105.405C239.213 105.651 239.59 105.909 239.967 106.166C239.043 106.939 238.038 107.678 236.955 108.383V108.383ZM234.186 105.032C232.783 103.511 231.357 102.233 229.933 101.226C230.119 101.147 230.307 101.067 230.492 100.99C230.411 100.957 230.331 100.923 230.25 100.892C230.43 100.959 230.603 101.029 230.779 101.104C231.291 101.318 231.793 101.563 232.299 101.799C232.708 101.989 233.121 102.172 233.528 102.372C234.027 102.623 234.518 102.892 235.011 103.159C235.412 103.376 235.813 103.585 236.21 103.812C236.414 103.927 236.617 104.048 236.818 104.17C235.953 104.428 235.074 104.717 234.186 105.032V105.032ZM228.186 100.133C228.151 100.114 228.118 100.095 228.082 100.076C228.124 100.092 228.169 100.107 228.21 100.121C228.204 100.126 228.195 100.129 228.186 100.133Z" fill="#B56931"/>
<path d="M190.387 103.01C183.132 103.01 176.098 99.9769 167.23 93.4435L167.502 91.8933C167.502 91.8957 167.502 91.8956 167.502 91.8956L169.096 82.7769L169.279 81.7321L169.65 79.6161L171.498 79.8255L181.427 80.9521C180.47 84.3151 179.905 86.4913 179.905 86.4913C179.979 86.513 196.046 91.366 208.923 92.743L208.101 97.4492L207.996 98.0606C201.42 101.294 195.842 103.01 190.387 103.01" fill="#A54E2F"/>
<path d="M227.122 110.27L226.838 109.601L226.389 108.554C229.03 107.093 231.647 105.94 234.186 105.032C235.074 104.717 235.953 104.428 236.817 104.17C237.096 104.336 237.374 104.505 237.649 104.673C237.867 104.808 238.085 104.941 238.304 105.075C238.399 105.136 238.495 105.198 238.594 105.261C237.526 105.564 236.438 105.92 235.328 106.33C232.654 107.317 229.885 108.619 227.125 110.268C227.122 110.27 227.122 110.27 227.122 110.27" fill="#A6471E"/>
<path d="M224.436 104.002L224.334 103.759L223.712 102.314C225.214 101.498 226.709 100.769 228.186 100.133C228.195 100.128 228.204 100.126 228.21 100.121C228.647 100.278 229.08 100.441 229.514 100.61C229.759 100.706 230.005 100.798 230.25 100.892C230.331 100.923 230.411 100.957 230.492 100.99C230.307 101.067 230.118 101.147 229.933 101.226C228.121 102.006 226.278 102.926 224.436 104.002" fill="#A6471E"/>
<path d="M235.923 41.203C231.219 65.3913 226.643 85.5981 222.295 91.91C212.934 96.4766 179.905 86.4912 179.905 86.4912C179.905 86.4912 189.526 49.3998 196.916 44.5612C204.306 39.725 235.923 41.203 235.923 41.203" fill="#E8975B"/>
<path d="M204.159 78.8505C209.635 74.3008 217.623 68.7833 223.512 70.336C227.199 71.3061 229.137 76.4385 231.993 82.0089C222.468 76.8164 216.421 75.4876 204.159 78.8505Z" fill="#593D36"/>
<path d="M236.853 58.2129C231.73 59.3154 227.794 60.0448 227.794 60.0448L229.299 55.6876L237.368 56.4146L236.853 58.2129" fill="#593D36"/>
<path d="M218.811 59.4141C214.268 58.639 209.722 59.3034 209.722 59.3034L219.735 61.3929L218.811 59.4141" fill="#89473A"/>
<path d="M230.378 62.4063C225.836 61.6311 225.103 63.0947 225.103 63.0947L231.303 64.3875L230.378 62.4063" fill="#89473A"/>
<path d="M227.349 58.0108C229.921 64.5129 233.776 69.9821 233.043 71.4602C232.308 72.9383 222.573 70.7862 222.573 70.7862L227.349 58.0108Z" fill="#D1783D"/>
<path d="M225.561 57.0117C228.13 63.5162 231.985 68.9856 231.252 70.4612C230.516 71.9417 220.784 69.7896 220.784 69.7896L225.561 57.0117Z" fill="#E8975B"/>
<path d="M208.759 51.1644C219.125 55.9356 227.214 59.5297 227.214 59.5297L228.479 55.7141L209.519 49.6718L208.759 51.1644" fill="#593D36"/>
<path d="M209.722 80.6969C214.268 79.3681 221.703 80.3647 221.703 80.3647L220.533 82.4374L209.722 80.6969" fill="#D1783D"/>
<path d="M232.978 59.0265C234.144 58.7882 235.454 58.5138 236.853 58.2129L237.368 56.4146L236.853 58.2129C235.445 58.5162 234.144 58.7882 232.978 59.0265Z" fill="#651E18"/>
<path d="M196.916 44.5613C196.94 44.5468 196.964 44.5299 196.99 44.5131C196.964 44.5299 196.94 44.5468 196.916 44.5613ZM197.176 44.4C197.257 44.3519 197.337 44.3061 197.421 44.2604C197.337 44.3061 197.257 44.3519 197.176 44.4ZM197.433 44.2556C202.314 41.6075 214.926 41.0274 224.391 40.9913C214.926 41.0274 202.314 41.6099 197.433 44.2556ZM235.863 41.5016C235.869 41.4655 235.878 41.4318 235.884 41.3981C235.878 41.4318 235.869 41.4679 235.863 41.5016Z" fill="#B58383"/>
<path d="M235.822 41.7183C235.836 41.646 235.848 41.5738 235.862 41.5016C235.848 41.5738 235.836 41.646 235.822 41.7183Z" fill="#AC6B55"/>
<path d="M202.981 91.9028C191.577 90.0035 179.95 86.5033 179.905 86.4913C179.905 86.4913 189.526 49.3999 196.916 44.5612C196.94 44.5468 196.964 44.5299 196.99 44.513C197.05 44.4769 197.113 44.4361 197.176 44.3999C197.257 44.3518 197.337 44.306 197.421 44.2603C197.424 44.2579 197.427 44.2555 197.433 44.2555C202.314 41.6099 214.926 41.0273 224.391 40.9912C224.708 40.9912 225.022 40.9889 225.33 40.9889C225.336 40.9889 225.345 40.9889 225.351 40.9889C231.386 40.9913 235.923 41.203 235.923 41.203C235.908 41.268 235.896 41.333 235.884 41.398C235.878 41.4317 235.869 41.4655 235.863 41.5016C235.848 41.5738 235.837 41.646 235.822 41.7182C234.853 46.6892 233.89 51.4725 232.933 56.0151L229.299 55.6876L227.977 59.5224C227.833 59.1878 227.69 58.8532 227.552 58.5138L228.479 55.7142L209.518 49.6719L208.759 51.1644C215.862 54.4335 221.894 57.1488 224.989 58.5354L220.784 69.7895C220.784 69.7895 221.042 69.8473 221.481 69.9364C221.436 69.9797 221.395 70.023 221.353 70.0688C215.778 70.0688 208.992 74.8352 204.159 78.8505C208.505 77.6589 212.07 77.0546 215.285 77.0065C214.435 78.0537 213.607 79.1032 212.787 80.1456C211.705 80.2515 210.652 80.4248 209.722 80.6969L212.058 81.0724C209.067 84.8928 206.187 88.6049 202.981 91.9028V91.9028ZM214.016 59.0386C211.534 59.0386 209.722 59.3033 209.722 59.3033L219.735 61.3929L218.811 59.4141C217.136 59.13 215.464 59.0386 214.016 59.0386ZM230.163 62.3703C229.831 62.3197 229.523 62.2787 229.233 62.2474C228.877 61.5156 228.521 60.755 228.174 59.9726C228.829 59.8499 230.298 59.5682 232.26 59.171C232.107 59.8787 231.958 60.5455 231.802 61.234C231.246 61.6071 230.699 61.9875 230.163 62.3703V62.3703ZM226.715 59.7103C226.637 59.5418 226.562 59.3732 226.488 59.2047C226.625 59.2673 226.745 59.3202 226.844 59.3635L226.715 59.7103" fill="#A54E2F"/>
<path d="M204.159 78.8505C208.992 74.8351 215.778 70.0687 221.353 70.0687C219.17 72.334 217.178 74.669 215.285 77.0064C212.07 77.0546 208.505 77.6589 204.159 78.8505Z" fill="#3F201C"/>
<path d="M228.174 59.9725C228.108 59.8233 228.043 59.674 227.977 59.5223L229.299 55.6875L232.933 56.015L237.368 56.4145L236.853 58.2128C235.454 58.5137 234.144 58.7881 232.977 59.0264C232.732 59.0746 232.493 59.1252 232.26 59.1709C230.298 59.5681 228.829 59.8498 228.174 59.9725Z" fill="#3F201C"/>
<path d="M219.735 61.3929L209.722 59.3034C209.722 59.3034 211.534 59.0387 214.016 59.0387C215.464 59.0387 217.136 59.13 218.811 59.4141L219.735 61.3929Z" fill="#61251E"/>
<path d="M229.52 62.8398C229.424 62.6449 229.329 62.4473 229.233 62.2475C229.523 62.2788 229.831 62.3198 230.163 62.3704C229.948 62.5269 229.732 62.6834 229.52 62.8398Z" fill="#61251E"/>
<path d="M228.587 63.545C227.983 62.3583 227.337 61.0704 226.715 59.7103L226.844 59.3636C227.086 59.4743 227.214 59.5298 227.214 59.5298L227.553 58.5139C227.69 58.8533 227.834 59.1879 227.977 59.5225C228.043 59.6741 228.109 59.8234 228.174 59.9727C228.521 60.755 228.877 61.5157 229.233 62.2475C229.329 62.4473 229.425 62.6448 229.52 62.8398C229.206 63.0733 228.895 63.3091 228.587 63.545" fill="#943E20"/>
<path d="M221.481 69.9364C221.042 69.8473 220.784 69.7895 220.784 69.7895L224.989 58.5354C225.611 58.8147 226.117 59.041 226.488 59.2047C226.563 59.3732 226.637 59.5418 226.715 59.7103C227.337 61.0704 227.983 62.3582 228.587 63.545C225.967 65.5647 223.629 67.7169 221.481 69.9364" fill="#A54E2F"/>
<path d="M227.214 59.5297C227.214 59.5297 227.086 59.4742 226.844 59.3635C226.745 59.3201 226.625 59.2672 226.488 59.2047C226.117 59.041 225.611 58.8146 224.989 58.5354C221.894 57.1488 215.862 54.4335 208.759 51.1644L209.519 49.6718L228.479 55.7141L227.552 58.5137L227.214 59.5297" fill="#3F201C"/>
<path d="M212.058 81.0725L209.722 80.697C210.652 80.4249 211.705 80.2516 212.787 80.1457C212.542 80.4562 212.3 80.7644 212.058 81.0725Z" fill="#943E20"/>
<path d="M262.035 42.5391C199.045 44.412 206.193 88.2919 172.288 95.9158C138.385 103.542 103.98 75.0471 103.98 75.0471C103.98 75.0471 139.381 68.6243 146.361 52.9746C153.342 37.3225 154.34 13.2425 175.278 9.81267e-05C222.145 4.41264 262.035 42.5391 262.035 42.5391Z" fill="#AF5746"/>
<path d="M175.278 4.53076e-05L174.575 0.495842C186.436 13.6179 193.967 33.1411 193.967 54.9559C193.967 67.0765 191.637 78.4869 187.54 88.4916C205.933 73.5376 210.655 44.0677 262.035 42.5391C262.035 42.5391 222.145 4.41259 175.278 4.53076e-05Z" fill="#C46C57"/>
<path d="M253.784 35.4783C196.5 39.6068 202.263 81.1758 169.348 88.5781C145.751 93.8862 122.373 81.2311 109.612 73.7998C102.039 69.3897 102.039 73.7686 103.409 75.704C105.628 78.8455 138.899 104.856 172.802 97.2299C206.707 89.6036 199.045 44.4118 262.035 42.5389C266.739 41.446 266.297 33.6368 253.784 35.4783Z" fill="#F2CFA5"/>
<path d="M275.326 177.633C248.215 178.298 241.489 195.072 241.489 195.072C242.404 197.269 243.43 199.564 244.525 201.925C256.807 194.385 266.802 190.223 279.396 186.827C278.092 183.63 276.734 180.546 275.326 177.633Z" fill="#EA8A3B"/>
<path d="M297.4 238.054L268.606 247.04C270.747 250.822 272.888 254.599 275 258.34L301.004 250.656C300.313 247.341 298.539 242.933 297.4 238.054" fill="#EA8A3B"/>
<path d="M278.87 265.225C278.834 265.16 278.798 265.095 278.762 265.032C278.798 265.095 278.834 265.16 278.87 265.225L282.865 263.874C282.874 263.893 282.883 263.915 282.892 263.934L278.87 265.225Z" fill="#B55F43"/>
<path d="M278.87 265.225C278.834 265.16 278.798 265.095 278.762 265.032C277.527 262.82 276.271 260.586 275.003 258.337L279.587 256.984C280.7 259.288 281.794 261.587 282.865 263.874L278.87 265.225" fill="#501C16"/>
<path d="M268.605 247.04C260.539 232.796 252.506 218.49 246.444 205.986L254.214 203.365C259.209 216.029 266.581 230.61 273.902 245.389L268.605 247.04" fill="#501C16"/>
<path d="M245.553 204.135C244.052 200.979 242.688 197.948 241.489 195.072C242.404 197.269 243.43 199.564 244.525 201.925C247.121 200.329 249.618 198.887 252.055 197.57C252.492 198.822 252.958 200.093 253.452 201.391L245.553 204.135Z" fill="#501C16"/>
<path d="M246.445 205.986C246.143 205.365 245.846 204.747 245.553 204.135L253.452 201.391C253.7 202.043 253.954 202.703 254.214 203.365L246.445 205.986" fill="#A96E59"/>
<path d="M244.525 201.925C243.43 199.564 242.404 197.269 241.489 195.072C241.489 195.072 248.215 178.298 275.326 177.633C275.64 178.288 275.951 178.96 276.262 179.626C257.992 183.033 251.275 195.252 251.275 195.252C251.523 196.015 251.783 196.788 252.055 197.57C249.618 198.887 247.121 200.329 244.525 201.925Z" fill="#A6471E"/>
<path d="M275.003 258.337C272.891 254.601 270.747 250.822 268.606 247.04L273.902 245.389C275.813 249.25 277.724 253.126 279.587 256.984L275.003 258.337Z" fill="#A6471E"/>
</svg>
