<svg width="153" height="235" viewBox="0 0 153 235" fill="none" xmlns="http://www.w3.org/2000/svg">
<path d="M124.531 146.128C124.371 149.725 123.624 155.825 123.779 157.94C123.94 160.128 124.976 163.393 126.249 164.449C127.615 165.583 131.317 161.941 131.736 160.967C132.159 159.985 130.288 157.144 129.408 157.257C128.557 157.367 128.156 158.204 127.807 157.725C127.465 157.257 127.235 156.433 127.235 156.433C127.235 156.433 128.397 149.457 124.531 146.128" fill="#FFB882"/>
<path d="M102.615 59.8053C109.267 51.8586 107.103 43.092 110.84 38.98C114.575 34.868 123.444 22.172 116.331 20.3946C109.219 18.616 77.696 38.8787 72.8054 51.1787C67.9147 63.4787 102.615 59.8053 102.615 59.8053Z" fill="#F2CFA5"/>
<path d="M123.236 84.7973L121.817 82.9254L115.723 82.86L118.803 91.3147C118.803 91.3147 124.308 86.5293 123.236 84.7973Z" fill="#593D36"/>
<path d="M33.4666 90.692C25.1106 87.1534 26.6547 83.1533 26.6547 83.1533L33.5653 72.996L33.4666 90.692Z" fill="#593D36"/>
<path d="M53.8013 153.519L25.3467 117.832L27.0547 117.597L54.6267 152.9L53.8013 153.519" fill="#DD5F33"/>
<path d="M47.3133 158.573L17.8746 124.119L19.6559 123.888L48.1186 157.92L47.3133 158.573Z" fill="#DD5F33"/>
<path d="M38.936 162.516L9.61603 128.444L11.4173 128.216L39.732 161.864L38.936 162.516Z" fill="#DD5F33"/>
<path d="M13.7346 131.953L7.49994 131.309L0.0799561 123.352L7.17592 125.073L8.68126 119.912L13.9493 126.685L13.7346 131.953" fill="#E0C8B1"/>
<path d="M13.7346 131.953L7.49994 131.309L0.0799561 123.352L7.17592 125.073L13.7346 131.953Z" fill="#CCB29E"/>
<path d="M22.3679 127.512L17.0946 126.967L10.8199 120.237L16.8213 121.693L18.0946 117.329L22.5506 123.056L22.3679 127.512Z" fill="#E0C8B1"/>
<path d="M29.8333 122.579L24.56 122.033L18.2853 115.305L24.2866 116.76L25.56 112.395L30.0159 118.124L29.8333 122.579Z" fill="#E0C8B1"/>
<path d="M99.3227 60.9667C107.121 52.0347 105.343 42.0307 108.677 37.5854C112.012 33.14 121.569 24.5453 114.457 22.7667C107.344 20.988 75.6307 40.6973 70.7414 52.9973C65.8507 65.296 99.3227 60.9667 99.3227 60.9667Z" fill="#8E3A2F"/>
<path d="M15.18 141.416L35.6293 120.743C35.6293 120.743 76.4453 174.513 80.0026 178.292C80.0026 178.292 64.888 186.295 51.328 180.515C37.768 174.736 15.18 141.416 15.18 141.416Z" fill="#593D36"/>
<path d="M98.3773 57.4147C108.747 60.5187 122.029 89.5814 122.904 97.6014C123.779 105.624 103.356 110.96 101.1 108.647C98.844 106.335 98.3773 57.4147 98.3773 57.4147Z" fill="#A05D4B"/>
<path d="M110.809 95.5546C113.249 91.6226 116.847 89.0946 120.223 88.5359C115.655 76.8279 106.191 59.7533 98.3773 57.4146C98.3773 57.4146 98.844 106.335 101.1 108.647C101.941 109.509 105.312 109.307 109.16 108.299C107.555 104.947 108.059 99.9879 110.809 95.5546Z" fill="#934938"/>
<path d="M43.768 133.513C43.768 133.513 25.0107 204.559 22.0347 227.82L23.8241 228.577C23.8241 228.577 47.796 205.824 58.3254 191.664C68.8534 177.505 82.9013 131.237 82.9013 131.237L43.768 133.513Z" fill="#89493A"/>
<path d="M28.8667 205.075C38.6907 189.371 52.8133 179.797 60.412 183.691C61.14 184.065 61.7573 184.581 62.3147 185.165C72.08 166.875 82.9013 131.237 82.9013 131.237L43.768 133.513C43.768 133.513 30.7093 182.977 24.656 212.872C25.84 210.304 27.232 207.689 28.8667 205.075" fill="#70362B"/>
<path d="M110.512 134.864C110.512 134.864 127.448 205.348 129.635 227.312L127.821 228.028C127.821 228.028 104.62 206.543 94.572 193.173C84.524 179.804 72.044 136.116 72.044 136.116L110.512 134.864Z" fill="#89493A"/>
<path d="M108.697 203.623C103.777 182.841 107.04 164.276 115.988 162.159C116.264 162.093 116.544 162.045 116.825 162.011C113.335 146.613 110.512 134.864 110.512 134.864L72.044 136.116C72.044 136.116 84.524 179.804 94.572 193.173C98.6733 198.631 104.968 205.441 110.981 211.592C110.123 209.052 109.352 206.389 108.697 203.623" fill="#70362B"/>
<path d="M28.596 180.12C45.788 177.593 101.529 161.932 115.94 153.84C115.94 153.84 107.479 118.936 105.961 117.671C104.444 116.408 46.0413 121.212 44.524 122.476C43.0067 123.739 28.596 180.12 28.596 180.12Z" fill="#A05D4B"/>
<path d="M76.7907 122.316C103.363 119.423 111.299 135.383 114.589 154.556C115.069 154.313 115.525 154.072 115.94 153.84C115.94 153.84 107.479 118.936 105.961 117.671C104.444 116.408 46.0413 121.212 44.524 122.476C43.0067 123.739 28.596 180.12 28.596 180.12C30.1307 179.895 31.9853 179.56 34.0773 179.14C34.524 154.969 44.9347 125.784 76.7907 122.316" fill="#934938"/>
<path d="M80.5267 121.467L78.728 121.095C78.3653 129.319 75.892 145.807 75.892 145.807L81.9346 145.717L80.5267 121.467" fill="#934938"/>
<path d="M83.5506 121.319L81.72 121.443C83.584 129.463 85.6387 146.009 85.6387 146.009L91.4346 144.297L83.5506 121.319" fill="#934938"/>
<path d="M29.9493 174.855C29.1093 178.115 28.596 180.12 28.596 180.12C45.788 177.593 101.528 161.932 115.94 153.84C115.94 153.84 115.529 152.151 114.876 149.501C98.7973 157.628 47.5653 172.02 29.9493 174.855" fill="#D3874F"/>
<path d="M50.1039 172.372L45.5986 164.053L42.6666 164.551L40.7186 174.744L50.1039 172.372" fill="#D3874F"/>
<path d="M64.4574 167.849L59.952 159.531L57.0214 160.029L55.072 170.221L64.4574 167.849" fill="#D3874F"/>
<path d="M78.8106 163.328L74.3053 155.008L71.3746 155.505L69.4253 165.699L78.8106 163.328" fill="#D3874F"/>
<path d="M93.1653 158.805L88.66 150.487L85.728 150.984L83.7786 161.176L93.1653 158.805" fill="#D3874F"/>
<path d="M107.519 154.281L103.013 145.964L100.083 146.461L98.1333 156.655L107.519 154.281" fill="#D3874F"/>
<path d="M45.7613 122.139C43.7653 113.795 51.8559 53.3681 52.6146 50.5867C53.3733 47.8054 95.848 54.1267 98.6293 56.4027C101.411 58.6773 108.491 111.941 107.225 114.807C105.961 117.671 101.917 119.609 101.917 119.609L45.7613 122.139" fill="#A05D4B"/>
<path d="M58.4213 107.725C56.824 101.047 62.8946 48.9081 52.6146 50.5867C47.5773 51.4094 43.7653 113.795 45.7613 122.139L101.917 119.609C101.917 119.609 105.961 117.671 107.225 114.807C107.385 114.444 107.412 113.275 107.331 111.509L58.4213 107.725" fill="#934938"/>
<path d="M43.6827 124.475L44.9373 115.499L106.677 116.156L106.547 119.04L43.6827 124.475" fill="#472D27"/>
<path d="M81.836 118.189L80.0386 117.817C79.6773 126.043 77.2026 142.531 77.2026 142.531L83.2453 142.44L81.836 118.189Z" fill="#472D27"/>
<path d="M84.8613 118.041L83.0306 118.165C84.8946 126.185 86.9493 142.732 86.9493 142.732L92.7453 141.02L84.8613 118.041" fill="#472D27"/>
<path d="M59.9307 119.063C59.9307 117.801 61.3213 116.64 63.6413 115.699L44.9373 115.499L43.6827 124.475L64.312 122.691C61.58 121.709 59.9307 120.445 59.9307 119.063" fill="#351E1B"/>
<path d="M94.6133 116.027C96.4746 116.905 97.5666 117.944 97.5666 119.063C97.5666 119.325 97.4879 119.58 97.3732 119.832L106.547 119.04L106.677 116.156L94.6133 116.027" fill="#351E1B"/>
<path d="M62.7934 62.14C63.0067 63.9027 61.4053 111.052 61.4053 111.052L106.023 112.616C106.023 112.616 102.32 71.592 99.468 66.0813C90.4226 62.4107 62.7934 62.14 62.7934 62.14" fill="#934938"/>
<path d="M63.8426 61.092C64.0546 62.8534 62.4547 110.004 62.4547 110.004L104.483 111.483C104.483 111.483 103.368 70.5427 100.517 65.032C91.4719 61.3613 63.8426 61.092 63.8426 61.092Z" fill="#F7B541"/>
<path d="M63.8426 61.092C64.0546 62.8534 62.4547 110.004 62.4547 110.004L104.483 111.483C104.483 111.483 103.368 70.5427 100.517 65.032C91.4719 61.3613 63.8426 61.092 63.8426 61.092Z" fill="#F7B541"/>
<path d="M72.5093 105.431L70.7654 105.377L68.5333 110.219L82.7853 110.719L85.004 105.907L86.7493 105.961L89.372 100.311L75.0907 99.8707L72.5093 105.431" fill="#FFCD5F"/>
<path d="M76.924 99.6227L91.2053 100.061L93.4359 94.6733L79.1546 94.2333L76.924 99.6227Z" fill="#FFCD5F"/>
<path d="M80.464 94.1174L94.7453 94.556L96.9747 89.168L82.6947 88.728L80.464 94.1174Z" fill="#FFCD5F"/>
<path d="M84.396 88.612L98.6773 89.0507L100.908 83.6627L86.6267 83.2227L84.396 88.612Z" fill="#FFCD5F"/>
<path d="M102.685 78.0987L90.2973 77.7174L88.0667 83.1067L102.348 83.5453L103.008 81.9493C102.907 80.632 102.8 79.3427 102.685 78.0987Z" fill="#FFCD5F"/>
<path d="M102.065 72.3213L94.2293 72.08L91.9987 77.4693L102.657 77.7973C102.475 75.828 102.277 73.984 102.065 72.3213Z" fill="#FFCD5F"/>
<path d="M101.077 66.6534L98.5547 66.576L96.3253 71.964L102.043 72.14C101.751 69.8893 101.429 67.9974 101.077 66.6534Z" fill="#FFCD5F"/>
<path d="M104.285 105.607L62.6439 104.336C62.6306 104.735 62.6186 105.115 62.6066 105.48L104.331 106.831C104.317 106.441 104.303 106.033 104.285 105.607Z" fill="#EA8A3B"/>
<path d="M104.057 99.9627L62.8294 98.7053C62.8174 99.096 62.8053 99.472 62.792 99.8493L104.109 101.187C104.092 100.783 104.076 100.381 104.057 99.9627" fill="#EA8A3B"/>
<path d="M103.788 94.3187L63.012 93.0734C63 93.4601 62.9867 93.8374 62.9747 94.2187L103.849 95.5427C103.829 95.1347 103.809 94.7307 103.788 94.3187" fill="#EA8A3B"/>
<path d="M103.471 88.672L63.1893 87.4427C63.1773 87.8253 63.1667 88.2067 63.1533 88.5867L103.543 89.896C103.519 89.488 103.495 89.08 103.471 88.672" fill="#EA8A3B"/>
<path d="M103.089 83.024L63.3627 81.8107C63.352 82.1907 63.34 82.5747 63.3293 82.9561L103.179 84.2467C103.149 83.836 103.119 83.4307 103.089 83.024Z" fill="#EA8A3B"/>
<path d="M102.617 77.372L63.5306 76.18C63.52 76.5613 63.5093 76.9374 63.4973 77.3254L102.729 78.596C102.693 78.1813 102.656 77.776 102.617 77.372Z" fill="#EA8A3B"/>
<path d="M101.987 71.7174L63.688 70.5481C63.6773 70.9241 63.6667 71.3027 63.6573 71.6934L102.145 72.9401C102.093 72.5174 102.04 72.1161 101.987 71.7174" fill="#EA8A3B"/>
<path d="M100.903 66.0467L63.8214 64.916C63.8147 65.2733 63.8067 65.6626 63.7974 66.0613L101.229 67.2747C101.123 66.8093 101.013 66.4067 100.903 66.0467" fill="#EA8A3B"/>
<path d="M48.8987 193.368L47.936 191.872C73.3027 175.581 96.7974 186.56 117.433 170.339C152.181 143.027 130.337 116.856 151.245 94.124L152.553 95.3294C132.295 117.357 156.188 145.499 120.785 173.328C99.588 189.988 73.8334 177.352 48.8987 193.368" fill="#DD5F33"/>
<path d="M122.227 142.961C122.227 142.961 125.739 149.52 125.295 151.289C123.379 158.919 125.444 158.424 131.523 166.752C131.96 165.304 140.629 158.285 140.629 158.285C140.629 158.285 139.832 152.487 137.997 148.896C137.44 147.805 134.587 144.277 133.843 141.567C132.827 137.861 122.227 142.961 122.227 142.961" fill="#FFB882"/>
<path d="M131.211 159.357C129.767 158.689 127.871 160.927 128.279 161.748C128.687 162.571 130.387 167.868 131.576 167.821C132.764 167.773 134.767 166.353 134.656 165.52C134.545 164.687 132.377 159.899 131.211 159.357Z" fill="#FFB882"/>
<path d="M134.329 156.236C132.885 155.568 130.989 157.805 131.397 158.627C131.805 159.448 133.505 164.747 134.695 164.7C135.883 164.653 137.885 163.232 137.775 162.399C137.664 161.564 135.496 156.776 134.329 156.236Z" fill="#FFB882"/>
<path d="M137.7 153.604C136.285 153.004 134.32 155.068 134.697 155.817C135.076 156.565 136.588 161.397 137.775 161.343C138.961 161.289 141.004 159.972 140.923 159.211C140.84 158.448 138.845 154.088 137.7 153.604" fill="#FFB882"/>
<path d="M122.828 99.0734C129.487 116.156 135.055 143.121 135.055 143.121L124.408 147.588C118.421 134.276 111.361 119.524 107.743 108.732C107.743 108.732 110.741 99.4414 122.828 99.0734Z" fill="#70362B"/>
<path d="M52.6146 50.5867C40.2133 53.1454 28.432 89.1547 29.988 96.268C31.544 103.381 48.0159 103.376 51.1053 98.492C54.1946 93.608 63.2706 48.3894 52.6146 50.5867Z" fill="#A05D4B"/>
<path d="M52.6146 50.5867C43.2453 52.52 34.236 73.5387 31.0586 86.772C38.252 83.844 50.5893 84.0187 47.428 86.268C45.292 87.788 37.0613 96.312 29.8893 93.62C29.8173 94.7147 29.8453 95.616 29.988 96.268C31.544 103.381 48.016 103.376 51.1053 98.492C54.1946 93.608 63.2706 48.3894 52.6146 50.5867" fill="#934938"/>
<path d="M52.4039 191.468L50.98 190.797L81.48 125.872L149.693 96.424L150.316 97.868L82.1039 126.443L52.4039 191.468" fill="#EDD6AE"/>
<path d="M151.365 97.4907L150.037 99.1107L148.283 97.032L149.448 95.72L151.365 97.4907" fill="#EDD6AE"/>
<path d="M146.204 100.34L146.745 99.308L150.037 98.768L148.908 100.684L146.204 100.34Z" fill="#EDD6AE"/>
<path d="M147.236 103.585L145.564 101.569L146.303 100.153L148.268 102.012L147.236 103.585Z" fill="#EDD6AE"/>
<path d="M51.1027 192.379L50.4786 190.084L51.56 189.297L53.3307 191.363L51.1027 192.379" fill="#EDD6AE"/>
<path d="M52.9706 188.544L54.8706 190.38L56.2466 189.887L54.0186 187.496L52.9706 188.544" fill="#EDD6AE"/>
<path d="M55.428 187.431L54.8706 190.38L56.2466 189.887L56.5426 186.939L55.428 187.431Z" fill="#EDD6AE"/>
<path d="M73.6626 113.993C73.6626 113.993 76.6373 117.484 77.8666 117.908C79.7586 118.56 81.508 119.612 84.16 121.164C84.936 121.62 85.6573 126.16 85.6973 127.777C84.6626 127.475 76.9839 129.836 76.9839 129.836C76.9839 129.836 73.8706 127.132 72.488 124.675C72.0666 123.928 69.7253 121.785 67.8946 120.393C65.7466 118.761 73.6626 113.993 73.6626 113.993" fill="#FFB882"/>
<path d="M77.3387 118.119C81.0907 118.069 82.984 118.045 84.1227 119.049C85.2613 120.053 86.2347 124.049 85.8627 125.039C85.492 126.028 81.684 124.987 80.9747 124.848C80.2667 124.709 79.816 123.003 80.3613 122.637C80.9067 122.272 82.9467 122.008 82.9134 121.655C82.88 121.3 82.572 120.864 82.572 120.864C82.572 120.864 77.4107 120.608 77.3387 118.119" fill="#FFB882"/>
<path d="M81.4426 124.741C81.632 123.639 83.728 123.392 84.0493 123.948C84.3707 124.504 86.82 127.544 86.3093 128.22C85.8 128.897 84.1453 129.521 83.696 129.135C83.2467 128.748 81.2893 125.632 81.4426 124.741Z" fill="#FFB882"/>
<path d="M78.3267 125.361C78.516 124.259 80.612 124.012 80.9334 124.568C81.2547 125.124 83.704 128.163 83.1947 128.84C82.684 129.517 81.0294 130.14 80.58 129.755C80.1307 129.368 78.1734 126.252 78.3267 125.361" fill="#FFB882"/>
<path d="M75.3973 126.317C75.6173 125.259 77.6386 124.904 77.928 125.415C78.2186 125.925 80.468 128.673 79.9547 129.347C79.4413 130.02 77.8306 130.708 77.4133 130.365C76.9946 130.024 75.22 127.173 75.3973 126.317" fill="#FFB882"/>
<path d="M53.364 88.6147C60.7467 96.18 75.896 116.295 75.896 116.295L69.9733 122.464C61.656 119.708 41.192 108.779 32.3214 99.288C32.3214 99.288 42.7373 89.0787 53.364 88.6147" fill="#70362B"/>
<path d="M52.2173 81.5987C52.2173 81.5987 29.8293 78.3054 26.6547 83.1534C26.6547 83.1534 40.88 48.4774 57.1066 47.3654C57.1066 47.3654 58.44 58.48 52.2173 81.5987Z" fill="#F7B541"/>
<path d="M52.2173 81.5987C52.2173 81.5987 29.8293 78.3054 26.6547 83.1534C26.6547 83.1534 40.88 48.4774 57.1066 47.3654C57.1066 47.3654 58.44 58.48 52.2173 81.5987Z" fill="#F7B541"/>
<path d="M34.9907 79.6294C42.0587 79.1 51.7307 80.5214 51.7307 80.5214C55.172 67.7414 56.112 58.9534 56.316 53.9227L56.152 53.8427C50.9694 52.076 42.5947 60.4521 37.448 72.5507C36.4187 74.9694 35.6067 77.348 34.9907 79.6294" fill="#FFCD5F"/>
<path d="M53.1947 77.804C53.3347 77.236 53.4614 76.6947 53.5934 76.1427C48.9827 75.5654 36.068 74.212 29.8733 76.216C29.5053 76.948 29.172 77.632 28.864 78.2747C34.3133 75.592 49.1147 77.2747 53.1947 77.804Z" fill="#EA8A3B"/>
<path d="M54.2759 73.1947C54.4026 72.6227 54.5107 72.0827 54.6267 71.5294C49.6867 70.94 38.452 69.8827 32.3613 71.492C31.9893 72.164 31.6306 72.824 31.2906 73.464C36.888 71.312 49.6293 72.6187 54.2759 73.1947" fill="#EA8A3B"/>
<path d="M55.2187 68.5734C55.3254 68.0134 55.4347 67.4453 55.5294 66.908C50.5414 66.344 41.0427 65.5427 35.1387 66.7333C34.7467 67.3707 34.3614 68.0054 33.9907 68.6347C39.6214 67.0227 50.32 67.9974 55.2187 68.5734Z" fill="#EA8A3B"/>
<path d="M56.024 63.9413C56.112 63.3653 56.1906 62.8187 56.2679 62.2734C51.4959 61.768 43.78 61.1933 38.2773 61.972C37.8466 62.58 37.4253 63.192 37.0133 63.808C42.476 62.712 51.184 63.408 56.024 63.9413Z" fill="#EA8A3B"/>
<path d="M56.6506 59.2973C56.716 58.724 56.7787 58.1586 56.832 57.628C52.604 57.2173 46.7226 56.8373 41.92 57.2427C41.4306 57.8213 40.9453 58.4107 40.472 59.016C45.4613 58.3827 52.1973 58.8453 56.6506 59.2973" fill="#EA8A3B"/>
<path d="M57.0733 54.6454C57.112 54.0507 57.1427 53.4933 57.164 52.972C53.9493 52.6933 50.0627 52.476 46.456 52.5747C45.8427 53.1107 45.24 53.6787 44.6453 54.2734C48.7227 54.0334 53.4293 54.3121 57.0733 54.6454Z" fill="#EA8A3B"/>
<path d="M57.1759 48.3093C56.0519 48.2267 54.8733 48.1586 53.6733 48.108C52.5666 48.4933 51.4759 49.0213 50.4012 49.664C52.7372 49.6853 55.0999 49.816 57.2226 49.984C57.2159 49.284 57.1986 48.724 57.1759 48.3093" fill="#EA8A3B"/>
<path d="M99.0747 55.2014L110.741 89.0214C115.821 84.248 121.556 83.384 123.456 84.9574C123.456 84.9574 113.675 58.612 99.0747 55.2014Z" fill="#F7B541"/>
<path d="M99.5054 55.324C99.3614 55.2854 99.22 55.2347 99.0747 55.2014L99.1214 55.3347C99.2481 55.3227 99.3774 55.32 99.5054 55.324" fill="#FFCD5F"/>
<path d="M101.713 56.0814C105.723 58.704 109.904 67.6893 111.915 78.832C112.441 81.7507 112.767 84.5733 112.923 87.2347C117.367 84.0613 121.824 83.6067 123.456 84.9573C123.456 84.9573 114.841 61.7547 101.713 56.0814" fill="#FFCD5F"/>
<path d="M93.8866 47.3413L75.7146 44.7841L74.636 52.4427C81.5613 58.7827 85.9813 59.172 92.8107 55L93.8866 47.3413Z" fill="#E8975B"/>
<path d="M128.832 234.976H147.356C147.356 234.976 145.429 232.456 136.093 231.419C132.127 230.979 128.817 225.888 128.817 225.888L127.349 226.527C127.349 226.527 126.905 232.308 128.832 234.976Z" fill="#CC9285"/>
<path d="M23.6013 234.976H4.52936C4.52936 234.976 6.51202 232.456 16.124 231.419C20.208 230.979 23.616 225.888 23.616 225.888L25.1267 226.527C25.1267 226.527 25.584 232.308 23.6013 234.976Z" fill="#CC9285"/>
<path d="M61.8613 172.316L69.0574 170.299C69.0574 170.299 69.9733 143.421 68.008 136.473C68.008 136.473 66.9907 156.773 61.8613 172.316Z" fill="#934938"/>
<path d="M101.763 160.068L108.299 157.376C108.299 157.376 104.671 143.509 101.659 139.873C101.659 139.873 104.517 151.149 101.763 160.068Z" fill="#934938"/>
<path d="M122.232 81.9853C122.104 81.692 121.968 81.384 121.821 81.0573C119.103 80.2933 114.196 81.408 109.408 85.156L109.749 86.1427C114.596 82.0054 119.777 80.9573 122.232 81.9853" fill="#EA8A3B"/>
<path d="M120.649 78.5534C120.504 78.2547 120.356 77.9507 120.2 77.6387C117.471 77.0187 112.793 78.1534 108.208 81.6774L108.543 82.6481C113.204 78.7467 118.148 77.6801 120.649 78.5534" fill="#EA8A3B"/>
<path d="M118.884 75.104C118.727 74.8107 118.563 74.5147 118.397 74.216C115.66 73.8013 111.305 74.956 107.008 78.1987L107.341 79.1653C111.724 75.568 116.319 74.4627 118.884 75.104Z" fill="#EA8A3B"/>
<path d="M116.915 71.6493C116.748 71.3746 116.577 71.0973 116.405 70.8213C113.695 70.644 109.745 71.8026 105.808 74.7186L106.14 75.6853C110.151 72.4586 114.308 71.3013 116.915 71.6493" fill="#EA8A3B"/>
<path d="M114.729 68.2481C114.548 67.9841 114.368 67.7187 114.183 67.4561C111.571 67.5414 108.088 68.7093 104.608 71.2413L104.94 72.204C108.501 69.3947 112.16 68.2054 114.729 68.2481" fill="#EA8A3B"/>
<path d="M111.689 64.204C109.288 64.5293 106.352 65.66 103.408 67.7627L103.74 68.724C106.781 66.372 109.881 65.1907 112.3 64.948C112.1 64.696 111.893 64.4507 111.689 64.204Z" fill="#EA8A3B"/>
<path d="M108.895 61.148C106.847 61.648 104.539 62.6507 102.208 64.284L102.539 65.2427C104.981 63.392 107.448 62.2973 109.567 61.8306C109.344 61.6 109.121 61.3707 108.895 61.148Z" fill="#EA8A3B"/>
<path d="M105.664 58.3827C104.172 58.936 102.6 59.7187 101.011 60.812L101.337 61.7627C103.079 60.4694 104.828 59.5627 106.452 58.988C106.192 58.78 105.929 58.576 105.664 58.3827Z" fill="#EA8A3B"/>
<path d="M101.833 56.136C101.168 56.492 100.495 56.9 99.8173 57.356L100.14 58.2906C101.045 57.6333 101.952 57.0813 102.84 56.6227C102.507 56.4507 102.172 56.2853 101.833 56.136Z" fill="#EA8A3B"/>
<path d="M69.044 107.391L60.0294 118.132C61.8774 119.063 63.612 119.877 65.2053 120.579L72.432 111.757C71.4494 110.481 70.2973 108.992 69.044 107.391" fill="#EA8A3B"/>
<path d="M53.364 88.6147C42.7373 89.0787 32.3199 99.288 32.3199 99.288C34.0706 101.16 36.3413 103.131 38.9053 105.1L57.6146 93.32C56.0413 91.4907 54.584 89.864 53.364 88.6147Z" fill="#EA8A3B"/>
<path d="M64.516 122.255H69.3613V120.272H64.516V122.255Z" fill="#331714"/>
<path d="M69.9733 122.464C69.776 122.399 69.5707 122.329 69.3613 122.255C67.992 121.771 66.3493 121.099 64.5173 120.272C64.7493 120.377 64.9787 120.479 65.2054 120.579L67.58 117.68C69.3494 118.583 70.9747 119.352 72.3813 119.955L69.9733 122.464" fill="#501C16"/>
<path d="M45.244 109.612C40.5586 106.533 36.2119 103.233 33.0679 100.064L33.0693 100.065C36.2133 103.235 40.56 106.533 45.244 109.612" fill="#B58383"/>
<path d="M55.2426 115.609C51.9413 113.796 48.5106 111.757 45.244 109.612C48.5106 111.757 51.9413 113.796 55.2426 115.609Z" fill="#68261D"/>
<path d="M60.0321 118.128C58.4921 117.355 56.8827 116.509 55.2427 115.609C56.8827 116.509 58.4921 117.355 60.0321 118.128Z" fill="#25100E"/>
<path d="M33.0693 100.065L33.0679 100.064C32.8106 99.804 32.5613 99.5467 32.3199 99.288C32.4333 99.4094 32.5493 99.5321 32.6679 99.6534C32.7986 99.7907 32.9333 99.928 33.0693 100.065Z" fill="#68261D"/>
<path d="M60.032 118.128C58.492 117.355 56.8826 116.509 55.2426 115.609C55.2426 115.608 55.2426 115.609 55.2426 115.609C51.9413 113.796 48.5107 111.757 45.244 109.612C40.56 106.533 36.2133 103.235 33.0693 100.065C32.9333 99.928 32.7986 99.7907 32.668 99.6534C34.3666 101.416 36.508 103.259 38.9053 105.1L43.6333 102.123C49.1533 106.78 56.3106 111.443 62.64 115.02L60.032 118.128" fill="#501C16"/>
<path d="M65.2054 120.579C64.9787 120.479 64.7493 120.377 64.5173 120.272C64.5173 120.272 64.5174 120.272 64.516 120.272C63.1187 119.641 61.6107 118.923 60.032 118.128L62.64 115.02C64.364 115.995 66.028 116.889 67.58 117.68L65.2054 120.579" fill="#A6471E"/>
<path d="M38.9053 105.1C36.508 103.259 34.3666 101.416 32.6679 99.6534C32.5493 99.532 32.4333 99.4093 32.3199 99.288C32.3199 99.288 32.32 99.288 32.3213 99.288C32.4026 99.208 40.8213 91.0173 50.2293 89.0386C43.5573 92.0253 38.4559 97.184 38.4559 97.184C39.8986 98.7974 41.6613 100.46 43.6333 102.123L38.9053 105.1" fill="#A6471E"/>
<path d="M98.6293 56.4026C98.6226 56.3973 98.616 56.392 98.608 56.3853C98.616 56.392 98.6226 56.3973 98.6293 56.4026ZM98.608 56.3853C98.6066 56.384 98.6039 56.3827 98.6012 56.38C98.6039 56.3827 98.6066 56.384 98.608 56.3853ZM98.5986 56.3787C98.5973 56.3774 98.5959 56.376 98.5946 56.3747C98.5959 56.376 98.5973 56.3774 98.5986 56.3787ZM98.5919 56.3734C98.5893 56.372 98.5879 56.3706 98.5866 56.3693C98.5879 56.3706 98.5893 56.372 98.5919 56.3734ZM98.5826 56.3666C98.5813 56.3653 98.58 56.3653 98.58 56.364C98.5813 56.3653 98.5813 56.3653 98.5826 56.3666Z" fill="#651E18"/>
<path d="M100.819 63.5746C100.287 61.04 99.7826 59.0266 99.3373 57.772C99.4559 57.8253 99.5773 57.8947 99.6987 57.9547L100.028 58.1227L100.095 58.156L100.14 58.2907L101.211 61.392L101.337 61.7627C101.337 61.7627 101.337 61.7626 101.339 61.7613L101.811 63.1333C101.488 63.2866 101.157 63.4333 100.819 63.5746" fill="#68261D"/>
<path d="M98.6173 64.384C90.2746 61.9547 73.2 61.3067 66.564 61.144C62.5506 59.0893 59.3026 56.528 57.1333 53.7267C57.2026 52.416 57.2267 51.3094 57.2267 50.4067C57.2267 50.232 57.2266 50.064 57.2253 49.9053C61.452 49.9853 68.0453 50.6667 74.7573 51.5853L74.636 52.4427C78.5893 56.0614 81.7253 57.7413 84.96 57.7413C87.392 57.7413 89.8786 56.7907 92.8106 55L92.8573 54.6613C95.84 55.3146 97.956 55.9146 98.58 56.364C98.58 56.3653 98.5813 56.3653 98.5827 56.3666C98.584 56.368 98.5853 56.368 98.5866 56.3693C98.588 56.3707 98.5893 56.372 98.592 56.3734C98.592 56.3734 98.5933 56.3747 98.5946 56.3747C98.596 56.376 98.5973 56.3774 98.5987 56.3787C98.6 56.3787 98.6013 56.38 98.6013 56.38C98.6039 56.3827 98.6066 56.384 98.608 56.3853C98.616 56.392 98.6227 56.3973 98.6293 56.4027C98.632 56.4053 98.636 56.408 98.6386 56.4107C98.8453 56.5893 99.0787 57.0747 99.3267 57.768C99.3307 57.7694 99.3333 57.7707 99.3373 57.772C99.7826 59.0267 100.287 61.04 100.819 63.5747C100.115 63.8693 99.38 64.14 98.6173 64.384" fill="#723026"/>
<path d="M91.9106 65.772L79.896 65.4053C79.7173 65.3773 79.54 65.348 79.3613 65.3174C74.6146 64.5 70.264 63.0373 66.564 61.144C73.2 61.3066 90.2746 61.9547 98.6173 64.384C96.5666 65.04 94.3106 65.5106 91.9106 65.772Z" fill="#B05D21"/>
<path d="M87.372 66.0147C84.9626 66.0147 82.4533 65.8173 79.896 65.4053L91.9106 65.772C90.4466 65.932 88.9306 66.0147 87.372 66.0147Z" fill="#A6471E"/>
<path d="M99.8173 57.3561L99.5027 56.4414L99.8173 57.3561Z" fill="#651E18"/>
<path d="M75.5493 45.9561L75.7146 44.784L76.5399 44.9H76.5386L75.7146 44.784L75.5493 45.9561" fill="#B58383"/>
<path d="M75.4679 46.5347L75.5493 45.956L75.4679 46.5347ZM80.9653 45.524L76.5386 44.9H76.5399L80.9653 45.5227V45.524Z" fill="#651E18"/>
<path d="M57.1333 53.7267C57.132 53.724 57.1307 53.7227 57.128 53.72C57.1427 53.4627 57.1547 53.2133 57.164 52.972C56.96 52.9547 56.7534 52.9374 56.544 52.92C55.848 51.9107 55.292 50.8747 54.8907 49.8227C55.6907 49.8707 56.4707 49.9254 57.2227 49.984C57.2213 49.9014 57.22 49.82 57.22 49.74C57.22 49.7934 57.2214 49.8493 57.2214 49.9053C57.2227 49.9053 57.224 49.9053 57.2253 49.9053C57.2267 50.064 57.2267 50.232 57.2267 50.4067C57.2267 51.3094 57.2027 52.416 57.1333 53.7267V53.7267ZM57.1747 48.3094C56.2747 48.2427 55.3387 48.1854 54.3854 48.14C54.3694 48.0654 54.3534 47.9907 54.3387 47.9174C55.2547 47.64 56.176 47.4294 57.1067 47.3654C57.1067 47.3654 57.1427 47.688 57.1747 48.3094" fill="#B05D21"/>
<path d="M57.128 53.72C56.924 53.456 56.728 53.188 56.544 52.92C56.7533 52.9374 56.96 52.9547 57.164 52.972C57.1547 53.2133 57.1427 53.4627 57.128 53.72" fill="#A6471E"/>
<path d="M57.2226 49.984C56.4706 49.9253 55.6907 49.8707 54.8907 49.8227C54.6787 49.2653 54.5093 48.704 54.3853 48.14C55.3386 48.1853 56.2746 48.2427 57.1746 48.3093C57.1853 48.5173 57.196 48.7587 57.2053 49.032V49.0453C57.212 49.256 57.216 49.4867 57.22 49.74C57.22 49.82 57.2213 49.9013 57.2226 49.984" fill="#A6471E"/>
<path d="M101.811 63.1333L101.339 61.7613C102.569 60.848 103.804 60.1266 104.996 59.58C105.24 59.9386 105.481 60.3187 105.721 60.7174C104.593 61.6294 103.28 62.4386 101.811 63.1333ZM101.211 61.392L100.14 58.2907C100.961 57.6947 101.783 57.1854 102.591 56.7534C103.225 57.3107 103.861 58.0186 104.487 58.8613C103.355 59.364 102.188 60.0027 101.011 60.812L101.211 61.392V61.392ZM99.8174 57.356L99.5027 56.4413L99.1214 55.3347L99.0747 55.2013L99.1214 55.3347C99.2147 55.3253 99.308 55.3227 99.4013 55.3227C99.436 55.3227 99.4707 55.3227 99.5054 55.324C99.3614 55.2853 99.22 55.2347 99.0747 55.2013C99.992 55.416 100.888 55.7293 101.765 56.116C101.781 56.1267 101.796 56.1373 101.812 56.148C101.153 56.5 100.487 56.904 99.8174 57.356" fill="#B05D21"/>
<path d="M99.1214 55.3347L99.0747 55.2014C99.22 55.2347 99.3614 55.2854 99.5054 55.324C99.4707 55.3227 99.436 55.3227 99.4013 55.3227C99.308 55.3227 99.2147 55.3254 99.1214 55.3347" fill="#B56931"/>
<path d="M105.721 60.7174C105.481 60.3187 105.24 59.9387 104.996 59.58C105.491 59.3534 105.976 59.156 106.452 58.988C106.408 58.9534 106.365 58.9187 106.323 58.8854C106.401 58.9454 106.479 59.0054 106.556 59.0681C106.728 59.2041 106.896 59.3467 107.064 59.4894C106.652 59.9174 106.204 60.3267 105.721 60.7174V60.7174ZM104.487 58.8614C103.861 58.0187 103.225 57.3107 102.591 56.7534C102.673 56.7094 102.757 56.6654 102.84 56.6227C102.804 56.6041 102.768 56.5854 102.732 56.5681C102.812 56.6054 102.889 56.644 102.968 56.6854C103.196 56.804 103.42 56.9401 103.645 57.0707C103.828 57.1761 104.012 57.2774 104.193 57.388C104.416 57.5267 104.635 57.676 104.855 57.824C105.033 57.944 105.212 58.06 105.389 58.1854C105.48 58.2494 105.571 58.3161 105.66 58.3841C105.275 58.5267 104.883 58.6867 104.487 58.8614V58.8614ZM101.812 56.1481C101.796 56.1374 101.781 56.1267 101.765 56.116C101.784 56.1254 101.804 56.1334 101.823 56.1414C101.82 56.144 101.816 56.1454 101.812 56.1481Z" fill="#B56931"/>
<path d="M84.96 57.7413C81.7253 57.7413 78.5893 56.0614 74.636 52.4427L74.7573 51.584C74.7573 51.5854 74.7573 51.5853 74.7573 51.5853L75.468 46.5347L75.5493 45.956L75.7146 44.784L76.5387 44.9L80.9653 45.524C80.5387 47.3867 80.2866 48.592 80.2866 48.592C80.32 48.604 87.4827 51.292 93.224 52.0547L92.8573 54.6613L92.8107 55C89.8787 56.7907 87.392 57.7413 84.96 57.7413" fill="#A54E2F"/>
<path d="M101.337 61.7627L101.211 61.3921L101.011 60.812C102.188 60.0027 103.355 59.364 104.487 58.8613C104.883 58.6867 105.275 58.5267 105.66 58.384C105.784 58.476 105.908 58.5694 106.031 58.6627C106.128 58.7374 106.225 58.8107 106.323 58.8854C106.365 58.9187 106.408 58.9534 106.452 58.988C105.976 59.156 105.491 59.3533 104.996 59.58C103.804 60.1267 102.569 60.848 101.339 61.7613C101.337 61.7627 101.337 61.7627 101.337 61.7627" fill="#A6471E"/>
<path d="M100.14 58.2906L100.095 58.156L99.8173 57.356C100.487 56.904 101.153 56.5 101.812 56.148C101.816 56.1453 101.82 56.144 101.823 56.1413C102.017 56.228 102.211 56.3187 102.404 56.412C102.513 56.4653 102.623 56.516 102.732 56.568C102.768 56.5853 102.804 56.604 102.84 56.6227C102.757 56.6653 102.673 56.7093 102.591 56.7533C101.783 57.1853 100.961 57.6946 100.14 58.2906" fill="#A6471E"/>
<path d="M105.261 23.508C103.164 36.9053 101.124 48.0973 99.1853 51.5933C95.012 54.1227 80.2866 48.592 80.2866 48.592C80.2866 48.592 84.5759 28.048 87.8706 25.368C91.1653 22.6893 105.261 23.508 105.261 23.508" fill="#E8975B"/>
<path d="M91.1 44.36C93.5413 41.84 97.1026 38.784 99.728 39.644C101.372 40.1813 102.236 43.024 103.509 46.1094C99.2626 43.2334 96.5666 42.4974 91.1 44.36Z" fill="#593D36"/>
<path d="M105.676 32.9294C103.392 33.54 101.637 33.944 101.637 33.944L102.308 31.5307L105.905 31.9334L105.676 32.9294" fill="#593D36"/>
<path d="M97.632 33.5946C95.6066 33.1653 93.58 33.5333 93.58 33.5333L98.044 34.6907L97.632 33.5946" fill="#89473A"/>
<path d="M102.789 35.252C100.764 34.8226 100.437 35.6333 100.437 35.6333L103.201 36.3493L102.789 35.252" fill="#89473A"/>
<path d="M101.439 32.8174C102.585 36.4187 104.304 39.448 103.977 40.2667C103.649 41.0853 99.3093 39.8934 99.3093 39.8934L101.439 32.8174Z" fill="#D1783D"/>
<path d="M100.641 32.2641C101.787 35.8667 103.505 38.8961 103.179 39.7134C102.851 40.5334 98.512 39.3414 98.512 39.3414L100.641 32.2641Z" fill="#E8975B"/>
<path d="M93.1506 29.0254C97.772 31.668 101.379 33.6587 101.379 33.6587L101.943 31.5453L93.4893 28.1987L93.1506 29.0254" fill="#593D36"/>
<path d="M93.58 45.3827C95.6066 44.6467 98.9213 45.1987 98.9213 45.1987L98.3999 46.3467L93.58 45.3827" fill="#D1783D"/>
<path d="M103.948 33.38C104.468 33.248 105.052 33.096 105.676 32.9294L105.905 31.9333L105.676 32.9294C105.048 33.0974 104.468 33.248 103.948 33.38Z" fill="#651E18"/>
<path d="M87.8706 25.368C87.8813 25.36 87.8919 25.3507 87.9039 25.3413C87.8919 25.3507 87.8813 25.36 87.8706 25.368ZM87.9866 25.2787C88.0226 25.2521 88.0587 25.2267 88.096 25.2014C88.0587 25.2267 88.0226 25.2521 87.9866 25.2787ZM88.1013 25.1987C90.2773 23.732 95.9 23.4107 100.12 23.3907C95.9 23.4107 90.2773 23.7334 88.1013 25.1987ZM105.235 23.6734C105.237 23.6534 105.241 23.6347 105.244 23.616C105.241 23.6347 105.237 23.6547 105.235 23.6734Z" fill="#B58383"/>
<path d="M105.216 23.7933C105.223 23.7533 105.228 23.7133 105.235 23.6733C105.228 23.7133 105.223 23.7533 105.216 23.7933Z" fill="#AC6B55"/>
<path d="M90.5746 51.5894C85.4906 50.5374 80.3066 48.5987 80.2866 48.592C80.2866 48.592 84.5759 28.048 87.8706 25.368C87.8813 25.36 87.8919 25.3506 87.9039 25.3413C87.9306 25.3213 87.9586 25.2987 87.9866 25.2787C88.0226 25.252 88.0587 25.2267 88.096 25.2013C88.0973 25.2 88.0986 25.1987 88.1013 25.1987C90.2773 23.7333 95.9 23.4107 100.12 23.3907C100.261 23.3907 100.401 23.3894 100.539 23.3894C100.541 23.3894 100.545 23.3894 100.548 23.3894C103.239 23.3907 105.261 23.508 105.261 23.508C105.255 23.544 105.249 23.58 105.244 23.616C105.241 23.6347 105.237 23.6533 105.235 23.6733C105.228 23.7133 105.223 23.7533 105.216 23.7933C104.784 26.5467 104.355 29.196 103.928 31.712L102.308 31.5306L101.719 33.6547C101.655 33.4693 101.591 33.284 101.529 33.096L101.943 31.5453L93.4893 28.1987L93.1506 29.0254C96.3173 30.836 99.0066 32.34 100.387 33.108L98.5119 39.3413C98.5119 39.3413 98.6266 39.3734 98.8226 39.4227C98.8026 39.4467 98.784 39.4707 98.7653 39.496C96.28 39.496 93.2546 42.136 91.1 44.36C93.0373 43.7 94.6267 43.3653 96.06 43.3386C95.6813 43.9186 95.312 44.5 94.9466 45.0773C94.464 45.136 93.9946 45.232 93.58 45.3827L94.6213 45.5907C93.288 47.7067 92.004 49.7627 90.5746 51.5894V51.5894ZM95.4946 33.3867C94.388 33.3867 93.58 33.5333 93.58 33.5333L98.044 34.6907L97.632 33.5946C96.8853 33.4373 96.14 33.3867 95.4946 33.3867ZM102.693 35.232C102.545 35.204 102.408 35.1813 102.279 35.164C102.12 34.7586 101.961 34.3373 101.807 33.904C102.099 33.836 102.753 33.68 103.628 33.46C103.56 33.852 103.493 34.2213 103.424 34.6026C103.176 34.8093 102.932 35.02 102.693 35.232V35.232ZM101.156 33.7587C101.121 33.6654 101.088 33.572 101.055 33.4787C101.116 33.5133 101.169 33.5426 101.213 33.5666L101.156 33.7587" fill="#A54E2F"/>
<path d="M91.1 44.36C93.2546 42.136 96.28 39.496 98.7653 39.496C97.792 40.7507 96.904 42.044 96.06 43.3387C94.6267 43.3654 93.0373 43.7 91.1 44.36Z" fill="#3F201C"/>
<path d="M101.807 33.904C101.777 33.8213 101.748 33.7386 101.719 33.6546L102.308 31.5306L103.928 31.712L105.905 31.9333L105.676 32.9293C105.052 33.096 104.468 33.248 103.948 33.38C103.839 33.4066 103.732 33.4346 103.628 33.46C102.753 33.68 102.099 33.836 101.807 33.904Z" fill="#3F201C"/>
<path d="M98.044 34.6907L93.58 33.5333C93.58 33.5333 94.3879 33.3867 95.4946 33.3867C96.1399 33.3867 96.8853 33.4373 97.632 33.5946L98.044 34.6907Z" fill="#61251E"/>
<path d="M102.407 35.4921C102.364 35.3841 102.321 35.2747 102.279 35.164C102.408 35.1813 102.545 35.204 102.693 35.232C102.597 35.3187 102.501 35.4054 102.407 35.4921Z" fill="#61251E"/>
<path d="M101.991 35.8827C101.721 35.2254 101.433 34.5121 101.156 33.7587L101.213 33.5667C101.321 33.628 101.379 33.6587 101.379 33.6587L101.529 33.096C101.591 33.284 101.655 33.4694 101.719 33.6547C101.748 33.7387 101.777 33.8214 101.807 33.904C101.961 34.3374 102.12 34.7587 102.279 35.164C102.321 35.2747 102.364 35.3841 102.407 35.4921C102.267 35.6214 102.128 35.752 101.991 35.8827" fill="#943E20"/>
<path d="M98.8226 39.4227C98.6266 39.3734 98.512 39.3413 98.512 39.3413L100.387 33.108C100.664 33.2627 100.889 33.3881 101.055 33.4787C101.088 33.5721 101.121 33.6654 101.156 33.7587C101.433 34.5121 101.721 35.2254 101.991 35.8827C100.823 37.0014 99.78 38.1934 98.8226 39.4227" fill="#A54E2F"/>
<path d="M101.379 33.6587C101.379 33.6587 101.321 33.628 101.213 33.5666C101.169 33.5426 101.116 33.5133 101.055 33.4787C100.889 33.388 100.664 33.2626 100.387 33.108C99.0066 32.34 96.3173 30.836 93.1506 29.0254L93.4893 28.1987L101.943 31.5453L101.529 33.096L101.379 33.6587" fill="#3F201C"/>
<path d="M94.6213 45.5907L93.58 45.3827C93.9946 45.232 94.464 45.136 94.9466 45.0774C94.8373 45.2494 94.7293 45.42 94.6213 45.5907Z" fill="#943E20"/>
<path d="M116.903 24.248C88.82 25.2854 92.0067 49.5893 76.8907 53.812C61.776 58.036 46.4373 42.2534 46.4373 42.2534C46.4373 42.2534 62.22 38.696 65.332 30.028C68.444 21.3586 68.8894 8.02136 78.224 0.686693C99.1187 3.13069 116.903 24.248 116.903 24.248Z" fill="#AF5746"/>
<path d="M78.224 0.686673L77.9106 0.961282C83.1986 8.22928 86.556 19.0427 86.556 31.1253C86.556 37.8387 85.5173 44.1586 83.6907 49.7C91.8907 41.4173 93.996 25.0947 116.903 24.248C116.903 24.248 99.1187 3.13067 78.224 0.686673Z" fill="#C46C57"/>
<path d="M113.224 20.3373C87.6853 22.624 90.2546 45.648 75.58 49.748C65.06 52.688 54.6373 45.6786 48.9479 41.5626C45.5719 39.12 45.572 41.5453 46.1826 42.6173C47.172 44.3573 62.0053 58.764 77.1199 54.54C92.2359 50.316 88.82 25.2853 116.903 24.248C119 23.6427 118.803 19.3173 113.224 20.3373Z" fill="#F2CFA5"/>
<path d="M122.828 99.0733C110.741 99.4413 107.743 108.732 107.743 108.732C108.151 109.949 108.608 111.22 109.096 112.528C114.572 108.352 119.028 106.047 124.643 104.165C124.061 102.395 123.456 100.687 122.828 99.0733Z" fill="#EA8A3B"/>
<path d="M132.669 132.539L119.832 137.516C120.787 139.611 121.741 141.703 122.683 143.775L134.276 139.519C133.968 137.683 133.177 135.241 132.669 132.539" fill="#EA8A3B"/>
<path d="M124.408 147.588C124.392 147.552 124.376 147.516 124.36 147.481C124.376 147.516 124.392 147.552 124.408 147.588L126.189 146.84C126.193 146.851 126.197 146.863 126.201 146.873L124.408 147.588Z" fill="#B55F43"/>
<path d="M124.408 147.588C124.392 147.552 124.376 147.516 124.36 147.481C123.809 146.256 123.249 145.019 122.684 143.773L124.728 143.024C125.224 144.3 125.712 145.573 126.189 146.84L124.408 147.588" fill="#501C16"/>
<path d="M119.832 137.516C116.236 129.627 112.655 121.703 109.952 114.777L113.416 113.325C115.643 120.34 118.929 128.416 122.193 136.601L119.832 137.516" fill="#501C16"/>
<path d="M109.555 113.752C108.885 112.004 108.277 110.325 107.743 108.732C108.151 109.949 108.608 111.22 109.096 112.528C110.253 111.644 111.367 110.845 112.453 110.116C112.648 110.809 112.856 111.513 113.076 112.232L109.555 113.752Z" fill="#501C16"/>
<path d="M109.952 114.777C109.817 114.433 109.685 114.091 109.555 113.752L113.076 112.232C113.187 112.593 113.3 112.959 113.416 113.325L109.952 114.777" fill="#A96E59"/>
<path d="M109.096 112.528C108.608 111.22 108.151 109.949 107.743 108.732C107.743 108.732 110.741 99.4413 122.828 99.0733C122.968 99.436 123.107 99.808 123.245 100.177C115.1 102.064 112.105 108.832 112.105 108.832C112.216 109.255 112.332 109.683 112.453 110.116C111.367 110.845 110.253 111.644 109.096 112.528Z" fill="#A6471E"/>
<path d="M122.684 143.773C121.743 141.704 120.787 139.611 119.832 137.516L122.193 136.601C123.045 138.74 123.897 140.887 124.728 143.024L122.684 143.773Z" fill="#A6471E"/>
</svg>
