<?xml version="1.0" encoding="iso-8859-1"?>
<!-- Generator: Adobe Illustrator 18.0.0, SVG Export Plug-In . SVG Version: 6.00 Build 0)  -->
<!DOCTYPE svg PUBLIC "-//W3C//DTD SVG 1.1//EN" "http://www.w3.org/Graphics/SVG/1.1/DTD/svg11.dtd">
<svg version="1.1" xmlns="http://www.w3.org/2000/svg" xmlns:xlink="http://www.w3.org/1999/xlink" x="0px" y="0px"
	 viewBox="0 0 1200 675" enable-background="new 0 0 1200 675" xml:space="preserve">
<g id="Ebene_7">
</g>
<g id="Pantone_300_RGB">
	<g>
		<g>
			<path fill="#005EB8" d="M618.707,213.923c7.412,0,28.379-0.6,46.792,18.613c0.56,0.584,0.557,1.531-0.005,2.112l-12.023,12.417
				c-0.574,0.593-1.516,0.613-2.113,0.044c-1.243-1.185-3.138-2.991-3.302-3.132c-10.055-8.629-19.107-10.261-28.771-10.261
				c-18.967,0-34.903,16.16-34.903,36.161s16.455,36.459,35.653,36.459c19.01,0,27.959-7.246,32.284-22.202
				c0.139-0.482-0.229-0.986-0.731-0.986l-29.31,0c-0.829,0-1.501-0.672-1.501-1.501V266.31c0-0.829,0.672-1.501,1.501-1.501h50.125
				c0.983,0,1.587,0.713,1.587,1.425c1.299,34.272-18.36,59.585-54.893,59.585c-31.255,0-55.735-25.046-55.735-55.941
				C563.362,238.043,589.12,213.923,618.707,213.923z"/>
			<path fill="#005EB8" d="M618.707,349.716c7.412,0,28.379-0.6,46.792,18.613c0.56,0.584,0.557,1.531-0.005,2.112l-12.023,12.417
				c-0.574,0.593-1.516,0.613-2.113,0.044c-1.243-1.185-3.138-2.991-3.302-3.132c-10.055-8.629-19.107-10.261-28.771-10.261
				c-18.967,0-34.903,16.16-34.903,36.161s16.455,36.459,35.653,36.459c19.01,0,27.959-7.246,32.284-22.202
				c0.139-0.482-0.229-0.986-0.731-0.986h-29.31c-0.829,0-1.501-0.672-1.501-1.501v-15.336c0-0.829,0.672-1.501,1.501-1.501h50.125
				c0.983,0,1.587,0.713,1.587,1.425c1.299,34.272-18.36,59.585-54.893,59.585c-31.255,0-55.735-25.046-55.735-55.941
				C563.362,373.835,589.12,349.716,618.707,349.716z"/>
			<path fill="#005EB8" d="M744.471,213.932c-30.582,0-55.374,25.046-55.374,55.941c0,30.896,24.792,55.941,55.374,55.941
				c30.582,0,55.374-25.046,55.374-55.941C799.845,238.978,775.053,213.932,744.471,213.932z M744.471,306.089
				c-18.965,0-34.34-16.214-34.34-36.216s15.374-36.215,34.34-36.215c18.965,0,34.34,16.214,34.34,36.215
				S763.436,306.089,744.471,306.089z"/>
			<path fill="#005EB8" d="M871.046,213.932c-30.582,0-55.374,25.046-55.374,55.941c0,30.896,24.792,55.941,55.374,55.941
				s55.374-25.046,55.374-55.941C926.42,238.978,901.628,213.932,871.046,213.932z M871.046,306.089
				c-18.965,0-34.34-16.214-34.34-36.216s15.374-36.215,34.34-36.215s34.34,16.214,34.34,36.215S890.011,306.089,871.046,306.089z"
				/>
			<path fill="#005EB8" d="M747.87,352.354h-21.179c-0.6,0-1.143,0.358-1.38,0.91l-44.433,103.613
				c-0.425,0.991,0.302,2.094,1.38,2.094h17.705c0.751,0,1.43-0.449,1.726-1.14l8.526-19.97c0.148-0.346,0.487-0.57,0.863-0.57
				h52.405c0.376,0,0.715,0.224,0.863,0.57l8.526,19.97c0.295,0.691,0.974,1.14,1.726,1.14h17.705c1.078,0,1.805-1.103,1.38-2.094
				l-44.433-103.613C749.012,352.711,748.47,352.354,747.87,352.354z M718.574,418.287l18.275-43.128c0.162-0.38,0.701-0.38,0.863,0
				l18.275,43.128c0.132,0.31-0.095,0.654-0.431,0.654h-36.55C718.669,418.941,718.442,418.597,718.574,418.287z"/>
			<path fill="#005EB8" d="M1026.296,370.094v-16.239c0-0.829-0.672-1.501-1.501-1.501h-78.316c-0.829,0-1.501,0.672-1.501,1.501
				v103.616c0,0.829,0.672,1.501,1.501,1.501h78.316c0.829,0,1.501-0.672,1.501-1.501l-0.005-16.248
				c0-0.829-0.672-1.501-1.501-1.501h-58.744c-0.518,0-0.938-0.42-0.938-0.938l0.005-24.22c0-0.518,0.42-0.938,0.938-0.938h53.134
				c0.829,0,1.501-0.672,1.501-1.501v-15.336c0-0.829-0.672-1.501-1.501-1.501h-53.134c-0.518,0-0.938-0.42-0.938-0.938v-21.815
				c0-0.518,0.42-0.938,0.938-0.938h58.744C1025.624,371.595,1026.296,370.923,1026.296,370.094z"/>
			<path fill="#005EB8" d="M892.072,353.565l-27.129,60.316c-0.166,0.368-0.688,0.368-0.855,0l-27.129-60.316
				c-0.334-0.739-1.07-1.213-1.88-1.213h-23.324c-0.829,0-1.501,0.672-1.501,1.501v103.619c0,0.829,0.672,1.501,1.501,1.501h16.182
				c0.829,0,1.501-0.672,1.501-1.501v-76.697c0-0.505,0.689-0.653,0.897-0.193l26.008,57.573c0.243,0.538,0.778,0.883,1.368,0.883
				h13.611c0.59,0,1.125-0.346,1.368-0.883l26.008-57.573c0.208-0.46,0.897-0.312,0.897,0.193v76.697
				c0,0.829,0.672,1.501,1.501,1.501h16.159c0.829,0,1.501-0.672,1.501-1.501V353.853c0-0.829-0.672-1.501-1.501-1.501h-23.301
				C893.142,352.352,892.407,352.826,892.072,353.565z"/>
			<path fill="#005EB8" d="M984.85,323.146c11.259-0.368,22.578-1.749,29.488-6.252c12.835-8.364,22.914-22.579,22.914-45.699
				c0-22.369-9.765-37.632-20.868-45.728c-12.845-9.366-32.7-8.866-39.548-8.866h-30.358c-0.829,0-1.501,0.672-1.501,1.501v103.543
				c0,0.829,0.672,1.501,1.501,1.501H984.85z M965.108,236.781c0-0.518,0.42-0.938,0.938-0.938h11.373
				c13.187,0.164,20.008,1.529,27.652,6.869c12.256,8.561,11.693,28.483,11.693,28.483s0.693,19.942-12.561,28.032
				c-4.848,2.959-13.354,4.672-20.698,4.672h-17.485c-0.516-0.003-0.914-0.422-0.914-0.938V236.781z"/>
		</g>
		<path fill="#005EB8" d="M468.425,234.674l-130.25-79.261c-8.493-5.162-22.389-5.166-30.88,0L177.01,234.671
			c-7.851,4.776-14.274,16.093-14.272,25.283l0.003,155.093c0.002,9.19,6.416,20.508,14.27,25.281l130.279,79.261
			c8.493,5.162,22.395,5.168,30.886,0.002l130.247-79.261c7.851-4.776,14.272-16.092,14.27-25.282l0.002-155.094
			C482.695,250.764,476.278,239.447,468.425,234.674z M448.621,423.342l-121.135,73.695c-2.614,1.59-6.891,1.59-9.505,0
			l-121.135-73.695c-12.359-7.519-12.359-19.822,0-27.341l73.504-44.695c2.614-1.59,6.891-1.59,9.505,0l18.548,11.284
			c3.533,2.149,3.532,5.665-0.001,7.812l-58.214,35.364c-3.533,2.148-3.534,5.663-0.001,7.813L315.01,459.1
			c4.247,2.584,11.198,2.584,15.445,0l74.827-45.523c3.531-2.148,3.531-5.663,0-7.812l-18.491-11.249
			c-2.615-1.591-6.894-1.59-9.508,0.002l-49.802,30.307c-2.614,1.592-6.884,1.593-9.499,0.002l-18.488-11.248
			c-3.535-2.151-3.537-5.666,0-7.813l74.955-45.507c4.245-2.577,11.19-2.584,15.432-0.003l58.739,35.746
			C460.979,403.52,460.979,415.823,448.621,423.342z M448.621,278.999l-121.135,73.695c-2.614,1.59-6.891,1.59-9.505,0
			l-121.135-73.695c-12.359-7.519-12.359-19.822,0-27.341l121.135-73.695c2.614-1.59,6.891-1.59,9.505,0l18.566,11.295
			c3.532,2.149,3.532,5.665-0.001,7.813l-105.863,64.353c-3.533,2.148-3.534,5.663-0.001,7.813l74.825,45.521
			c4.247,2.584,11.198,2.584,15.445,0l74.827-45.523c3.531-2.148,3.531-5.663,0-7.812l-18.491-11.249
			c-2.615-1.591-6.894-1.59-9.508,0.002l-49.802,30.307c-2.614,1.592-6.884,1.593-9.499,0.002l-18.488-11.248
			c-3.535-2.151-3.537-5.666,0-7.813l74.955-45.503c4.245-2.577,11.19-2.578,15.432,0.003l58.739,35.735
			C460.979,259.177,460.979,271.481,448.621,278.999z"/>
		<rect x="0" y="0.54" fill="none" width="1200" height="673.918"/>
	</g>
</g>
<g id="abstand" display="none">
	<g display="inline">
		<path fill="#F1B0CE" d="M361.612,461.08h-77.881c-1.7,0-1.7,1.587-1.7,1.587v103.133c0,0,0.115,1.971,2.007,1.971h77.494
			c1.869,0,1.869-2.146,1.869-2.146v-16.034c0,0-0.077-1.768-2.116-1.768h-58.543c-0.694,0-0.771-1.07-0.771-1.07v-22.652
			c0,0,0.06-1.115,0.846-1.115h53.087c1.722,0,1.757-1.897,1.757-1.897v-16.057c0,0,0.005-1.558-1.757-1.558h-53.386
			c-0.559,0-0.641-0.982-0.641-0.982v-20.687c0,0-0.025-0.853,0.714-0.853h59.169c1.642,0,1.642-2.175,1.642-2.175V462.78
			C363.402,462.78,363.517,461.08,361.612,461.08z"/>
		<path fill="#F1B0CE" d="M361.612,567.771h-77.881c-1.7,0-1.7,1.587-1.7,1.587V672.49c0,0,0.115,1.971,2.007,1.971h77.494
			c1.869,0,1.869-2.146,1.869-2.146v-16.034c0,0-0.077-1.768-2.116-1.768h-58.543c-0.694,0-0.771-1.07-0.771-1.07v-22.652
			c0,0,0.06-1.115,0.846-1.115h53.087c1.722,0,1.757-1.897,1.757-1.897v-16.057c0,0,0.005-1.558-1.757-1.558h-53.386
			c-0.559,0-0.641-0.982-0.641-0.982v-20.687c0,0-0.025-0.853,0.714-0.853h59.169c1.642,0,1.642-2.175,1.642-2.175V569.47
			C363.402,569.47,363.517,567.771,361.612,567.771z"/>
	</g>
	<g display="inline">
		<path fill="#F1B0CE" d="M421.027,0.54h-77.881c-1.7,0-1.7,1.587-1.7,1.587v103.133c0,0,0.115,1.971,2.007,1.971h77.494
			c1.869,0,1.869-2.146,1.869-2.146V89.051c0,0-0.077-1.768-2.116-1.768h-58.543c-0.694,0-0.771-1.07-0.771-1.07V63.562
			c0,0,0.06-1.115,0.846-1.115h53.087c1.722,0,1.757-1.897,1.757-1.897V44.493c0,0,0.005-1.558-1.757-1.558h-53.386
			c-0.559,0-0.641-0.982-0.641-0.982V21.266c0,0-0.025-0.853,0.714-0.853h59.169c1.642,0,1.642-2.175,1.642-2.175V2.24
			C422.817,2.24,422.932,0.54,421.027,0.54z"/>
		<path fill="#F1B0CE" d="M421.027,107.231h-77.881c-1.7,0-1.7,1.587-1.7,1.587V211.95c0,0,0.115,1.971,2.007,1.971h77.494
			c1.869,0,1.869-2.146,1.869-2.146v-16.034c0,0-0.077-1.768-2.116-1.768h-58.543c-0.694,0-0.771-1.07-0.771-1.07v-22.652
			c0,0,0.06-1.115,0.846-1.115h53.087c1.722,0,1.757-1.897,1.757-1.897v-16.057c0,0,0.005-1.558-1.757-1.558h-53.386
			c-0.559,0-0.641-0.982-0.641-0.982v-20.687c0,0-0.025-0.853,0.714-0.853h59.169c1.642,0,1.642-2.175,1.642-2.175V108.93
			C422.817,108.93,422.932,107.231,421.027,107.231z"/>
	</g>
	<g display="inline">
		<path fill="#F1B0CE" d="M79.58,284.156H1.7c-1.7,0-1.7,1.587-1.7,1.587v103.133c0,0,0.115,1.971,2.007,1.971h77.494
			c1.869,0,1.869-2.146,1.869-2.146v-16.034c0,0-0.077-1.768-2.116-1.768H20.711c-0.694,0-0.771-1.07-0.771-1.07v-22.652
			c0,0,0.06-1.115,0.846-1.115h53.087c1.722,0,1.757-1.897,1.757-1.897V328.11c0,0,0.005-1.558-1.757-1.558H20.486
			c-0.559,0-0.641-0.982-0.641-0.982v-20.687c0,0-0.025-0.853,0.714-0.853h59.169c1.642,0,1.642-2.175,1.642-2.175v-15.999
			C81.37,285.856,81.485,284.156,79.58,284.156z"/>
		<path fill="#F1B0CE" d="M160.952,284.156H83.071c-1.7,0-1.7,1.587-1.7,1.587v103.133c0,0,0.115,1.971,2.007,1.971h77.494
			c1.869,0,1.869-2.146,1.869-2.146v-16.034c0,0-0.077-1.768-2.116-1.768h-58.543c-0.694,0-0.771-1.07-0.771-1.07v-22.652
			c0,0,0.06-1.115,0.846-1.115h53.087c1.722,0,1.757-1.897,1.757-1.897V328.11c0,0,0.005-1.558-1.757-1.558h-53.386
			c-0.559,0-0.641-0.982-0.641-0.982v-20.687c0,0-0.025-0.853,0.714-0.853h59.169c1.642,0,1.642-2.175,1.642-2.175v-15.999
			C162.741,285.856,162.856,284.156,160.952,284.156z"/>
	</g>
	<g display="inline">
		<path fill="#F1B0CE" d="M1116.838,284.156h-77.881c-1.7,0-1.7,1.587-1.7,1.587v103.133c0,0,0.115,1.971,2.007,1.971h77.494
			c1.869,0,1.869-2.146,1.869-2.146v-16.034c0,0-0.077-1.768-2.116-1.768h-58.543c-0.694,0-0.771-1.07-0.771-1.07v-22.652
			c0,0,0.06-1.115,0.846-1.115h53.087c1.722,0,1.757-1.897,1.757-1.897V328.11c0,0,0.005-1.558-1.757-1.558h-53.386
			c-0.559,0-0.641-0.982-0.641-0.982v-20.687c0,0-0.025-0.853,0.714-0.853h59.169c1.642,0,1.642-2.175,1.642-2.175v-15.999
			C1118.627,285.856,1118.742,284.156,1116.838,284.156z"/>
		<path fill="#F1B0CE" d="M1198.209,284.156h-77.881c-1.7,0-1.7,1.587-1.7,1.587v103.133c0,0,0.115,1.971,2.007,1.971h77.494
			c1.869,0,1.869-2.146,1.869-2.146v-16.034c0,0-0.077-1.768-2.116-1.768h-58.543c-0.694,0-0.771-1.07-0.771-1.07v-22.652
			c0,0,0.06-1.115,0.846-1.115h53.087c1.722,0,1.757-1.897,1.757-1.897V328.11c0,0,0.005-1.558-1.757-1.558h-53.386
			c-0.559,0-0.641-0.982-0.641-0.982v-20.687c0,0-0.025-0.853,0.714-0.853h59.169c1.642,0,1.642-2.175,1.642-2.175v-15.999
			C1199.999,285.856,1200.113,284.156,1198.209,284.156z"/>
	</g>
</g>
</svg>
