<svg width="332" height="423" viewBox="0 0 332 423" fill="none" xmlns="http://www.w3.org/2000/svg">
<path d="M223.477 241.022C223.477 241.022 224.808 248.915 228.493 250.839C234.163 253.805 240.95 257.536 248.484 263.539C250.691 265.296 249.556 272.106 248.645 276.784C239.791 282.404 219.797 284.364 219.797 284.364C219.797 284.364 211.52 274.784 208.653 266.91C207.782 264.522 202.374 259.854 199.134 254.842C194.698 247.984 223.477 241.022 223.477 241.022Z" fill="#FF9566"/>
<path d="M171.639 36.2731C188.739 40.9744 172.137 117.694 172.137 117.694L123.928 106.272C123.928 106.272 160.082 33.0962 171.639 36.2731Z" fill="#DBBD9C"/>
<path d="M218.765 423H255.739C255.699 415.705 224.895 415.475 222.039 402.006L218.561 402.796C220.602 414.019 216.433 415.705 218.765 423Z" fill="#7F6D62"/>
<path d="M72.5563 423H46.9061C46.9458 415.705 62.6245 413.87 65.433 400.4L68.8557 401.189C66.8492 412.414 74.8513 415.705 72.5563 423" fill="#7F6D62"/>
<path d="M173.32 122.313C193.65 148.461 195.375 193.812 203.301 202.806C208.971 209.24 175.641 224.333 169.707 220.451C163.775 216.571 145.311 179.555 140.189 152.94C137.743 140.237 159.245 104.21 173.32 122.313" fill="#726156"/>
<path d="M169.442 118.809C155.314 110.505 137.955 141.343 140.189 152.94C145.311 179.555 163.775 216.571 169.707 220.451C174.077 223.308 191.262 215.577 198.824 208.889C189.499 189.741 177.391 131.703 169.442 118.809" fill="#66544A"/>
<path d="M161.988 207.095C160.746 221.17 200.556 263.231 200.556 263.231L232.601 243.025C232.601 243.025 210.085 207.76 201.509 199.858C192.932 191.956 162.97 195.99 161.988 207.095" fill="#726156"/>
<path d="M192.059 193.005C179.935 190.657 162.758 198.379 161.988 207.095C160.746 221.17 200.556 263.231 200.556 263.231L227.265 246.389C217.015 235.007 197.133 207.841 192.059 193.005" fill="#66544A"/>
<path d="M218.471 248.555C230.584 250.571 242.239 253.559 245.257 257.107C248.274 260.656 245.064 266.948 243.232 269.58C241.4 272.215 228.032 270.823 225.841 270.016C223.646 269.206 223.299 264.041 225.29 263.3C227.281 262.561 234.015 262.978 234.136 261.941C234.258 260.902 233.549 259.47 233.549 259.47C233.549 259.47 217.1 255.756 218.471 248.555" fill="#FFB882"/>
<path d="M230.253 238.38L197.165 259.633C192.562 265.068 199.486 266.657 202.178 265L234.229 244.412C237.872 242.104 235.399 235.239 230.253 238.38Z" fill="#DBBD9C"/>
<path d="M209.916 252.887L233.583 237.684C232.681 237.433 231.553 237.587 230.253 238.38L197.165 259.633C192.562 265.068 199.486 266.657 202.178 265L211.763 258.84C209.106 258.592 206.705 256.676 209.916 252.887Z" fill="#BF9C79"/>
<path d="M171.443 40.2881C181.581 46.3316 166.109 120.102 166.109 120.102L123.732 110.287C123.732 110.287 161.384 34.2919 171.443 40.2881" fill="#302622"/>
<path d="M106.399 233.98C142.733 295.142 172.851 340.869 172.851 340.869C172.851 340.869 192.63 385.781 220.758 410.073L224.244 407.872C224.244 407.872 216.991 330.075 215.496 319.673C214.003 309.267 186.336 218.335 186.336 218.335L106.399 233.98" fill="#66544A"/>
<path d="M172.801 295.93L203.957 277.357C195.802 249.445 186.336 218.335 186.336 218.335L106.399 233.98C142.733 295.142 172.851 340.869 172.851 340.869C172.851 340.869 192.63 385.781 220.758 410.073L222.516 408.965C199.743 381.316 172.801 295.93 172.801 295.93" fill="#56433A"/>
<path d="M87.4779 223.462C76.0002 288.502 71.1984 330.549 71.1984 330.549C71.1984 330.549 57.2192 374.939 63.6727 407.459H67.9424C67.9424 407.459 112.779 349.131 118.496 340.356C121.525 335.714 148.075 272.554 148.075 272.554L164.836 265.655L158.801 225.578L87.4779 223.462" fill="#66544A"/>
<path d="M158.801 225.578L87.4779 223.462C76.0002 288.502 71.1984 330.549 71.1984 330.549C71.1984 330.549 57.2192 374.939 63.6727 407.459H67.9424C67.9424 407.459 68.6016 406.602 69.7451 405.112C60.7715 378.685 98.3441 302.8 98.3441 302.8L136.245 300.449C142.542 285.708 148.075 272.554 148.075 272.554L164.836 265.655L158.801 225.578Z" fill="#56433A"/>
<path d="M73.4298 291.861C102.699 293.089 179.522 286.002 204.521 271.687L189.888 225.339C189.888 225.339 180.517 134.125 170.458 120.22C160.397 106.315 100.973 102.066 89.892 113.424C63.5483 140.422 83.4913 232.429 83.4913 232.429L73.4298 291.861" fill="#726156"/>
<path d="M161.024 116.03C161.024 112.463 152.593 109.572 142.19 109.572C131.787 109.572 123.354 112.463 123.354 116.03C123.354 119.597 131.787 122.49 142.19 122.49C152.593 122.49 161.024 119.597 161.024 116.03Z" fill="#66544A"/>
<path d="M153.607 101.542L151.301 110.618C151.301 110.618 149.314 114.806 140.92 114.11L142.677 97.7027L153.607 101.542Z" fill="#D3A16A"/>
<path d="M101.494 139.769C94.9744 132.326 87.0967 154.535 76.2754 165.803C76.151 198.5 83.4913 232.429 83.4913 232.429L73.4298 291.861C80.9078 292.176 91.4988 291.944 103.527 291.189C137.407 229.487 113.726 153.733 101.494 139.769Z" fill="#66544A"/>
<path d="M157.76 133.552C157.76 133.552 153.35 132.617 151.206 136.828C149.062 141.044 166.477 231.179 167.075 279.172L174.154 275.662C175.263 253.187 157.76 133.552 157.76 133.552" fill="#66544A"/>
<path d="M160.828 133.019C160.828 133.019 156.405 132.087 154.322 136.277C152.241 140.467 170.977 230.066 172.28 277.776L179.308 274.286C180.088 251.944 160.828 133.019 160.828 133.019" fill="#DBBD9C"/>
<path d="M162.358 142.597C161.408 136.589 160.828 133.02 160.828 133.02C160.828 133.02 156.405 132.087 154.322 136.277C153.816 137.3 154.552 143.44 155.971 152.793L162.358 142.597Z" fill="#BF9C79"/>
<path d="M202.477 265.788C176.097 279.122 104.702 285.819 75.1001 284.934C71.1427 284.397 69.7318 292.722 73.6892 293.257C102.958 294.486 179.784 287.398 204.78 273.084C208.407 272.168 206.101 264.872 202.477 265.788" fill="#DBBD9C"/>
<path d="M203.999 265.899C203.528 265.717 203.023 265.651 202.477 265.788C201.651 266.207 200.781 266.614 199.87 267.019C201.26 266.652 202.636 266.278 203.999 265.899Z" fill="#BF9C79"/>
<path d="M115.5 289.858C112.837 289.726 112.191 285.95 113.237 283.504C98.1615 284.726 84.5131 285.216 75.1001 284.934C71.1427 284.397 69.7318 292.723 73.6892 293.257C101.007 294.406 169.746 288.303 199.113 275.844C168.973 283.687 133.476 289.094 115.5 289.858" fill="#BF9C79"/>
<path d="M171.946 119.907L167.372 118.269C174.993 164.073 128.399 232.661 81.882 245.804L80.8628 251.828C146.336 232.505 179.263 160.257 171.946 119.907Z" fill="#56433A"/>
<path d="M171.901 116.286L167.33 114.65C174.95 160.454 128.357 229.039 81.8396 242.185L80.8179 248.209C146.293 228.883 179.218 156.635 171.901 116.286Z" fill="#665148"/>
<path d="M164.839 148.134C166.469 149.533 168.023 151.164 169.484 153.027C172.949 139.61 173.817 126.851 171.901 116.286L167.329 114.65C169.042 124.954 167.994 136.412 164.839 148.134" fill="#4F4038"/>
<path d="M121.758 217.935C109.38 229.517 95.6123 238.295 81.8396 242.185L80.8179 248.209C97.1212 243.399 111.402 235.303 123.547 225.238C122.851 222.906 122.268 220.451 121.758 217.935" fill="#4F4038"/>
<path d="M82.0989 121.47C57.6585 143.914 40.9211 191.635 41.3764 199.813C41.8343 207.992 69.6842 214.743 76.0874 211.881C82.4907 209.019 103.665 179.088 113.726 153.733C118.528 141.631 99.0164 105.929 82.0989 121.47Z" fill="#726156"/>
<path d="M35.7751 200.552C34.531 214.627 76.4792 258.987 76.4792 258.987L111.397 237.926C111.397 237.926 93.1029 205.213 84.5264 197.311C75.9525 189.409 36.7546 189.45 35.7751 200.552" fill="#726156"/>
<path d="M104.901 125.776C98.5955 118.191 90.0613 114.155 82.0989 121.47C57.6585 143.914 35.0181 192.759 35.4734 200.938C35.7354 205.611 46.8611 209.448 57.5473 211.347C47.589 168.8 85.0849 118.906 104.901 125.776Z" fill="#66544A"/>
<path d="M40.9873 197.543C39.7458 211.619 76.4792 258.987 76.4792 258.987L111.397 237.926C111.397 237.926 93.1029 205.213 84.5264 197.311C75.9525 189.409 41.9694 186.441 40.9873 197.543" fill="#726156"/>
<path d="M56.2106 186.315C45.3947 186.782 36.2569 195.076 35.7751 200.552C34.531 214.627 76.4792 258.987 76.4792 258.987L95.599 247.454C87.499 238.664 56.2821 199.129 56.2106 186.315Z" fill="#66544A"/>
<path d="M164.992 57.3817C175.641 70.231 167.3 102.579 158.488 107.652C152.392 108.154 130.517 102.312 130.517 102.312C130.517 102.312 146.799 63.0962 156.731 54.5883C158.705 52.8981 164.058 56.4987 164.992 57.3817" fill="#DDAE7C"/>
<path d="M164.661 68.2024C160.685 67.6224 155.206 79.532 152.424 94.8006C151.704 98.7539 151.238 102.537 151.008 105.993C153.909 106.478 156.432 106.762 157.938 106.637C164.092 103.095 168.124 83.8427 165.908 68.8936C165.532 68.5172 165.119 68.2687 164.661 68.2024Z" fill="#F2C58F"/>
<path d="M141.311 128.247C145.573 100.458 153.61 54.1243 170.681 39.947C170.681 39.947 127.083 37.781 106.05 57.9403C99.8846 63.8513 106.352 86.295 101.478 94.4762C94.7706 99.1112 91.2473 110.77 93.9208 111.473C103.162 119.865 112.81 126.815 141.311 128.247" fill="#726156"/>
<path d="M115.786 50.8743C112.233 52.858 107.884 55.1471 105.007 57.905C98.8391 63.8136 104.612 85.5092 99.7365 93.688C93.0314 98.323 91.2473 110.77 93.9209 111.473C103.162 119.865 118.864 138.547 153.607 137.674C140.141 129.644 142.961 117.699 143.996 111.828C120.606 108.786 105.896 78.0903 115.786 50.8743" fill="#66544A"/>
<path d="M103.977 243.692C116.283 244.218 128.288 245.761 131.816 248.907C135.345 252.056 133.121 258.681 131.708 261.513C130.292 264.344 116.839 264.592 114.544 264.057C112.249 263.525 111.116 258.447 112.974 257.472C114.835 256.496 121.572 256.092 121.535 255.05C121.495 254.006 120.574 252.673 120.574 252.673C120.574 252.673 103.715 250.997 103.977 243.692" fill="#FFB882"/>
<path d="M5.85533 417.3L0 413.461L312.466 20.4767L315.471 22.3421L5.85533 417.3Z" fill="#CE773C"/>
<path d="M288.965 53.6841L287.766 37.6295L331.019 1.49507e-05L306.039 50.7747L288.965 53.6841" fill="#BCDDD8"/>
<path d="M288.965 53.6841L287.766 37.6295L331.019 1.49507e-05L288.965 53.6841Z" fill="#9BB2AF"/>
<path d="M169.071 77.6594C169.063 77.373 167.639 76.464 165.81 76.5042C163.981 76.5421 162.44 77.5151 162.448 77.7991C162.456 78.0856 163.867 77.6713 165.696 77.6334C167.525 77.5955 169.079 77.9459 169.071 77.6594Z" fill="#C18952"/>
<path d="M164.148 72.3902C166.506 80.6874 169.982 86.9534 168.333 88.6863C166.684 90.4191 160.757 90.3859 160.757 90.3859L164.148 72.3902Z" fill="#D3A16A"/>
<path d="M162.671 71.8433C165.027 80.1452 168.505 86.4066 166.856 88.1417C165.207 89.8745 159.28 89.8414 159.28 89.8414L162.671 71.8433Z" fill="#F2C58F"/>
<path d="M172.886 72.3261L164.757 74.7075L148.141 73.1356L148.257 66.7726L164.757 70.6714L172.126 67.1584L172.886 72.3261" fill="#493B33"/>
<path d="M163.796 95.4349C163.727 95.4088 156.757 93.6855 150.748 96.6019L148.599 95.6124C155.992 92.0355 163.724 94.8454 164.05 94.9662L163.796 95.4349Z" fill="#C18952"/>
<path d="M160.77 97.3573C160.781 97.0306 159.597 96.633 158.128 96.4744C156.659 96.3157 155.46 96.4554 155.449 96.7821C155.441 97.1135 156.625 97.5088 158.094 97.6674C159.563 97.8261 160.762 97.6864 160.77 97.3573Z" fill="#C18952"/>
<path d="M159.203 77.4108C159.195 77.1244 157.178 76.2296 154.576 76.2817C151.971 76.3385 149.766 77.3233 149.774 77.6097C149.782 77.8961 151.797 77.4677 154.399 77.4132C157.003 77.3588 159.211 77.6973 159.203 77.4108Z" fill="#C18952"/>
<path d="M161.106 40.0299C145.478 54.6736 140.335 96.2918 136.973 123.775L145.616 126.323C149.033 98.4247 154.158 54.1954 170.8 39.9612C174.119 36.6731 169.352 33.0797 161.106 40.0299Z" fill="#DBBD9C"/>
<path d="M167.335 114.051C167.335 114.051 166.467 127.317 158.218 129.762C149.967 132.205 145.605 126.851 145.346 122.199L136.973 123.776C135.586 142.678 172.459 141.97 172.576 115.592L167.335 114.051" fill="#DBBD9C"/>
<path d="M102.389 240.423C102.389 240.423 103.659 243.186 107.604 244.646C113.671 246.893 124.164 248.817 128.825 256.818C135.557 268.375 104.091 278.917 104.091 278.917C104.091 278.917 94.4291 270.432 90.3923 262.983C89.1667 260.717 83.0996 256.752 79.1263 252.183C90.8767 247.475 102.389 240.423 102.389 240.423Z" fill="#FFB882"/>
<path d="M118.226 255.824C119.071 252.626 125.985 252.283 126.927 253.971C127.87 255.656 135.287 265 133.479 266.893C131.671 268.785 126.125 270.314 124.73 269.1C123.335 267.888 117.546 258.409 118.226 255.824" fill="#FFB882"/>
<path d="M110.452 263.944C111.296 260.748 118.21 260.403 119.153 262.088C120.095 263.776 127.512 273.119 125.702 275.011C123.894 276.905 118.351 278.434 116.956 277.219C115.561 276.005 109.771 266.527 110.452 263.944" fill="#FFB882"/>
<path d="M102.582 272.703C103.517 269.639 110.208 268.967 111.055 270.513C111.905 272.059 118.721 280.517 116.905 282.396C115.09 284.278 109.674 286.002 108.374 284.925C107.072 283.85 101.828 275.181 102.582 272.703Z" fill="#FFB882"/>
<path d="M109.234 231.397L71.3122 254.271C67.6619 258.461 72.0878 262.417 77.2046 260.703L113.493 238.816C117.758 235.885 116.069 229.136 109.234 231.397Z" fill="#DBBD9C"/>
<path d="M92.3909 242.866L112.112 230.973C111.283 230.923 110.333 231.035 109.234 231.397L71.3122 254.271C67.6619 258.461 72.0878 262.417 77.2046 260.703L95.4588 249.693C91.7635 249.475 89.4447 246.249 92.3909 242.866Z" fill="#BF9C79"/>
<path d="M79.6478 123.816C94.1379 117.857 111.415 143.587 112.22 157.362C113.075 159.085 115.288 157.572 115.418 152.686C115.733 140.85 103.614 113.854 86.1411 117.076C82.6893 117.713 77.6811 120.104 79.6478 123.816Z" fill="#DBBD9C"/>
<path d="M219.443 412.658C215.61 413.69 212.489 407.408 215.22 405.838C217.952 404.267 221.425 400.966 224.08 401.134C226.735 401.297 229.663 406.71 227.127 408.804C224.588 410.899 219.443 412.658 219.443 412.658" fill="#DBBD9C"/>
<path d="M60.3586 408.508C56.8115 406.851 59.4956 400.405 62.6774 400.995C65.8592 401.582 70.9204 401.397 72.6887 403.177C74.4569 404.957 72.3127 410.655 68.861 410.563C65.4118 410.473 60.3586 408.508 60.3586 408.508" fill="#DBBD9C"/>
<path d="M118.496 340.356L81.9746 336.192L82.2367 332.004L119.476 338.528L118.496 340.356Z" fill="#56433A"/>
<path d="M186.592 343.173L216.118 324.779L216.327 326.668L186.854 348.063L186.592 343.173" fill="#56433A"/>
<path d="M93.2088 208.238L74.1684 191.784L85.294 196.497L107.969 166.487L89.3943 200.161L93.2088 208.238Z" fill="#56433A"/>
<path d="M129.601 122.49C105.984 115.332 98.7624 104.161 99.9324 100.319C101.102 96.4791 105.203 95.9583 110.473 98.7493C115.743 101.543 129.601 122.49 129.601 122.49" fill="#726156"/>
<path d="M235.939 263.496C237.26 260.431 244.163 260.933 244.841 262.718C245.519 264.505 251.443 274.663 249.365 276.317C247.284 277.972 241.559 278.812 240.362 277.442C239.166 276.069 234.872 265.973 235.939 263.496Z" fill="#FFB882"/>
<path d="M226.365 269.583C227.685 266.52 234.589 267.019 235.267 268.806C235.942 270.591 241.869 280.749 239.791 282.404C237.71 284.061 231.982 284.901 230.788 283.528C229.591 282.158 225.295 272.061 226.365 269.583Z" fill="#FFB882"/>
</svg>
