<svg width="228" height="288" viewBox="0 0 228 288" fill="none" xmlns="http://www.w3.org/2000/svg">
<path d="M126.08 152.751C126.08 152.751 129.24 152.651 130.68 151.955C132.907 150.887 135.627 149.648 139.12 148.711C140.147 148.436 143.493 151.783 144.48 153.163C143.293 153.795 137.187 162.513 137.187 162.513C137.187 162.513 132.573 162.844 129.787 161.892C128.933 161.604 126.333 162.192 124.2 162.027C121.28 161.8 126.08 152.751 126.08 152.751Z" fill="#D87A35"/>
<path d="M45.2667 50.684C28.9867 29.0773 15.6133 0.601358 15.6133 0.601358C15.6133 0.601358 46.7466 43.1027 49.24 47.4613C51.7333 51.82 50.3066 55.7014 49.84 55.7014C49.3733 55.7014 46.3867 52.1813 45.2667 50.684" fill="#D13D6B"/>
<path d="M47.8667 65.0613L49.84 55.7013L59.8934 57.6707L47.8667 65.0613Z" fill="#A58C7E"/>
<path d="M83.4133 73.7947L89.5466 108.517C89.5466 108.517 73.1734 111.627 65.3867 110.069L62.4 81.9427L83.4133 73.7947Z" fill="#59473D"/>
<path d="M85.2799 118.009C94.4666 128.963 97.4266 154.501 107.347 157.392C111.16 158.504 97.8932 171.097 95.0799 169.852C92.2799 168.605 81.2266 163.001 78.4266 156.931C75.6266 150.859 81.2266 113.183 85.2799 118.009" fill="#6B323D"/>
<path d="M80.6132 162.691L79.52 146.967L98.8267 138.559L103.787 151.865L80.6132 162.691Z" fill="#D87A35"/>
<path d="M102.853 149.363C101.227 149.56 99.28 150.164 97.2933 151.18C93.4 153.177 90.8132 155.997 91.0799 157.801L103.787 151.865L102.853 149.363" fill="#EF9B3F"/>
<path d="M77.7999 158.02L103.48 144.733C103.48 144.733 94.3066 117.075 79.9333 112.817C79.9333 112.817 71.0399 131.225 77.7999 158.02" fill="#5E3F42"/>
<path d="M95.56 148.919C92.8534 134.891 87.1466 124.283 80.9466 124.283C79.1866 124.283 77.5333 125.273 76.0667 126.993C74.8933 134.827 74.64 145.508 77.8 158.02L95.56 148.919Z" fill="#4C3034"/>
<path d="M86.2534 167.232L44.8 177.168L44.1733 184.952L88.24 175.145L86.2534 167.232" fill="#D87A35"/>
<path d="M68.8133 175.579C75.28 173.997 81.2001 174.299 84.0267 176.083L88.24 175.145L86.2534 167.232L44.8 177.168L44.1733 184.952L56.08 182.304C58.1333 179.659 62.92 177.024 68.8133 175.579" fill="#CE6225"/>
<path d="M90.3201 186.292L42.2534 196.056L49.88 233.588L97.9466 223.824L90.3201 186.292Z" fill="#382427"/>
<path d="M0.719971 287.806H10.6933C10.6933 287.806 11.5066 282.715 10.1999 282.22C8.89325 281.725 4.43997 285.489 0.719971 287.806" fill="#894C55"/>
<path d="M143.96 287.806H126.12C126.12 287.806 124.667 282.715 126.987 282.22C129.32 281.725 137.307 285.489 143.96 287.806Z" fill="#894C55"/>
<path d="M31.72 223.251C31.72 223.251 13.3466 271.824 7.74658 284.277H8.67992L51.6534 229.167L31.72 223.251" fill="#894C55"/>
<path d="M26.6933 261.174L51.6533 229.167L31.72 223.251C31.72 223.251 26.7466 236.416 21.1866 250.792C23.44 253.397 25.3333 256.957 26.6933 261.174" fill="#6B323D"/>
<path d="M90.0533 223.489C90.0533 223.489 120.893 272.174 127.187 284.277L128.36 283.616L107.307 213.963L90.0533 223.489Z" fill="#894C55"/>
<path d="M113.347 233.931L107.307 213.963L90.0533 223.489C90.0533 223.489 100.24 239.563 110.093 255.536C110.573 247.221 111.72 239.776 113.347 233.931" fill="#6B323D"/>
<path d="M23.6266 236.328C44.1733 245.668 75.3199 236.64 75.3199 236.64L73.7599 197.096L75.5065 196.224L86.8399 234.149L112.987 222.317L89.6399 172.187L42.3065 184.019L23.6266 236.328Z" fill="#5E3F42"/>
<path d="M49.9732 182.101L42.3065 184.019L23.6266 236.328C26.3733 237.576 29.3066 238.488 32.3332 239.145C32.3332 220.68 40.1732 197.287 49.9732 182.101" fill="#4C3034"/>
<path d="M108.187 224.492L112.987 222.317L89.6399 172.187L82.5867 173.948C93.3867 184.7 104.147 205.329 108.187 224.492Z" fill="#4C3034"/>
<path d="M111 218.041L89.3466 227.945L77.92 192.275L71.2267 193.656V234.055C71.2267 234.055 45.4667 240.025 25.1867 231.969L23.1333 236.421C43.68 245.763 75.8533 237.109 75.8533 237.109L74.2799 197.695L75.36 197.399L86.4 235.041L113.787 223.117L111 218.041" fill="#EF9B3F"/>
<path d="M42.6932 177.401C62.7066 176.312 87.7732 169.696 87.7732 169.696C87.7732 169.696 90.8665 124.979 85.5732 117.351C80.2798 109.723 62.8666 108.227 59.5866 108.849C56.3199 109.473 42.1599 117.075 40.5999 120.189C39.0399 123.303 40.5999 170.708 42.6932 177.401" fill="#5E3F42"/>
<path d="M51.4533 172.239C49.7066 166.691 48.2665 125.763 44.3465 122.969C42.4399 124.3 40.5733 122.356 40.1333 123.232C38.5866 126.345 40.1466 171.063 42.2533 177.757C62.2533 176.667 87.7732 169.696 87.7732 169.696C87.7732 169.696 87.8133 168.959 87.8933 167.672C78.8933 169.716 64.44 171.532 51.4533 172.239Z" fill="#4C3034"/>
<path d="M83.5867 121.444L52.6133 122.689L53.2267 169.707L85.4534 165.191C85.4534 165.191 85.4667 133.921 83.5867 121.444" fill="#44272D"/>
<path d="M73.5733 149.528L68.48 149.736C68.52 151.444 68.5467 153.095 68.5733 154.651L73.6667 154.289C73.64 152.768 73.6133 151.169 73.5733 149.528" fill="#9E8E85"/>
<path d="M67.6398 154.716C67.6132 153.135 67.5865 151.479 67.5465 149.775L61.2131 150.033C61.2265 151.816 61.2398 153.541 61.2398 155.168L67.6398 154.716Z" fill="#9E8E85"/>
<path d="M84.2666 149.092L80.1333 149.261C80.16 150.856 80.1866 152.388 80.2132 153.828L84.3466 153.535C84.3332 152.135 84.3066 150.644 84.2666 149.092Z" fill="#9E8E85"/>
<path d="M79.1867 149.299L74.5066 149.491C74.5466 151.137 74.5733 152.725 74.6 154.223L79.2799 153.892C79.2532 152.429 79.2267 150.888 79.1867 149.299Z" fill="#9E8E85"/>
<path d="M74.0267 135.457L78.6799 135.268C78.5866 133.372 78.4666 131.533 78.3466 129.801L73.6934 129.991C73.8267 131.723 73.9334 133.56 74.0267 135.457Z" fill="#9E8E85"/>
<path d="M73.1066 123.656C73.2932 125.183 73.4665 126.945 73.6132 128.864L78.2533 128.673C78.1066 126.76 77.9333 125.004 77.7333 123.469L73.1066 123.656" fill="#9E8E85"/>
<path d="M79.3066 129.761C79.4266 131.492 79.5466 133.332 79.64 135.228L83.76 135.06C83.6534 133.155 83.5333 131.313 83.4 129.595L79.3066 129.761" fill="#9E8E85"/>
<path d="M67.5999 129.111L72.6533 128.903C72.5066 126.997 72.3332 125.24 72.1465 123.693L67.1066 123.896C67.2932 125.435 67.4533 127.2 67.5999 129.111" fill="#9E8E85"/>
<path d="M79.9201 141.927L84.0534 141.759C83.9867 139.889 83.9066 138.016 83.8133 136.188L79.6934 136.356C79.7867 138.189 79.8534 140.06 79.9201 141.927" fill="#9E8E85"/>
<path d="M67.5067 148.645C67.4667 146.977 67.4268 145.276 67.3601 143.569L61.1201 143.825C61.1601 145.536 61.1867 147.239 61.2001 148.903L67.5067 148.645Z" fill="#9E8E85"/>
<path d="M84.0933 142.887L79.96 143.055C80.0133 144.776 80.0666 146.48 80.1066 148.132L84.2399 147.963C84.1999 146.312 84.1466 144.608 84.0933 142.887Z" fill="#9E8E85"/>
<path d="M74.48 148.361L79.1601 148.169C79.1201 146.509 79.0667 144.807 79.0133 143.095L74.3467 143.284C74.4 145.001 74.44 146.704 74.48 148.361Z" fill="#9E8E85"/>
<path d="M73.36 142.195C73.2933 140.323 73.2133 138.452 73.12 136.624L68.0533 136.831C68.1467 138.663 68.2132 140.533 68.2799 142.403L73.36 142.195" fill="#9E8E85"/>
<path d="M67.6799 130.236C67.7999 131.971 67.9067 133.808 68 135.703L73.0667 135.497C72.9733 133.603 72.8667 131.764 72.7333 130.029L67.6799 130.236Z" fill="#9E8E85"/>
<path d="M68.4534 148.608L73.5466 148.399C73.5066 146.733 73.4533 145.032 73.4 143.324L68.3066 143.531C68.3733 145.245 68.4134 146.947 68.4534 148.608Z" fill="#9E8E85"/>
<path d="M61.1066 142.696L67.32 142.441C67.2666 140.568 67.1866 138.699 67.0933 136.871L60.9465 137.12C61.0132 138.949 61.0666 140.821 61.1066 142.696" fill="#9E8E85"/>
<path d="M74.0798 136.585C74.1732 138.417 74.2399 140.288 74.3065 142.157L78.9732 141.965C78.9065 140.095 78.8266 138.224 78.7332 136.395L74.0798 136.585" fill="#9E8E85"/>
<path d="M67.7733 165.865C67.7599 164.784 67.7599 163.419 67.7466 161.821L61.2266 162.461C61.2266 164.567 61.2 166.096 61.2 166.785L67.7733 165.865" fill="#9E8E85"/>
<path d="M60.5867 129.396L66.64 129.149C66.4933 127.249 66.3334 125.491 66.16 123.933L60.1466 124.176C60.3066 125.703 60.4667 127.464 60.5867 129.396" fill="#9E8E85"/>
<path d="M79.3066 155.021L74.6133 155.352C74.6399 157.073 74.6533 158.641 74.6667 160.009L79.36 159.548C79.3467 158.184 79.3333 156.664 79.3066 155.021Z" fill="#9E8E85"/>
<path d="M84.3733 154.664L80.2267 154.955C80.2534 156.636 80.2666 158.16 80.2799 159.457L84.4267 159.051C84.4134 157.785 84.3866 156.301 84.3733 154.664Z" fill="#9E8E85"/>
<path d="M68.5867 155.779C68.6133 157.559 68.6399 159.18 68.6399 160.603L73.7466 160.1C73.7332 158.677 73.72 157.101 73.6933 155.419L68.5867 155.779" fill="#9E8E85"/>
<path d="M60.32 162.552L54.72 163.103L54.7866 167.684L60.2933 166.913C60.2933 165.775 60.3066 164.296 60.32 162.552Z" fill="#9E8E85"/>
<path d="M80.2933 160.587C80.3067 162.765 80.3066 164.087 80.3066 164.087L79.4 164.217C79.4 163.305 79.3866 162.1 79.3733 160.676L74.6799 161.139C74.6933 162.907 74.6933 164.215 74.7066 164.893L84.44 163.529C84.44 163.529 84.44 162.265 84.4267 160.179L80.2933 160.587Z" fill="#9E8E85"/>
<path d="M59.6265 129.436C59.4932 127.519 59.3599 125.759 59.1866 124.213L54.2131 124.415L54.2798 129.653L59.6265 129.436" fill="#9E8E85"/>
<path d="M73.76 161.228L68.6533 161.731C68.6667 163.612 68.6799 165.009 68.6799 165.737L73.7999 165.021C73.7866 164.004 73.7733 162.721 73.76 161.228" fill="#9E8E85"/>
<path d="M79.2133 128.635L83.3066 128.468C83.1466 126.515 82.9467 124.747 82.72 123.268L78.6799 123.431C78.8933 124.945 79.0666 126.708 79.2133 128.635" fill="#9E8E85"/>
<path d="M54.3732 136.26L59.9465 136.032C59.8798 134.132 59.7865 132.295 59.6932 130.561L54.2932 130.781L54.3732 136.26Z" fill="#9E8E85"/>
<path d="M67.0399 135.743C66.9466 133.849 66.84 132.011 66.72 130.275L60.6533 130.523C60.76 132.251 60.8399 134.093 60.9066 135.993L67.0399 135.743" fill="#9E8E85"/>
<path d="M59.9867 137.161L54.3867 137.388L54.4534 142.967L60.1466 142.733C60.1066 140.856 60.0534 138.985 59.9867 137.161Z" fill="#9E8E85"/>
<path d="M67.7332 160.692C67.7066 159.219 67.6932 157.583 67.6666 155.844L61.2399 156.299C61.2532 158.153 61.2399 159.849 61.2399 161.331L67.7332 160.692" fill="#9E8E85"/>
<path d="M60.32 161.421C60.32 159.884 60.32 158.18 60.32 156.364L54.6399 156.765L54.7066 161.973L60.32 161.421" fill="#9E8E85"/>
<path d="M60.3067 155.233C60.3067 153.58 60.2934 151.849 60.2667 150.071L54.5601 150.305L54.6267 155.636L60.3067 155.233" fill="#9E8E85"/>
<path d="M60.2534 148.941C60.2401 147.271 60.2133 145.568 60.1733 143.863L54.48 144.096L54.5466 149.175L60.2534 148.941" fill="#9E8E85"/>
<path d="M23.2 130.341C13.0133 140.876 2.72 162.889 1.45333 166.409C-0.666666 172.261 5.41328 178.081 8.33328 176.752C11.2399 175.423 35.2532 152.604 38.0132 143.787C39.8932 137.791 27.68 125.7 23.2 130.341Z" fill="#894C55"/>
<path d="M24.5999 129.472C29.6799 131.672 35.5065 139.04 34.1599 143.313C31.5332 151.729 9.79988 173.732 5.29321 176.868C6.49321 177.723 7.7198 178.081 8.61313 177.672C11.5198 176.343 35.2531 152.604 38.0131 143.787C39.7198 138.34 29.7999 127.867 24.5999 129.472Z" fill="#6B323D"/>
<path d="M23.2001 130.341C16.3867 137.389 9.53335 149.573 5.34668 157.923C8.72001 158.951 12.0801 161.14 14.7201 164.321C16.0534 165.931 17.0801 167.643 17.8001 169.368C25.8001 161.284 36.24 149.455 38.0133 143.787C39.8933 137.791 27.6801 125.7 23.2001 130.341Z" fill="#6B323D"/>
<path d="M7.05334 149.88C9.25334 144.24 15.9733 135.733 19.8533 132.22L31.4132 157.583L25.4 164.812L7.05334 149.88Z" fill="#D87A35"/>
<path d="M26.0267 164.056C25.6667 161.664 22.5332 157.792 17.8799 154.289C14.0799 151.428 10.1999 149.513 7.43993 148.964C7.3066 149.275 7.17334 149.583 7.05334 149.88L25.4 164.812L26.0267 164.056" fill="#EF9B3F"/>
<path d="M32.4799 162.204L8.97327 139.157C8.97327 139.157 18.5867 123.571 47.76 114.58C47.76 114.58 48.7599 140.873 32.4799 162.204" fill="#5E3F42"/>
<path d="M47.3732 122.624C46.7732 125.269 45.9065 128.023 44.7465 130.827C40.1332 141.929 32.2399 150.803 24.5732 154.453L32.8132 163.153C43.5065 149.151 46.4132 132.061 47.3732 122.624Z" fill="#4C3034"/>
<path d="M97.0265 156.659C98.7732 154.451 101.4 153.116 104.2 152.997C109.773 152.76 117.56 152.997 129.293 153.295L128.627 160.523C110.787 171.781 96.8131 169.325 96.8131 169.325C94.9598 165.833 93.7065 160.867 97.0265 156.659Z" fill="#894C55"/>
<path d="M97.6667 166.308C96.4667 164.059 94.8933 161.347 95.44 158.229C92.9733 162.305 94.52 166.937 96.2267 170.139C96.2267 170.139 110.787 171.781 128.627 160.523L128.92 157.373C111.6 167.847 97.6667 166.308 97.6667 166.308Z" fill="#6B323D"/>
<path d="M50.1066 113.213L50.8666 105.867H79.1999L80.6132 113.173C80.6132 113.173 68.1866 121.183 50.1066 113.213" fill="#512F35"/>
<path d="M73.5733 149.528L68.48 149.736C68.52 151.444 68.5467 153.095 68.5733 154.651L73.6667 154.289C73.64 152.768 73.6133 151.169 73.5733 149.528" fill="#C1B4A0"/>
<path d="M67.6398 154.716C67.6132 153.135 67.5865 151.479 67.5465 149.775L61.2131 150.033C61.2265 151.816 61.2398 153.541 61.2398 155.168L67.6398 154.716Z" fill="#C1B4A0"/>
<path d="M74.5867 153.553L76.2399 149.42L74.5066 149.491C74.5333 150.899 74.56 152.251 74.5867 153.553Z" fill="#C1B4A0"/>
<path d="M74.0267 135.457L78.6799 135.268C78.5866 133.372 78.4666 131.533 78.3466 129.801L73.6934 129.991C73.8267 131.723 73.9334 133.56 74.0267 135.457Z" fill="#C1B4A0"/>
<path d="M78.2533 128.673C78.1066 126.76 77.9333 125.004 77.7333 123.469L73.1066 123.656C73.2932 125.183 73.4665 126.945 73.6132 128.864L78.2533 128.673" fill="#C1B4A0"/>
<path d="M79.3066 129.761C79.4266 131.492 79.5466 133.332 79.64 135.228L81.9333 135.135L83.5201 131.181C83.4801 130.649 83.44 130.105 83.4 129.595L79.3066 129.761" fill="#C1B4A0"/>
<path d="M72.1466 123.693L71.5733 123.717L69.4534 129.035L72.6534 128.903C72.5067 126.997 72.3333 125.24 72.1466 123.693" fill="#C1B4A0"/>
<path d="M79.8534 140.345L81.4799 136.283L79.6934 136.356C79.76 137.668 79.8134 139.009 79.8534 140.345" fill="#C1B4A0"/>
<path d="M67.36 143.569L63.5867 143.723L61.52 148.889L67.5066 148.645C67.4666 146.977 67.4267 145.276 67.36 143.569" fill="#C1B4A0"/>
<path d="M74.48 148.361L76.6934 148.272L78.7601 143.105L74.3467 143.284C74.4 145.001 74.44 146.704 74.48 148.361" fill="#C1B4A0"/>
<path d="M73.12 136.624L68.0533 136.831C68.1467 138.663 68.2132 140.533 68.2799 142.403L73.36 142.195C73.2933 140.323 73.2133 138.452 73.12 136.624" fill="#C1B4A0"/>
<path d="M73.0667 135.497C72.9734 133.603 72.8667 131.764 72.7334 130.029L68.9868 130.183L67.8667 133.021C67.9067 133.899 67.96 134.793 68 135.703L73.0667 135.497Z" fill="#C1B4A0"/>
<path d="M73.4 143.324L68.3066 143.531C68.3733 145.245 68.4134 146.947 68.4534 148.608L73.5466 148.399C73.5066 146.733 73.4533 145.032 73.4 143.324Z" fill="#C1B4A0"/>
<path d="M67.0934 136.871L66.3067 136.901L64.04 142.575L67.3201 142.441C67.2668 140.568 67.1868 138.699 67.0934 136.871Z" fill="#C1B4A0"/>
<path d="M74.0798 136.585C74.1732 138.417 74.2399 140.288 74.3065 142.157L78.9732 141.965C78.9065 140.095 78.8266 138.224 78.7332 136.395L74.0798 136.585" fill="#C1B4A0"/>
<path d="M61.2266 162.461C61.2266 164.567 61.2 166.096 61.2 166.785L67.7733 165.865C67.7599 164.784 67.7599 163.419 67.7466 161.821L61.2266 162.461" fill="#C1B4A0"/>
<path d="M68.5867 155.779C68.6133 157.559 68.6399 159.18 68.6399 160.603L71.9066 160.281L73.6933 155.789C73.6933 155.664 73.6933 155.547 73.6933 155.419L68.5867 155.779Z" fill="#C1B4A0"/>
<path d="M60.2933 166.913C60.2933 165.775 60.3067 164.296 60.32 162.552L55.8933 162.987L54.76 165.835L54.7867 167.684L60.2933 166.913" fill="#C1B4A0"/>
<path d="M68.6799 165.737L69.7867 165.583L71.4266 161.457L68.6533 161.731C68.6667 163.612 68.6799 165.009 68.6799 165.737" fill="#C1B4A0"/>
<path d="M83.3066 128.468C83.1466 126.515 82.9467 124.747 82.72 123.268L78.6799 123.431C78.8933 124.945 79.0666 126.708 79.2133 128.635L83.3066 128.468" fill="#C1B4A0"/>
<path d="M67.0132 135.145L66.7732 135.753L67.0399 135.743C67.0399 135.54 67.0265 135.345 67.0132 135.145Z" fill="#C1B4A0"/>
<path d="M61.2399 161.331L67.7332 160.692C67.7066 159.219 67.6932 157.583 67.6666 155.844L61.2399 156.299C61.2532 158.153 61.2399 159.849 61.2399 161.331" fill="#C1B4A0"/>
<path d="M60.32 156.364L58.4933 156.493L56.3733 161.811L60.32 161.421C60.32 159.884 60.32 158.18 60.32 156.364Z" fill="#C1B4A0"/>
<path d="M60.2933 151.988L58.96 155.331L60.3066 155.233C60.3066 154.183 60.2933 153.093 60.2933 151.988Z" fill="#C1B4A0"/>
<path d="M88.1733 129.083C87.7199 123.663 86.9199 119.297 85.5733 117.351C84.4133 115.677 82.6666 114.299 80.6132 113.173L80.5867 113.045C86.5067 115.111 91.5066 121.093 95.3066 127.312C93.3466 128.124 90.9333 128.717 88.1733 129.083" fill="#432022"/>
<path d="M84.4132 129.425C84.1865 126.369 83.92 123.621 83.5866 121.444L52.6132 122.689L52.6399 124.815C50.8132 124.24 49.0399 123.628 47.3333 122.984C47.8799 117.889 47.7599 114.649 47.7599 114.581C48.5333 114.117 49.32 113.66 50.12 113.215L50.1066 113.213C56.1199 115.861 61.4932 116.745 66.0132 116.745C75.0532 116.745 80.5999 113.183 80.6132 113.173C82.6665 114.299 84.4132 115.677 85.5732 117.351C86.9199 119.297 87.7199 123.663 88.1732 129.083C86.9866 129.24 85.7199 129.355 84.4132 129.425" fill="#432022"/>
<path d="M81.0799 129.513C78.1733 129.513 75.04 129.324 71.76 128.94L72.6534 128.903C72.5067 126.997 72.3333 125.24 72.1466 123.693L67.1066 123.896C67.2666 125.228 67.4133 126.731 67.5466 128.351C67.2133 128.299 66.8934 128.244 66.56 128.187C66.44 126.653 66.3067 125.224 66.16 123.933L60.1466 124.176C60.2399 125.027 60.32 125.951 60.4 126.937C60.08 126.86 59.7467 126.781 59.4267 126.701C59.3467 125.823 59.2667 124.991 59.1867 124.213L54.2133 124.415L54.2267 125.3C53.6934 125.141 53.16 124.98 52.64 124.815L52.6133 122.689L83.5867 121.444C83.9201 123.621 84.1866 126.369 84.4133 129.425C83.3333 129.484 82.2266 129.513 81.0799 129.513V129.513ZM73.1066 123.656C73.2933 125.183 73.4666 126.945 73.6133 128.864L78.2534 128.673C78.1067 126.76 77.9333 125.004 77.7333 123.469L73.1066 123.656V123.656ZM78.6799 123.431C78.8933 124.945 79.0666 126.708 79.2133 128.635L83.3066 128.468C83.1466 126.515 82.9467 124.747 82.7201 123.268L78.6799 123.431" fill="#301417"/>
<path d="M72.6533 128.903C72.5066 126.997 72.3332 125.24 72.1465 123.693L71.5732 123.717L69.5999 128.661C68.9199 128.567 68.2399 128.463 67.5465 128.351C67.4132 126.731 67.2666 125.228 67.1066 123.896L72.1465 123.693C72.3332 125.24 72.5066 126.997 72.6533 128.903" fill="#704945"/>
<path d="M66.56 128.187C64.5467 127.84 62.4933 127.424 60.4 126.937C60.32 125.951 60.2399 125.027 60.1466 124.176L66.16 123.933C66.3067 125.224 66.44 126.653 66.56 128.187" fill="#704945"/>
<path d="M59.4265 126.701C59.3199 126.676 59.2132 126.651 59.1065 126.624C57.4398 126.215 55.8132 125.772 54.2265 125.3L54.2131 124.415L59.1866 124.213C59.2666 124.991 59.3465 125.823 59.4265 126.701" fill="#704945"/>
<path d="M47.3334 122.984C47.3467 122.864 47.36 122.743 47.3734 122.624C47.3467 122.739 47.3201 122.853 47.2934 122.969C43.9201 121.692 40.8134 120.293 38.04 118.821C40.9467 117.32 44.1601 115.887 47.7601 114.58V114.581C47.7601 114.649 47.8801 117.889 47.3334 122.984" fill="#432022"/>
<path d="M47.3332 122.984C47.3199 122.979 47.3065 122.975 47.2932 122.969C47.3199 122.853 47.3465 122.739 47.3732 122.624C47.3598 122.743 47.3465 122.864 47.3332 122.984" fill="#36191B"/>
<path d="M66.0132 116.745C61.4932 116.745 56.1199 115.861 50.1066 113.213L50.8666 105.867H70.0399C71.7332 106.284 73.6133 106.577 75.5333 106.577C76.7733 106.577 78.0266 106.457 79.2666 106.169L80.5866 113.045L80.6132 113.173C80.5999 113.183 75.0532 116.745 66.0132 116.745" fill="#3A181B"/>
<path d="M73.6132 128.864C73.4665 126.945 73.2932 125.183 73.1066 123.656L77.7333 123.469C77.9333 125.004 78.1066 126.76 78.2533 128.673L73.6132 128.864" fill="#895D53"/>
<path d="M71.7599 128.94C71.0399 128.856 70.3199 128.764 69.5999 128.661L71.5732 123.717L72.1465 123.693C72.3331 125.24 72.5066 126.997 72.6532 128.903L71.7599 128.94" fill="#895D53"/>
<path d="M79.2133 128.635C79.0666 126.708 78.8933 124.945 78.6799 123.431L82.72 123.268C82.9467 124.747 83.1466 126.515 83.3066 128.468L79.2133 128.635" fill="#895D53"/>
<path d="M47.9599 55.0106C34.0666 47.7186 23.5199 32.896 23.5199 32.896L22.1599 22.536C22.1599 22.536 46.5732 49.836 48.5065 52.8213C50.4265 55.8053 50.2132 56.1893 47.9599 55.0106Z" fill="#E5B751"/>
<path d="M60.3732 85.6267L62.9065 103.104C62.9065 103.104 74.6932 109.913 83.4132 104.465C83.4132 104.465 83.4933 77.0266 80.3866 73.2893C77.2666 69.5533 60.0532 75.5067 60.3732 85.6267" fill="#FFC7A1"/>
<path d="M82.2534 85.1213C80.6934 85.3627 78.1466 86.572 78.1466 86.572L82.8 85.968L82.2534 85.1213Z" fill="#7A5841"/>
<path d="M49.2666 58.392L46.8533 54.6453L50.5332 52.612L52.8932 56.3L49.2666 58.392Z" fill="#A58C7E"/>
<path d="M68.8534 174.637L67.8667 177.888L70.24 179.071L74.4667 178.085L74.9466 175.859L72.6 173.751L68.8534 174.637Z" fill="#EF9B3F"/>
<path d="M70.5332 178.283L67.8666 177.888C67.8666 177.888 65.5065 184.293 66.8798 190.305L72.8933 190.108C72.8933 190.108 69.5466 181.239 70.5332 178.283Z" fill="#EF9B3F"/>
<path d="M72.36 177.539L74.2533 175.52C74.2533 175.52 80.1467 179.011 82.7867 184.597L77.8267 188.304C77.8267 188.304 74.9867 179.217 72.36 177.539" fill="#EF9B3F"/>
<path d="M78.3199 81.584C79.3066 84.408 84.8132 92.948 84.8132 92.948L79.6266 94.2867L78.3199 81.584" fill="#EAA373"/>
<path d="M77.2666 81.5173C78.1999 84.196 83.5732 92.292 83.5732 92.292L78.36 93.5613L77.2666 81.5173" fill="#FFC7A1"/>
<path d="M80.2133 94.0667C79.6266 94.156 75.88 94.4587 74.84 103.657C77.2 94.196 83.7734 93.08 84.4934 102.408C84.36 94.9187 81.5333 93.868 80.2133 94.0667Z" fill="#44272D"/>
<path d="M78.5465 83.692L69.6399 85.3267V82.436L78.3732 81.988L78.5465 83.692" fill="#44272D"/>
<path d="M83.7733 80.8933L78.5066 82.1747L79.2666 83.6533L84.0266 83.3253L83.7733 80.8933" fill="#44272D"/>
<path d="M77.4666 98.8613C78.2532 97.2173 80.2132 96.8253 81.4666 96.824L81.3999 98.0067L77.4666 98.8613Z" fill="#EAA373"/>
<path d="M75.6533 85.7947C73.5867 86.036 70.2 87.2453 70.2 87.2453L76.3733 86.6414L75.6533 85.7947Z" fill="#7A5841"/>
<path d="M62.0533 93.4413L62.5466 82.8973L80.8267 74.0413C81.4667 75.4253 81.96 77.928 82.32 80.94L81.5066 81.4467L78.5466 82.1667C78.4532 81.9533 78.3733 81.7573 78.32 81.584L78.36 81.9893L77.4666 82.0347C77.3866 81.8453 77.32 81.6733 77.2666 81.5173L77.3066 82.0427L69.6399 82.436V85.3267L77.4799 83.8867V83.9253L73.9066 86.1267C72.0933 86.5693 70.2 87.2453 70.2 87.2453L72.4533 87.0253L62.0533 93.4413" fill="#B56653"/>
<path d="M78.5065 83.2973L78.3732 81.988L78.3599 81.9893L78.3199 81.584C78.3733 81.7573 78.4532 81.9533 78.5465 82.1667L78.5065 82.1747L78.9465 83.0227L78.5065 83.2973" fill="#A6543B"/>
<path d="M77.4799 83.9254V83.8867L77.5732 83.8694L77.4799 83.9254ZM77.3066 82.0427L77.2666 81.5173C77.3199 81.6733 77.3866 81.8454 77.4666 82.0347L77.3066 82.0427Z" fill="#B56653"/>
<path d="M69.6399 85.3267V82.436L77.3066 82.0427L77.4666 82.0347L78.3599 81.9893L78.3732 81.988L78.5066 83.2973L77.5732 83.8693L77.4799 83.8867L69.6399 85.3267" fill="#301417"/>
<path d="M78.9466 83.0227L78.5066 82.1747L78.5466 82.1667L81.5066 81.4467L78.9466 83.0227Z" fill="#301417"/>
<path d="M70.2 87.2453C70.2 87.2453 72.0933 86.5693 73.9066 86.1267L72.4533 87.0253L70.2 87.2453Z" fill="#572D21"/>
<path d="M67.5732 80.4907L69.2799 112.404C69.2799 112.404 53.9733 113.227 46.1866 111.671L48.0533 89.468L67.5732 80.4907" fill="#9E8E85"/>
<path d="M52.9866 101.985C56.4 93.6053 62.24 87.556 67.8533 85.796L67.5732 80.4907L48.0533 89.468L46.1866 111.671C47.44 111.92 48.88 112.108 50.4266 112.249C50.72 108.977 51.56 105.48 52.9866 101.985" fill="#84736B"/>
<path d="M47.6799 91.3094L85.7465 71.928C85.7465 71.928 72.1999 49.172 53.4132 59.6973C34.0932 70.5133 47.6799 91.3094 47.6799 91.3094Z" fill="#7F6D62"/>
<path d="M69.2933 73.24C59.5866 73.24 51.7066 68.3867 51.7066 62.4014C51.7066 61.7734 51.8133 61.1627 51.9866 60.5627C34.8 71.584 47.6799 91.3094 47.6799 91.3094L85.7465 71.928C85.7465 71.928 84.96 70.6107 83.52 68.7667C80.32 71.4733 75.1466 73.24 69.2933 73.24Z" fill="#66564E"/>
<path d="M85.7465 69.7093L87.4933 72.9787L47.6666 92.4067L46.4933 90.336L85.7465 69.7093Z" fill="#C1B4A0"/>
<path d="M68.1601 82.408L87.4934 72.9787L85.7466 69.7094L67.5601 79.268C67.7067 80.356 67.9067 81.4067 68.1601 82.408" fill="#EDDFCC"/>
<path d="M116.253 165.167C116.253 165.167 114.147 158.767 117.413 152.969L130.48 152.825L125.587 161.08L116.253 165.167" fill="#6B323D"/>
<path d="M119.107 166.469C119.107 166.469 116.667 159.085 120.453 152.4L135.52 152.233L129.867 161.755L119.107 166.469Z" fill="#EF9B3F"/>
<path d="M122.08 157.836C121.293 156.296 121.907 154.264 123.493 152.367L120.453 152.4C116.667 159.085 119.107 166.469 119.107 166.469L129.867 161.755L131.573 158.887C127.36 160.583 123.293 160.201 122.08 157.836Z" fill="#D87A35"/>
<path d="M11.1334 287.806L9.01331 284.52L226.533 62.3827L227.653 63.4827L11.1334 287.806Z" fill="#382427"/>
<path d="M55.28 98.7773C54.2933 98.7773 53.5467 98.0787 53.4 97.1227L53.3867 97.2C53.2267 98.48 54.0666 99.5173 55.28 99.5173C56.48 99.5173 57.6 98.48 57.76 97.2C57.7867 96.968 57.7733 96.7493 57.7466 96.5387C57.5466 97.7813 56.4533 98.7773 55.28 98.7773" fill="#84736B"/>
<path d="M59.6667 98.532C58.6667 98.532 57.9334 97.832 57.7868 96.8773L57.7733 96.9533C57.6 98.2333 58.4534 99.272 59.6667 99.272C60.8667 99.272 61.9733 98.2333 62.1466 96.9533C62.1733 96.7213 62.1601 96.5013 62.1201 96.2907C61.9334 97.5347 60.84 98.532 59.6667 98.532" fill="#84736B"/>
<path d="M63.9999 98.04C63.0133 98.04 62.2666 97.3387 62.12 96.384L62.1066 96.46C61.9466 97.7413 62.7866 98.7773 63.9999 98.7773C65.1999 98.7773 66.3199 97.7413 66.4799 96.46C66.5065 96.2293 66.4933 96.0093 66.4666 95.7987C66.2666 97.0427 65.1733 98.04 63.9999 98.04" fill="#84736B"/>
<path d="M53.4 104.74C52.4133 104.74 51.68 104.04 51.5333 103.085L51.5066 103.163C51.3466 104.441 52.2 105.48 53.4 105.48C54.6133 105.48 55.7199 104.441 55.8799 103.163C55.9199 102.931 55.9066 102.711 55.8666 102.499C55.6666 103.743 54.5866 104.74 53.4 104.74" fill="#84736B"/>
<path d="M57.7867 104.495C56.8 104.495 56.0667 103.793 55.92 102.839L55.8933 102.915C55.7333 104.195 56.5867 105.232 57.7867 105.232C59 105.232 60.1066 104.195 60.2666 102.915C60.2933 102.683 60.28 102.464 60.2533 102.253C60.0533 103.496 58.9733 104.495 57.7867 104.495" fill="#84736B"/>
<path d="M62.12 104C61.1333 104 60.4 103.301 60.2533 102.345L60.2399 102.423C60.0666 103.703 60.92 104.74 62.12 104.74C63.3333 104.74 64.4399 103.703 64.5999 102.423C64.6399 102.191 64.6266 101.972 64.5866 101.76C64.3866 103.004 63.3066 104 62.12 104" fill="#84736B"/>
<path d="M52.3201 109.564C51.3335 109.491 50.6 108.735 50.44 107.769L50.4268 107.843C50.2668 109.111 51.1068 110.213 52.3201 110.303C53.5335 110.393 54.6401 109.44 54.8001 108.172C54.8267 107.941 54.8135 107.721 54.7868 107.508C54.5868 108.737 53.5068 109.653 52.3201 109.564Z" fill="#84736B"/>
<path d="M56.7066 109.647C55.7199 109.572 54.9733 108.817 54.8266 107.851L54.8132 107.927C54.6532 109.195 55.4933 110.295 56.7066 110.385C57.9066 110.476 59.0267 109.523 59.1867 108.255C59.2133 108.025 59.1999 107.805 59.1733 107.591C58.9733 108.82 57.8933 109.735 56.7066 109.647Z" fill="#84736B"/>
<path d="M61.04 109.48C60.0533 109.405 59.32 108.651 59.16 107.684L59.1466 107.76C58.9866 109.027 59.8266 110.128 61.04 110.217C62.2533 110.309 63.36 109.355 63.52 108.088C63.5467 107.857 63.5333 107.637 63.5066 107.424C63.3066 108.653 62.2266 109.568 61.04 109.48Z" fill="#84736B"/>
<path d="M55.7732 94.0987C54.7732 94.0987 54.04 93.3973 53.8933 92.4427L53.8799 92.5186C53.7199 93.8 54.5599 94.836 55.7732 94.836C56.9732 94.836 58.08 93.8 58.2533 92.5186C58.28 92.2866 58.2666 92.068 58.2399 91.8573C58.0399 93.1013 56.9466 94.0987 55.7732 94.0987Z" fill="#84736B"/>
<path d="M60.1466 93.852C59.1599 93.852 58.4266 93.152 58.2799 92.196L58.2666 92.2734C58.0933 93.552 58.9466 94.5907 60.1466 94.5907C61.3599 94.5907 62.4666 93.552 62.6399 92.2734C62.6666 92.0414 62.6533 91.8227 62.6133 91.6107C62.4133 92.8547 61.3333 93.852 60.1466 93.852Z" fill="#84736B"/>
<path d="M64.5867 93.3587C63.6001 93.3587 62.8667 92.6587 62.7201 91.704L62.6934 91.78C62.5334 93.06 63.3734 94.0987 64.5867 94.0987C65.8001 94.0987 66.9067 93.06 67.0667 91.78C67.0933 91.5493 67.0801 91.3293 67.0534 91.1173C66.8534 92.3613 65.7734 93.3587 64.5867 93.3587" fill="#84736B"/>
<path d="M60.0533 58.7013C61.1333 61.3187 64.8933 63.8773 69.76 64.996C73.2667 65.804 76.5999 65.6893 78.9733 64.8533C75.1333 61.1067 68.12 56.0653 60.0533 58.7013Z" fill="#A58C7E"/>
<path d="M45.1601 71.98C45.1601 71.0627 45.24 70.1667 45.3466 69.2813C40.88 78.3107 47.7601 88.8694 47.7601 88.8694L51.4267 87C47.5734 83.216 45.1601 77.892 45.1601 71.98Z" fill="#7F6D62"/>
<path d="M127.573 154.679C131.2 151.384 137.333 147.292 139.04 147.184C140.733 147.077 141.547 149.551 141.76 150.737C141.987 151.924 138.187 155.756 137.413 156.249C136.64 156.741 135.213 155.64 135.533 154.847C135.84 154.053 137.68 152.056 137.44 151.776C137.2 151.496 136.653 151.381 136.653 151.381C136.653 151.381 129.093 156.793 127.573 154.679" fill="#EF9B3F"/>
<path d="M138.56 154.193C138.093 153.064 140 151.033 140.64 151.241C141.28 151.449 145.44 151.985 145.333 153.02C145.24 154.055 143.987 156.033 143.32 156.084C142.653 156.135 138.933 155.107 138.56 154.193" fill="#EF9B3F"/>
<path d="M135.88 157.435C135.413 156.305 137.32 154.275 137.96 154.483C138.6 154.691 142.76 155.227 142.667 156.261C142.56 157.296 141.307 159.275 140.64 159.325C139.987 159.377 136.253 158.347 135.88 157.435" fill="#EF9B3F"/>
<path d="M133.587 160.808C133.173 159.692 134.947 157.632 135.52 157.827C136.107 158.021 139.907 158.479 139.8 159.512C139.693 160.545 138.52 162.541 137.92 162.605C137.307 162.667 133.907 161.712 133.587 160.808" fill="#EF9B3F"/>
<path d="M37.6133 195.764C36.0933 195.607 35.1867 197.813 35.84 198.349C36.4933 198.885 39.8667 202.571 40.9201 202.237C41.9601 201.905 43.2533 200.304 42.8667 199.685C42.4667 199.065 38.8533 195.892 37.6133 195.764" fill="#EF9B3F"/>
<path d="M39.3067 192.565C37.7867 192.407 36.88 194.615 37.5333 195.151C38.1867 195.687 41.56 199.372 42.6133 199.04C43.6533 198.707 44.9466 197.107 44.5466 196.488C44.16 195.868 40.5467 192.695 39.3067 192.565" fill="#EF9B3F"/>
<path d="M41.3999 189.683C39.9199 189.572 38.8933 191.663 39.4933 192.149C40.0933 192.635 43.1466 196.005 44.1866 195.668C45.2266 195.331 46.5866 193.8 46.2533 193.228C45.9066 192.659 42.5866 189.775 41.3999 189.683" fill="#EF9B3F"/>
<path d="M31.5465 187.999C36.0932 186.013 38.3732 185.013 40.7065 185.685C43.0399 186.359 46.1199 189.129 46.5999 190.556C47.0799 191.984 43.3199 194.359 42.3199 194.549C41.3199 194.739 39.1733 192.837 39.4933 192.1C39.8133 191.363 41.5198 190.872 41.1465 190.445C40.7732 190.02 40.1332 189.348 40.1332 189.348C40.1332 189.348 33.9732 191.073 31.5465 187.999" fill="#EF9B3F"/>
<path d="M1.70667 173.453C4.48 177.733 10.9867 180.984 28.6667 190.391L33.0934 184.712C27.0001 168.481 22.8001 167.165 15.0934 163.421C7.38672 159.676 -3.08 166.059 1.70667 173.453" fill="#894C55"/>
<path d="M10.4132 160.677C18.0132 164.375 25.3065 171.236 31.3465 186.953L33.0933 184.712C26.9999 168.481 22.3999 164.205 14.6933 160.46C12.4533 159.371 9.49318 160.237 10.4132 160.677Z" fill="#6B323D"/>
<path d="M25.3333 171.307C25.3333 171.307 18.3867 177.073 17.8267 184.372L28.56 191.257L30.9733 181.471L25.3333 171.307" fill="#6B323D"/>
<path d="M27.8 171.949C27.8 171.949 18.6133 180.44 17.7067 188.375L31.6934 195.224L37.3867 187.208L27.8 171.949Z" fill="#EF9B3F"/>
<path d="M20.9733 186.755C20.12 186.173 19.3334 185.565 18.6 184.941C18.16 186.048 17.84 187.191 17.7067 188.375L31.6934 195.224C31.6934 195.224 24.9867 189.499 20.9733 186.755Z" fill="#D87A35"/>
<path d="M34.24 183.565C34.24 183.565 37.3734 187.239 38.7201 187.579C40.7867 188.104 44.5467 188.84 44.2267 190.741C42.04 203.985 39.2 201.433 39.2 201.433C39.2 201.433 33.7733 197.859 31.88 195.573C29.4 192.596 28.2667 190.732 26.2934 189.345C23.9867 187.72 34.24 183.565 34.24 183.565Z" fill="#EF9B3F"/>
</svg>
