<svg width="133" height="284" viewBox="0 0 133 284" fill="none" xmlns="http://www.w3.org/2000/svg">
<path d="M14.6667 196.557C16.7334 199.913 17.76 201.607 17.4667 203.171C17.1734 204.736 14.0933 207.757 13.0133 207.953C11.92 208.151 10.8134 204.16 10.5601 203.445C10.3067 202.732 11.6 201.411 12.2133 201.707C12.84 202.001 14.1733 203.699 14.48 203.479C14.7733 203.259 15 202.748 15 202.748C15 202.748 12.4667 197.957 14.6667 196.557Z" fill="#FFB882"/>
<path d="M36.9067 93.232C37.76 97.288 36.3467 100.367 36.3467 100.367C36.3467 100.367 39.1735 98.8427 39.7868 97.5067C40.4135 96.172 36.9067 93.232 36.9067 93.232" fill="#593D36"/>
<path d="M37.3198 95.5293C38.9332 99.3493 38.1198 102.639 38.1198 102.639C38.1198 102.639 40.5998 100.611 40.9598 99.1814C41.3198 97.7507 37.3198 95.5293 37.3198 95.5293" fill="#593D36"/>
<path d="M39.3066 98.3147C40.7866 102.075 39.7867 105.192 39.7867 105.192C39.7867 105.192 42.4666 103.379 42.9066 102.025C43.36 100.671 39.3066 98.3147 39.3066 98.3147Z" fill="#593D36"/>
<path d="M41.1733 99.9946C43.1333 103.556 42.5868 106.767 42.5868 106.767C42.5868 106.767 44.96 104.656 45.2133 103.26C45.4533 101.864 41.1733 99.9946 41.1733 99.9946" fill="#593D36"/>
<path d="M36 91.9667C36.92 97.1333 45.6667 106.641 45.6667 106.641L53.24 99.496L47.9201 85.7854L36 91.9667Z" fill="#593D36"/>
<path d="M72.84 112.636C72.16 108.505 61.9067 108.956 49.1201 109.605C37.1334 110.212 29.2799 115.556 29.9466 119.685C30.6266 123.816 40.7867 125.587 52.6267 123.64C64.4667 121.693 73.52 116.765 72.84 112.636" fill="#CE6B21"/>
<path d="M14.6667 29.928H12.3467L41.44 155.832L44.7868 155.319L14.6667 29.928" fill="#9E5A35"/>
<path d="M25.3733 86.2573L41.44 155.832L44.7867 155.319L27.2933 82.4894C26.6133 83.636 25.9733 84.8933 25.3733 86.2573" fill="#723C25"/>
<path d="M10.0266 45.892H7.71997L36.8132 171.796L40.1599 171.281L10.0266 45.892" fill="#9E5A35"/>
<path d="M20.4399 100.937L36.8132 171.796L40.16 171.281L22.4799 97.692C21.7599 98.6614 21.0799 99.7467 20.4399 100.937" fill="#723C25"/>
<path d="M129.067 169.091C135.067 148.829 129.107 129.2 115.747 125.247C102.4 121.295 86.7066 134.515 80.72 154.775C74.72 175.036 80.68 194.665 94.0266 198.619C107.387 202.572 123.067 189.352 129.067 169.091" fill="#593D36"/>
<path d="M115.907 125.359C108.213 123.08 99.7465 126.532 92.7998 133.747C93.9998 133.836 95.1864 134.043 96.3464 134.387C109.653 138.328 115.6 157.897 109.626 178.099C107.093 186.619 102.853 193.884 97.7865 199.148C110.227 200.081 123.72 187.501 129.187 169.069C135.16 148.869 129.213 129.3 115.907 125.359" fill="#49302B"/>
<path d="M127.56 168.124C121.893 187.288 107.053 199.792 94.4266 196.052C81.7999 192.313 76.1599 173.748 81.8266 154.584C87.5066 135.42 102.347 122.916 114.973 126.656C127.6 130.395 133.24 148.96 127.56 168.124ZM116.013 124.385C102.347 120.339 86.2799 133.869 80.1465 154.608C74.0132 175.344 80.1066 195.436 93.7732 199.481C107.44 203.527 123.493 189.997 129.64 169.26C135.773 148.521 129.68 128.431 116.013 124.385Z" fill="#CE973E"/>
<path d="M68.1867 79.8933L58 83.1133C59.0533 98.8293 68.4667 106.065 68.4667 106.065L77.4667 105.937L78.8799 103.832C78.8799 103.832 69.7734 95.5133 68.1867 79.8933Z" fill="#9EAFAC"/>
<path d="M67.0266 79.8933L56.8533 83.1133C57.8933 98.8293 67.3065 106.065 67.3065 106.065L76.3065 105.937L77.7199 103.832C77.7199 103.832 68.6132 95.5133 67.0266 79.8933Z" fill="#798E8A"/>
<path d="M11.2397 141.013C14.7064 162.255 25.5198 188.325 36.9198 198.365C36.9198 198.365 61.8264 169.207 64.1464 153.372C29.6797 127.471 13.5064 121.787 11.2397 141.013" fill="#EA8A3B"/>
<path d="M13.3599 140.048C16.8399 161.289 27.6531 187.359 39.0398 197.4C39.0398 197.4 63.9465 168.241 66.2665 152.407C31.7998 126.504 15.6399 120.821 13.3599 140.048" fill="#CE6B21"/>
<path d="M81.4268 156.079C84.2401 163.735 95.0401 166.86 115.587 169.34L116.093 163.413C116.093 163.413 95.56 147.033 89.88 145.953C83.24 144.688 81.4268 156.079 81.4268 156.079Z" fill="#FFB882"/>
<path d="M110.76 166.715C100.573 165.249 92.6267 161.88 93.0133 159.188C93.24 157.603 94.8133 153.271 98.1467 150.269C94.6933 148.015 91.6 146.28 89.88 145.953C83.24 144.688 79.7334 157.069 79.7334 157.069C82.5334 164.725 95.0401 166.86 115.587 169.34L115.774 167.245C114.16 167.135 112.48 166.961 110.76 166.715" fill="#FF9566"/>
<path d="M62.9867 122.669C58.0934 143.695 70.8133 152.681 76.2933 158.851C77.5067 160.209 96.36 150.959 97.2667 146.812C97.7333 144.695 79.2533 117.608 75.2133 113.528C71.1866 109.447 65.1867 113.2 62.9867 122.669" fill="#BF9266"/>
<path d="M79.5999 165.924C79.5999 165.924 44.7066 168.636 39.2666 179.996C33.8266 191.357 27.9466 248.299 28.8933 277.409H30.5465C30.5465 277.409 33.5866 266.621 43.52 252.421C54.0933 237.331 63.6399 208.703 63.6399 208.703L65.72 208.088C65.72 208.088 69.9466 219.436 76.6666 233.249C86.3199 253.111 103.293 277.155 103.293 277.155H105.187C100.453 231.948 79.5999 165.924 79.5999 165.924" fill="#C93F5A"/>
<path d="M68.2933 205.707L62.5066 207.637C62.5066 207.637 49.5065 254.691 33.1465 260.548C29.3332 261.917 37.7465 211.181 37.7465 211.181C55.4265 206.285 78.1199 194.7 86.6799 190.039C82.5199 175.111 79.5999 165.924 79.5999 165.924C79.5999 165.924 43.2266 169.177 37.7866 180.539C32.3466 191.899 27.9466 248.299 28.8933 277.409H30.5465C30.5465 277.409 34.5465 267.476 44.4799 253.275C55.0399 238.185 64.4399 209.376 64.4399 209.376L65.5999 209.505C65.5999 209.505 68.6666 220.664 75.3732 234.479C85.0399 254.34 103.293 277.155 103.293 277.155H105.187C104.88 274.284 104.52 271.329 104.093 268.315C85.5466 258.681 68.2933 205.707 68.2933 205.707" fill="#A32B42"/>
<path d="M56.2 208.345C66.24 210.405 71.2533 207.959 76.0266 202.295L56.2 208.345Z" fill="#A32B42"/>
<path d="M86.9599 228.429C86.9599 228.429 83.8798 241.817 87.3465 251.859L98.2933 266.792C88.2533 244.264 86.9599 228.429 86.9599 228.429Z" fill="#A32B42"/>
<path d="M40.8799 230.985C40.8799 230.985 32.8267 238.94 30.52 248.065L30.7867 264.781C34.5334 243.088 40.8799 230.985 40.8799 230.985Z" fill="#A32B42"/>
<path d="M30.2933 231.793L30.2 231.747C30.44 228.42 30.6933 225.115 30.9867 221.876L34.6266 223.877L30.2933 231.793" fill="#821D2C"/>
<path d="M36.1865 221.029C36.6932 217.713 37.1331 214.967 37.4131 213.224L39.7598 214.515L36.1865 221.029" fill="#A12A3C"/>
<path d="M35.4266 222.432L31.1465 220.083C31.4532 216.732 31.7733 213.465 32.1199 210.325L37.4132 213.224C37.1332 214.967 36.6933 217.713 36.1866 221.029L35.4266 222.432" fill="#821D2C"/>
<path d="M32.3198 208.552C32.3198 208.544 32.3331 208.535 32.3331 208.527C32.3331 208.535 32.3198 208.544 32.3198 208.552Z" fill="#CCAAAA"/>
<path d="M40.56 213.069L37.6934 211.497C37.72 211.289 37.7466 211.181 37.7466 211.181C39.2533 210.765 40.7867 210.3 42.36 209.795L40.56 213.069" fill="#A12A3C"/>
<path d="M37.6931 211.497L32.3198 208.552C32.3198 208.544 32.3331 208.535 32.3331 208.527C32.4131 207.797 32.5065 207.088 32.5865 206.376L35.9464 200.243L44.9064 205.153L42.3598 209.795C40.7865 210.3 39.2531 210.765 37.7464 211.181C37.7464 211.181 37.7198 211.289 37.6931 211.497" fill="#821D2C"/>
<path d="M45.6933 203.707L36.7466 198.797L41.0933 190.881L50.0399 195.791L45.6933 203.707Z" fill="#821D2C"/>
<path d="M50.8266 194.344L41.8799 189.433L46.2266 181.519L55.1732 186.429L50.8266 194.344Z" fill="#821D2C"/>
<path d="M55.9599 184.983L47.0132 180.072L48.3332 177.672C51.1732 177.201 54.3866 176.497 57.6533 175.609L60.3065 177.067L55.9599 184.983" fill="#821D2C"/>
<path d="M61.1065 175.62L59.9065 174.968C60.5332 174.785 61.1465 174.597 61.7732 174.403L61.1065 175.62Z" fill="#821D2C"/>
<path d="M28.8667 259.689C28.8934 258.895 28.9067 258.095 28.9334 257.288L29.8934 257.817L28.8667 259.689" fill="#821D2C"/>
<path d="M33.8933 250.537C34.1066 249.731 34.32 248.945 34.5333 248.185L35.0266 248.456L33.8933 250.537" fill="#A12A3C"/>
<path d="M30.6532 256.349L28.9866 255.436C29.0799 252.151 29.2266 248.776 29.3866 245.36L31.0532 246.271C30.8532 246.863 30.6666 247.461 30.5199 248.065L30.6532 256.349Z" fill="#821D2C"/>
<path d="M30.6933 256.372L30.6534 256.349L30.52 248.065C30.6667 247.461 30.8534 246.863 31.0534 246.271L34.5333 248.185C34.32 248.945 34.1067 249.731 33.8933 250.537L30.6933 256.372" fill="#821D2C"/>
<path d="M35.8267 247.009L35.0132 246.563C36.0399 243.108 37.04 240.199 37.9333 237.865L40.1733 239.093L35.8267 247.009V247.009ZM33.4399 240.935C33.6533 239.233 33.8667 237.497 34.0933 235.763L36.0399 236.829C35.1733 238.063 34.2666 239.445 33.4399 240.935Z" fill="#A12A3C"/>
<path d="M31.6267 244.708L29.48 243.529C29.6 241.237 29.7333 238.935 29.88 236.629L31.2133 234.184L34.0934 235.763C33.8667 237.497 33.6533 239.233 33.44 240.935C32.7867 242.131 32.1601 243.397 31.6267 244.708" fill="#821D2C"/>
<path d="M35.0131 246.563L31.6265 244.708C32.1598 243.397 32.7864 242.131 33.4397 240.935C34.2664 239.445 35.1731 238.063 36.0397 236.829L37.9331 237.865C37.0398 240.199 36.0397 243.108 35.0131 246.563" fill="#821D2C"/>
<path d="M40.9599 237.648L38.5333 236.313C39.9199 232.809 40.8799 230.985 40.8799 230.985C40.8799 230.985 39.1199 232.716 37.0266 235.488L34.3333 234.009C34.6666 231.488 35.0133 228.992 35.3599 226.628L36.3465 224.821L45.3066 229.731L40.9599 237.648Z" fill="#A12A3C"/>
<path d="M34.3332 234.009L32.0132 232.737L35.3599 226.628C35.0133 228.992 34.6666 231.488 34.3332 234.009Z" fill="#821D2C"/>
<path d="M38.5333 236.313L37.0266 235.488C39.1199 232.716 40.8799 230.985 40.8799 230.985C40.8799 230.985 39.9199 232.809 38.5333 236.313" fill="#821D2C"/>
<path d="M46.0932 228.285L37.1465 223.376L41.4932 215.459L50.4398 220.369L46.0932 228.285Z" fill="#A12A3C"/>
<path d="M51.2265 218.923L42.2798 214.013L45.0932 208.879C46.4132 208.424 47.7465 207.944 49.0798 207.445L55.5731 211.007L51.2265 218.923Z" fill="#A12A3C"/>
<path d="M45.0933 208.879L46.6266 206.097L49.0799 207.445C47.7465 207.944 46.4133 208.424 45.0933 208.879Z" fill="#821D2C"/>
<path d="M56.3598 209.56L51.1064 206.676C54.0664 205.535 57.0265 204.311 59.9331 203.056L57.1998 208.04L56.1998 208.345C56.4531 208.399 56.7064 208.448 56.9464 208.493L56.3598 209.56" fill="#A12A3C"/>
<path d="M51.1064 206.676L47.4131 204.652L51.7598 196.735L60.7064 201.645L59.9331 203.056C57.0265 204.311 54.0664 205.535 51.1064 206.676" fill="#821D2C"/>
<path d="M56.9466 208.493C56.7066 208.448 56.4533 208.399 56.2 208.345L57.2 208.04L56.9466 208.493Z" fill="#821D2C"/>
<path d="M61.5064 200.199L52.5464 195.288L56.8931 187.373L65.8397 192.281L61.5064 200.199" fill="#821D2C"/>
<path d="M66.64 190.836L57.6934 185.927L62.0267 178.011L70.9733 182.92L66.64 190.836Z" fill="#821D2C"/>
<path d="M71.7733 181.475L62.8267 176.564L64.5066 173.497C66.3333 172.863 68.1199 172.181 69.8132 171.459C70.2799 171.263 70.7466 171.064 71.2 170.861L76.12 173.557L71.7733 181.475" fill="#821D2C"/>
<path d="M79.52 165.931C79.52 165.929 79.52 165.931 79.5333 165.929C79.56 165.927 79.5734 165.925 79.5867 165.924H79.6C79.6 165.924 79.5734 165.927 79.52 165.931Z" fill="#A12A3C"/>
<path d="M76.9065 172.111L73.0532 169.996C75.6399 168.728 77.8799 167.359 79.5199 165.931C79.5732 165.927 79.5998 165.924 79.5998 165.924C79.5998 165.924 79.6799 166.212 79.8532 166.744L76.9065 172.111Z" fill="#821D2C"/>
<path d="M30.5466 277.409H28.8933H30.5466C30.5466 277.409 31.3733 275.365 33.2 271.805V271.807C31.3733 275.356 30.5466 277.409 30.5466 277.409Z" fill="#CCAAAA"/>
<path d="M30.5466 277.409H28.8933C28.8133 274.92 28.7733 272.22 28.76 269.376L33.2 271.805C31.3733 275.365 30.5466 277.409 30.5466 277.409Z" fill="#821D2C"/>
<path d="M33.96 270.344V270.343C35.12 268.148 36.5999 265.503 38.4399 262.503V262.504C36.6132 265.505 35.12 268.149 33.96 270.344Z" fill="#CCAAAA"/>
<path d="M33.0131 260.576C32.6531 260.576 32.4265 260.059 32.2932 259.132L34.1332 260.145C33.8132 260.296 33.4798 260.431 33.1465 260.548C33.1065 260.567 33.0531 260.576 33.0131 260.576Z" fill="#A12A3C"/>
<path d="M33.96 270.343L28.76 267.496C28.7733 266.321 28.7733 265.125 28.8 263.907L30.7066 260.413L30.7867 264.781C31.1334 262.741 31.5066 260.785 31.9066 258.917L32.2933 259.132C32.4267 260.059 32.6533 260.576 33.0133 260.576C33.0533 260.576 33.1066 260.567 33.1466 260.548C33.4799 260.431 33.8133 260.296 34.1333 260.145L38.44 262.503C36.6 265.503 35.12 268.148 33.96 270.343" fill="#821D2C"/>
<path d="M30.7866 264.781L30.7065 260.413L31.6132 258.763L31.9065 258.917C31.5065 260.785 31.1333 262.741 30.7866 264.781" fill="#821D2C"/>
<path d="M39.3066 261.097C40.76 258.759 42.4267 256.225 44.2934 253.539L44.3066 253.54C42.4266 256.228 40.76 258.76 39.3066 261.097Z" fill="#CCAAAA"/>
<path d="M35.8532 259.203L32.4131 257.316L36.7464 249.4L42.6265 252.619C40.4665 255.413 38.1999 257.703 35.8532 259.203" fill="#A12A3C"/>
<path d="M39.3065 261.097L35.8533 259.203C38.1999 257.703 40.4666 255.413 42.6266 252.619L44.2932 253.539C42.4266 256.225 40.7599 258.759 39.3065 261.097Z" fill="#821D2C"/>
<path d="M43.6131 251.283L37.5464 247.953L41.8931 240.039L48.3731 243.597C46.8797 246.353 45.2797 248.961 43.6131 251.283Z" fill="#A12A3C"/>
<path d="M45.2267 252.169L43.6133 251.283C45.2799 248.961 46.88 246.353 48.3733 243.597L49.8267 244.395C48.3467 247.177 46.8 249.815 45.2267 252.169Z" fill="#821D2C"/>
<path d="M49.16 242.141L42.6799 238.592L47.0267 230.675L53.0534 233.985C51.8534 236.737 50.5467 239.495 49.16 242.141" fill="#A12A3C"/>
<path d="M50.5999 242.935L49.1599 242.141C50.5466 239.495 51.8533 236.737 53.0533 233.985L54.5332 234.792C53.2932 237.532 51.9732 240.283 50.5999 242.935" fill="#821D2C"/>
<path d="M53.72 232.467L47.8132 229.229L52.16 221.313L57.0933 224.019C56.08 226.713 54.96 229.576 53.72 232.467" fill="#A12A3C"/>
<path d="M55.1999 233.28L53.72 232.467C54.96 229.576 56.0799 226.713 57.0933 224.019L58.72 224.913C57.6533 227.571 56.4799 230.403 55.1999 233.28Z" fill="#821D2C"/>
<path d="M57.6666 222.453L52.9465 219.867L57.2933 211.951L60.6399 213.785C59.8666 216.197 58.8666 219.175 57.6666 222.453" fill="#A12A3C"/>
<path d="M59.3332 223.368L57.6665 222.453C58.8665 219.175 59.8665 216.197 60.6398 213.785L62.5465 214.832C61.7065 217.164 60.6265 220.097 59.3332 223.368" fill="#821D2C"/>
<path d="M65.6 209.513C65.6 209.513 65.6 209.512 65.6 209.511C65.6 209.512 65.6 209.513 65.6 209.513ZM65.6 209.508C65.6 209.507 65.6 209.507 65.6 209.507C65.6 209.507 65.6 209.507 65.6 209.508ZM65.6 209.505L64.4399 209.376L65.6 209.505ZM64.4399 209.379C64.4399 209.377 64.4399 209.377 64.4399 209.377C64.4399 209.377 64.4399 209.377 64.4399 209.379ZM64.4399 209.377C64.4399 209.376 64.4399 209.376 64.4399 209.376C64.4399 209.376 64.4399 209.376 64.4399 209.377Z" fill="#CCAAAA"/>
<path d="M61.1465 212.183L58.0933 210.504L59.0132 208.823C60.1065 208.965 61.1333 209.045 62.0933 209.064C61.8666 209.835 61.5465 210.895 61.1465 212.183V212.183ZM69.8666 210.256C69.5332 209.329 69.2533 208.524 69.0266 207.859C69.5733 207.628 70.0932 207.367 70.5999 207.073L71.3866 207.5L69.8666 210.256ZM59.8933 207.219L62.4266 202.589L66.9465 205.065L59.8933 207.219" fill="#A12A3C"/>
<path d="M67.3065 214.919C66.1998 211.667 65.6399 209.663 65.5999 209.513C65.5999 209.513 65.5999 209.512 65.5999 209.511V209.509C65.5999 209.508 65.5999 209.508 65.5999 209.508C65.5999 209.507 65.5999 209.507 65.5999 209.507V209.505L64.4398 209.376C64.4398 209.376 64.4398 209.376 64.4398 209.377C64.4398 209.377 64.4398 209.377 64.4398 209.379C64.4398 209.38 64.4398 209.383 64.4398 209.385C64.3865 209.519 63.9198 210.952 63.1065 213.259L61.1465 212.183C61.5465 210.895 61.8666 209.835 62.0932 209.064C62.2399 209.067 62.3998 209.068 62.5465 209.068C65.0398 209.068 67.1466 208.652 69.0266 207.859C69.2532 208.524 69.5332 209.329 69.8665 210.256L67.3065 214.919" fill="#821D2C"/>
<path d="M62.5465 209.068C62.3999 209.068 62.2399 209.067 62.0933 209.064C61.1333 209.045 60.1065 208.965 59.0132 208.823L59.8933 207.219L66.9465 205.065L70.5999 207.073C70.0932 207.367 69.5733 207.628 69.0266 207.859C67.1466 208.652 65.0399 209.068 62.5465 209.068" fill="#821D2C"/>
<path d="M72.1733 206.052L72.16 206.045C72.1734 206.039 72.1734 206.032 72.1867 206.025L72.1733 206.052ZM69.1466 204.393L63.6934 201.4C67.2667 199.797 70.6799 198.18 73.8133 196.652L76.5201 198.136L73.8799 202.951L69.1466 204.393Z" fill="#A12A3C"/>
<path d="M63.6932 201.4L63.2266 201.143L67.5599 193.227L73.8132 196.652C70.6798 198.18 67.2666 199.797 63.6932 201.4" fill="#821D2C"/>
<path d="M72.1599 206.045L69.1465 204.393L73.8798 202.951L72.1866 206.025C72.1733 206.032 72.1732 206.039 72.1599 206.045" fill="#821D2C"/>
<path d="M77.3066 196.691L75.6133 195.763C76.6666 195.241 77.6801 194.733 78.6534 194.243L77.3066 196.691" fill="#A12A3C"/>
<path d="M75.6131 195.763L68.3599 191.78L72.7065 183.864L81.6532 188.773L78.6532 194.243C77.6799 194.733 76.6665 195.241 75.6131 195.763" fill="#821D2C"/>
<path d="M82.4398 187.328L73.4932 182.419L77.8398 174.501L83.0532 177.367C83.5732 179.117 84.1331 181.06 84.7331 183.155L82.4398 187.328Z" fill="#821D2C"/>
<path d="M82.3998 175.121L78.6265 173.056L80.6532 169.355C81.1198 170.836 81.7064 172.776 82.3998 175.121" fill="#821D2C"/>
<path d="M75.6131 225.097C75.0398 223.725 74.4931 222.388 73.9731 221.103L76.9199 222.716L75.6131 225.097" fill="#A12A3C"/>
<path d="M73.1199 229.637C71.1599 225.248 69.5998 221.287 68.4131 218.052L73.9731 221.103C74.4931 222.388 75.0398 223.725 75.6131 225.097L73.1199 229.637Z" fill="#821D2C"/>
<path d="M77.7066 221.269L73.0267 218.699C72.16 216.491 71.4 214.468 70.76 212.715L73.1066 208.443L82.0534 213.352L77.7066 221.269Z" fill="#A12A3C"/>
<path d="M73.0267 218.699L68.76 216.359L70.76 212.715C71.4 214.468 72.16 216.491 73.0267 218.699Z" fill="#821D2C"/>
<path d="M82.8399 211.907L73.8933 206.997L78.2399 199.081L87.1867 203.989L82.8399 211.907" fill="#A12A3C"/>
<path d="M87.9866 202.544L79.0266 197.635L81.7732 192.644C83.0799 191.964 84.2666 191.337 85.3066 190.779L87.1599 191.797C87.8799 194.397 88.6266 197.119 89.3866 199.976L87.9866 202.544" fill="#A12A3C"/>
<path d="M81.7732 192.644L83.3732 189.717L85.3065 190.779C84.2665 191.337 83.0799 191.964 81.7732 192.644Z" fill="#821D2C"/>
<path d="M86.5466 189.579C86.5332 189.528 86.5199 189.477 86.5066 189.428C86.5199 189.472 86.5332 189.516 86.5466 189.56V189.579Z" fill="#472924"/>
<path d="M86.5466 189.579C86.5332 189.527 86.5199 189.475 86.5066 189.423C86.5066 189.424 86.5066 189.427 86.5066 189.428C86.5199 189.477 86.5332 189.528 86.5466 189.579Z" fill="#A12A3C"/>
<path d="M86.5465 189.579L84.1599 188.273L85.4932 185.843C85.7866 186.871 86.0799 187.92 86.3866 189.013C86.4266 189.149 86.4665 189.287 86.5065 189.423C86.5199 189.475 86.5332 189.527 86.5465 189.579Z" fill="#821D2C"/>
<path d="M75.8932 235.509C75.8799 235.503 75.8798 235.495 75.8798 235.488C75.8798 235.495 75.8799 235.501 75.8932 235.509ZM75.8265 235.401C75.8132 235.368 75.7999 235.335 75.7866 235.301C75.7999 235.335 75.8132 235.368 75.8265 235.401V235.401ZM75.7731 235.292C75.6398 235.02 75.5065 234.749 75.3731 234.479C75.3731 234.463 75.3599 234.448 75.3599 234.432C75.3599 234.448 75.3731 234.463 75.3731 234.479C75.5065 234.749 75.6398 235.021 75.7731 235.292Z" fill="#CCAAAA"/>
<path d="M81.8934 238.961C81.5867 238.352 81.2933 237.743 81 237.132L82.4534 237.932L81.8934 238.961" fill="#A12A3C"/>
<path d="M79.7865 242.785C78.3999 240.353 77.0798 237.913 75.8932 235.509C75.8798 235.501 75.8798 235.495 75.8798 235.488C75.8664 235.459 75.8532 235.429 75.8265 235.401C75.8132 235.368 75.7999 235.335 75.7865 235.301C75.7865 235.299 75.7864 235.296 75.7731 235.292C75.6398 235.021 75.5064 234.749 75.3731 234.479C75.3731 234.463 75.3598 234.448 75.3598 234.432C75.2665 234.253 75.1864 234.077 75.1064 233.899L80.9998 237.132C81.2931 237.743 81.5865 238.352 81.8932 238.961L79.7865 242.785" fill="#821D2C"/>
<path d="M83.2533 236.485L79.7867 234.591C78.6533 232.151 77.5867 229.735 76.5867 227.403L78.6399 223.659L87.5867 228.568L87.0799 229.495C86.9999 228.795 86.96 228.429 86.96 228.429C86.96 228.429 86.8 229.157 86.5867 230.401L83.2533 236.485" fill="#A12A3C"/>
<path d="M79.7866 234.591L74.2932 231.575L76.5866 227.403C77.5866 229.735 78.6532 232.151 79.7866 234.591Z" fill="#821D2C"/>
<path d="M86.5867 230.401C86.8 229.157 86.96 228.429 86.96 228.429C86.96 228.429 86.9999 228.795 87.0799 229.495L86.5867 230.401" fill="#821D2C"/>
<path d="M88.3868 227.123L79.4268 222.213L83.7734 214.297L92.7201 219.207L88.3868 227.123Z" fill="#A12A3C"/>
<path d="M93.52 217.76L84.5732 212.851L88.9066 204.935L90.9999 206.08C91.9333 209.669 92.8799 213.392 93.8132 217.216L93.52 217.76" fill="#A12A3C"/>
<path d="M90.4266 203.885L89.7065 203.489L90.12 202.727C90.2266 203.116 90.3199 203.493 90.4266 203.885" fill="#A12A3C"/>
<path d="M87.1332 254.713C86.4532 253.676 85.7733 252.624 85.0933 251.557L87.9866 253.148L87.1332 254.713" fill="#821D2C"/>
<path d="M91.0933 247.493C90.48 245.457 89.9599 243.556 89.5066 241.8L93.12 243.784L91.0933 247.493V247.493ZM86.1867 247.135C85.08 245.163 84 243.136 82.96 241.093L84.1732 238.875L85.7066 239.715C85.6666 242.089 85.7867 244.635 86.1867 247.135" fill="#A12A3C"/>
<path d="M86.9866 250.716L83.3066 248.693C82.5066 247.396 81.7065 246.088 80.9465 244.773L82.9599 241.093C83.9999 243.136 85.08 245.163 86.1866 247.135C86.3866 248.347 86.6533 249.549 86.9866 250.716Z" fill="#821D2C"/>
<path d="M88.7866 251.701L86.9866 250.716C86.6532 249.549 86.3866 248.347 86.1866 247.135C85.7866 244.635 85.6665 242.089 85.7065 239.715L89.5065 241.8C89.9598 243.556 90.4799 245.457 91.0932 247.493L88.7866 251.701" fill="#821D2C"/>
<path d="M93.9199 242.339L88.9731 239.625C88.3198 236.841 87.8665 234.511 87.5599 232.709L89.3065 229.513L97.7731 234.155C97.8398 234.431 97.8932 234.707 97.9599 234.981L93.9199 242.339V242.339ZM85.7599 237.865L84.9731 237.429L85.9065 235.717C85.8531 236.404 85.7999 237.123 85.7599 237.865Z" fill="#A12A3C"/>
<path d="M88.9733 239.625L85.76 237.865C85.8 237.123 85.8533 236.404 85.9066 235.717L87.56 232.709C87.8667 234.511 88.32 236.841 88.9733 239.625Z" fill="#821D2C"/>
<path d="M97.3067 232.016C97.16 231.372 97.0134 230.727 96.8667 230.085C97.0134 230.727 97.16 231.371 97.3067 232.016Z" fill="#CCAAAA"/>
<path d="M97.3064 232.016L90.1064 228.067L94.4398 220.151L94.5464 220.208C95.3331 223.452 96.1065 226.752 96.8665 230.085C97.0131 230.727 97.1598 231.372 97.3064 232.016" fill="#A12A3C"/>
<path d="M96.7998 262.396C96.5598 262.135 96.3198 261.869 96.0798 261.597C95.3731 259.848 94.7064 258.147 94.1064 256.501L98.6665 259.001L96.7998 262.396" fill="#A12A3C"/>
<path d="M94.8532 265.937C92.8532 263.144 90.6265 259.968 88.3599 256.564L89.3998 254.656L96.0665 263.744L94.8532 265.937V265.937ZM96.5731 262.804C96.4131 262.399 96.2398 261.997 96.0798 261.597C96.3198 261.869 96.5598 262.135 96.7998 262.396L96.5731 262.804" fill="#821D2C"/>
<path d="M96.0666 263.744L89.3999 254.656L89.7065 254.092L94.1065 256.501C94.7065 258.147 95.3732 259.848 96.0799 261.597C96.2399 261.997 96.4132 262.399 96.5732 262.804L96.0666 263.744" fill="#821D2C"/>
<path d="M99.4532 257.555L93.2665 254.157C92.7732 252.76 92.3198 251.408 91.9065 250.101L94.8532 244.728L100.64 247.903C101 249.772 101.346 251.635 101.68 253.492L99.4532 257.555" fill="#A12A3C"/>
<path d="M93.2666 254.157L90.5066 252.645L91.9066 250.101C92.3199 251.408 92.7733 252.76 93.2666 254.157Z" fill="#821D2C"/>
<path d="M100.213 245.793L95.6399 243.283L98.5866 237.9C99.16 240.529 99.6932 243.161 100.213 245.793" fill="#A12A3C"/>
<path d="M102.88 276.631C102.2 275.769 100.72 273.872 98.7334 271.219L104.2 274.217L102.88 276.631" fill="#821D2C"/>
<path d="M104.093 268.311C102.12 267.284 100.16 265.767 98.2266 263.875L100.387 259.945L103.053 261.407C103.427 263.737 103.773 266.041 104.093 268.311" fill="#A12A3C"/>
<path d="M104.653 272.584L96.3867 268.053C96.3067 267.935 96.2266 267.819 96.1333 267.697L97.3466 265.492L98.2933 266.792C98.04 266.225 97.8 265.663 97.56 265.105L98.2267 263.875C100.16 265.767 102.12 267.284 104.093 268.311C104.293 269.749 104.48 271.175 104.653 272.584" fill="#821D2C"/>
<path d="M98.2934 266.792L97.3467 265.492L97.5601 265.105C97.8001 265.663 98.0401 266.225 98.2934 266.792Z" fill="#821D2C"/>
<path d="M102.707 259.337L101.173 258.499L102.24 256.573C102.4 257.499 102.547 258.42 102.707 259.337Z" fill="#A12A3C"/>
<path d="M30.4131 206.605C46.8931 207.119 88.2798 187.165 88.2798 187.165L80.9464 163.028C80.9464 163.028 41.2264 173.648 38.1464 176.737C35.0531 179.828 30.4131 206.605 30.4131 206.605Z" fill="#BF9266"/>
<path d="M63.1464 176.805C76.3598 171.853 83.4398 180.837 86.2665 188.119C87.5465 187.519 88.2798 187.165 88.2798 187.165L80.9464 163.028C80.9464 163.028 41.2264 173.648 38.1464 176.737C35.0531 179.828 30.4131 206.605 30.4131 206.605C32.4931 206.669 34.9731 206.407 37.7064 205.901C39.8531 195.215 50.1598 181.675 63.1464 176.805" fill="#AA784B"/>
<path d="M81.52 164.933L80.9466 163.028C80.9466 163.028 41.2266 173.648 38.1466 176.737C37.7199 177.155 37.28 178.004 36.8267 179.161C49.76 181.664 73.7067 173.265 81.52 164.933" fill="#7A4D34"/>
<path d="M35.5601 118.227C33.0268 125.847 34.5867 165.095 38.9467 176.74C40.6667 181.32 83.5335 171.172 82.4935 160.517C81.2801 148.048 79.3734 119.608 75.2134 113.528C71.6267 108.263 37.6935 111.855 35.5601 118.227Z" fill="#BF9266"/>
<path d="M80.6 140.328C80.1733 147.441 79.8267 154.245 80.2667 158.781C81.3067 169.439 44.72 176.299 43 171.72C38.64 160.073 37.4666 122.951 40.0133 115.331C40.08 115.129 40.1733 114.933 40.3067 114.737C37.76 115.752 36 116.931 35.56 118.227C33.0267 125.847 33.3866 165.601 37.7466 177.247C39.4666 181.827 83.5334 171.172 82.4934 160.517C82 155.527 81.4 147.977 80.6 140.328" fill="#AA784B"/>
<path d="M13.9732 157.365C6.85321 162.437 6.49323 174.121 7.66657 196.937L12.8533 199.548C12.8533 199.548 26.2933 169.4 26.3599 162.996C26.4533 155.493 13.9732 157.365 13.9732 157.365Z" fill="#FFB882"/>
<path d="M15.32 165.827C15.32 165.827 21.3465 166.053 25.1465 168.584C25.8932 166.147 26.36 164.168 26.36 162.996C26.4533 155.493 13.52 155.012 13.52 155.012C6.39998 160.083 6.49327 174.121 7.6666 196.937L9.02663 197.619C8.45329 180.748 9.33332 170.096 15.32 165.827" fill="#FF9566"/>
<path d="M36.3332 116.876C16.2532 124.793 10.4932 148.063 8.5332 156.076C10.2265 158.809 28.1332 168.18 32.5065 167.793C34.5198 166.973 47.0398 139.151 48.1065 133.512C49.1732 127.873 45.3865 113.309 36.3332 116.876Z" fill="#BF9266"/>
<path d="M36.3332 116.876C16.2532 124.793 10.4932 148.063 8.5332 156.076C8.82654 156.556 9.63992 157.247 10.7866 158.051C14.6133 149.004 20.2932 144.897 25.5599 146.809C31.1332 148.839 39.1999 152.473 30.3199 167.091C30.2533 167.211 30.2132 167.347 30.1599 167.479C31.1332 167.725 31.9332 167.844 32.5065 167.793C34.5198 166.973 47.5332 140.44 48.5999 134.803C49.6665 129.163 45.3865 113.309 36.3332 116.876" fill="#AA784B"/>
<path d="M11.6265 143.459C38.9331 151.648 69.1997 141.788 73.8397 128.915C76.0664 122.713 45.1198 128.4 44.1598 112.663C38.5598 112.663 13.7465 119.515 11.6265 143.459Z" fill="#AA784B"/>
<path d="M62.6934 110.796C70.36 112.952 71.4799 121.32 71.6799 125.375L74.1867 123.347C75.8667 114.073 74.4134 110.056 62.6934 110.796" fill="#AA784B"/>
<path d="M63.5999 109.219C72.1599 110.248 72.7732 123.441 72.7732 123.441L73.9332 123.828C73.9332 123.828 77.1465 115.845 74.8265 111.984C72.5199 108.121 63.5999 109.219 63.5999 109.219Z" fill="#EA8A3B"/>
<path d="M45.5464 115.072C45.8264 110.145 45.5464 97.9507 45.5464 97.9507L63.9198 95.896L65.5598 112.112C60.7065 116.936 54.3197 118.723 45.5464 115.072" fill="#FFB882"/>
<path d="M11.2397 141.013C38.5464 149.201 68.8798 138.024 72.5198 128.465C74.8798 122.308 44.7331 125.953 43.7731 110.216C38.1731 110.216 13.3597 117.068 11.2397 141.013Z" fill="#EA8A3B"/>
<path d="M104.053 283.976H122.72C121.947 280.628 107.533 280.885 104.693 274.707H101.867C104.053 279.856 102.12 280.628 104.053 283.976Z" fill="#FFB882"/>
<path d="M32.1066 283.976H13.8933C14.6533 280.628 25.8533 280.628 28.6266 274.448H31.3867C30.9333 280.243 33.3733 282.173 32.1066 283.976Z" fill="#FFB882"/>
<path d="M14.7732 33.7373L8.35991 28.9546L5.46655 0.765301L18.1599 26.496L14.7732 33.7373Z" fill="#BCDDD8"/>
<path d="M14.7732 33.7373L8.35991 28.9546L5.46655 0.765301L14.7732 33.7373Z" fill="#9BB2AF"/>
<path d="M11.7065 58.3493L6.37318 54.172L4.5332 29.676L14.7465 52.0707L11.7065 58.3493" fill="#BCDDD8"/>
<path d="M11.7065 58.3493L6.37318 54.172L4.5332 29.676L11.7065 58.3493Z" fill="#9BB2AF"/>
<path d="M57.7465 193.437C57.4798 185.511 61.3732 175.864 61.5465 175.457L61.8533 174.688L62.5999 175.056C62.8665 175.185 69.0399 178.351 69.8399 188.201L68.3065 188.325C67.7332 181.308 64.1999 178.02 62.6399 176.904C61.7065 179.445 59.0798 187.119 59.2798 193.385L57.7465 193.437" fill="#7A4D34"/>
<path d="M20.2131 121.515L20.0532 121.683L20.2398 121.548L20.2131 121.515" fill="#F7B541"/>
<path d="M26.1732 117.388L25.8266 116.891C24.1733 118.001 22.5599 119.267 21.0266 120.715L21.1599 120.907L26.1732 117.388Z" fill="#F7B541"/>
<path d="M31.3732 113.744C29.8665 114.46 28.3065 115.303 26.7732 116.279L27.0932 116.747L31.3732 113.744Z" fill="#F7B541"/>
<path d="M12.2266 135.381C12.0399 136.103 11.8666 136.845 11.72 137.605L13.1066 136.636L12.2266 135.381Z" fill="#F7B541"/>
<path d="M19.0397 132.476L15.5464 127.487C14.3731 129.449 13.3731 131.62 12.6265 134.001L14.0265 135.993L19.0397 132.476" fill="#F7B541"/>
<path d="M24.9867 128.316L21 122.64L16.8 125.589C16.5866 125.876 16.3866 126.165 16.2 126.461L19.96 131.833L24.9867 128.316" fill="#F7B541"/>
<path d="M30.9199 124.156L26.9465 118.48L21.9199 121.997L25.8932 127.673L30.9199 124.156Z" fill="#F7B541"/>
<path d="M36.8533 119.996L32.8798 114.32L27.8533 117.837L31.8399 123.513L36.8533 119.996Z" fill="#F7B541"/>
<path d="M37.7731 119.353L42.7865 115.836L39.3331 110.895C38.5198 111.095 37.6398 111.336 36.7064 111.635L33.7998 113.677L37.7731 119.353" fill="#F7B541"/>
<path d="M44.8799 114.372C44.2666 113.157 43.8666 111.787 43.7733 110.216C43.0133 110.216 41.8799 110.349 40.5066 110.629L43.7066 115.195L44.8799 114.372Z" fill="#F7B541"/>
<path d="M11.4265 139.443C11.3598 139.961 11.2797 140.479 11.2397 141.013C13.2131 141.607 15.2131 142.087 17.1998 142.485L13.8664 137.727L11.4265 139.443" fill="#F7B541"/>
<path d="M14.7866 137.084L18.7732 142.761L23.7866 139.244L19.8132 133.568L14.7866 137.084Z" fill="#F7B541"/>
<path d="M20.7334 132.925L24.7067 138.6L29.7201 135.084L25.7467 129.408L20.7334 132.925" fill="#F7B541"/>
<path d="M31.6798 125.247L26.6665 128.764L30.6398 134.441L35.6665 130.924L31.6798 125.247Z" fill="#F7B541"/>
<path d="M36.5732 130.281L41.5999 126.764L37.6265 121.088L32.5999 124.605L36.5732 130.281Z" fill="#F7B541"/>
<path d="M47.5332 122.604L43.5599 116.928L38.5332 120.445L42.5199 126.121L47.5332 122.604Z" fill="#F7B541"/>
<path d="M48.4534 121.961L51.1466 120.076C48.8666 118.928 46.8934 117.465 45.5601 115.527L44.48 116.285L48.4534 121.961" fill="#F7B541"/>
<path d="M63.5999 109.219C64.0665 109.273 64.4932 109.375 64.9065 109.496L64.6532 109.129C64.0132 109.171 63.5999 109.219 63.5999 109.219Z" fill="#F7B541"/>
<path d="M66.8398 109.081C66.5332 109.077 66.2532 109.076 65.9866 109.08L66.2665 109.481L66.8398 109.081Z" fill="#F7B541"/>
<path d="M20.6399 143.077C22.7466 143.385 24.84 143.604 26.92 143.723L24.5465 140.335L20.6399 143.077" fill="#F7B541"/>
<path d="M30.4932 136.175L25.4666 139.692L28.3332 143.785C29.4399 143.828 30.5332 143.853 31.6132 143.849L34.4666 141.851L30.4932 136.175Z" fill="#F7B541"/>
<path d="M31.3999 135.532L35.3866 141.208L40.3999 137.691L36.4266 132.015L31.3999 135.532Z" fill="#F7B541"/>
<path d="M37.3467 131.373L41.3201 137.049L46.3334 133.531L42.3601 127.855L37.3467 131.373Z" fill="#F7B541"/>
<path d="M48.2932 123.695L43.2798 127.213L47.2532 132.889L52.2798 129.372L48.2932 123.695Z" fill="#F7B541"/>
<path d="M53.1999 128.729L58.2131 125.212L55.9465 121.98C54.7731 121.613 53.6265 121.2 52.5332 120.728L49.2131 123.053L53.1999 128.729" fill="#F7B541"/>
<path d="M60.9332 123.307C59.8532 123.057 58.7598 122.787 57.6665 122.487L59.1332 124.569L60.9332 123.307Z" fill="#F7B541"/>
<path d="M74.8266 111.984C73.7599 110.208 71.3066 109.487 68.9599 109.219L67.0798 110.537C69.0265 111.867 70.3332 113.979 71.1732 116.128L75.3465 113.211C75.2132 112.773 75.0532 112.355 74.8266 111.984" fill="#F7B541"/>
<path d="M34 143.8C34.6 143.779 35.1866 143.748 35.7733 143.715L35.2267 142.943L34 143.8" fill="#F7B541"/>
<path d="M36.1465 142.3L37.0798 143.633C39.4398 143.457 41.7599 143.181 43.9866 142.816L41.1732 138.783L36.1465 142.3" fill="#F7B541"/>
<path d="M47.1065 134.623L42.0798 138.14L45.2132 142.599C46.4532 142.375 47.6799 142.128 48.8666 141.852L51.0798 140.299L47.1065 134.623Z" fill="#F7B541"/>
<path d="M48.0266 133.98L51.9999 139.656L57.0132 136.139L53.0399 130.463L48.0266 133.98Z" fill="#F7B541"/>
<path d="M53.96 129.82L57.9333 135.497L62.96 131.979L58.9732 126.303L53.96 129.82Z" fill="#F7B541"/>
<path d="M63.8666 131.336L68.8933 127.82L66.6132 124.569C65.4132 124.287 64.08 124.005 62.6933 123.7L59.8933 125.661L63.8666 131.336Z" fill="#F7B541"/>
<path d="M73.8266 123.792L73.9332 123.828C73.9332 123.828 74.0798 123.461 74.2798 122.872L72.3065 120.067C72.6398 121.733 72.7466 123.019 72.7599 123.335L71.9199 125.696L73.5732 124.536L73.8266 123.792" fill="#F7B541"/>
<path d="M71.32 126.115C70.5733 125.687 69.5199 125.323 68.2666 124.983L69.8132 127.176L71.32 126.115Z" fill="#F7B541"/>
<path d="M74.7065 121.525C75.2532 119.657 75.8398 116.971 75.6132 114.645L71.7732 117.341L74.7065 121.525Z" fill="#F7B541"/>
<path d="M52.76 140.748L52.8133 140.825C54.9599 140.203 56.9733 139.503 58.84 138.747L57.7867 137.231L52.76 140.748Z" fill="#F7B541"/>
<path d="M58.6934 136.588L59.9066 138.301C61.9466 137.427 63.8 136.485 65.4267 135.501L63.7201 133.071L58.6934 136.588" fill="#F7B541"/>
<path d="M64.6399 132.428L66.3732 134.903C68.3599 133.608 69.9332 132.252 71.0399 130.893L69.6533 128.911L64.6399 132.428" fill="#F7B541"/>
<path d="M70.5732 128.268L71.7465 129.94C72.0665 129.447 72.3467 128.953 72.52 128.465C72.6667 128.108 72.6799 127.787 72.6132 127.491L72.8799 126.649L70.5732 128.268" fill="#F7B541"/>
<path d="M69.1599 124.857C69.1599 126.919 70.8399 128.591 72.9065 128.591C74.9599 128.591 76.6266 126.919 76.6266 124.857C76.6266 122.795 74.9599 121.124 72.9065 121.124C70.8399 121.124 69.1599 122.795 69.1599 124.857Z" fill="#593D36"/>
<path d="M13.1733 55.3267L9.43994 56.3827L11.8534 66.092L15 65.1907L13.1733 55.3267Z" fill="#F7B541"/>
<path d="M15.9332 30.6734L12.2131 31.7294L14.6131 41.4387L17.7732 40.5374L15.9332 30.6734" fill="#F7B541"/>
<path d="M43.7732 110.221C43.7732 110.22 43.7732 110.217 43.7732 110.216V110.221ZM45.6666 109.921C45.6666 108.851 45.6666 107.737 45.6666 106.641V106.64C45.6666 107.737 45.6666 108.851 45.6666 109.921" fill="#B58383"/>
<path d="M45.6666 106.641C45.6533 103.877 45.5999 101.213 45.5732 99.58C45.5866 100.037 45.5999 100.575 45.5999 101.171C45.6266 102.711 45.6533 104.649 45.6666 106.64V106.641" fill="#3F201C"/>
<path d="M44.4533 113.391C44.0933 112.473 43.8666 111.471 43.7866 110.369C43.7866 110.367 43.7866 110.363 43.7866 110.359C43.7866 110.339 43.7865 110.319 43.7732 110.299C43.7732 110.292 43.7732 110.285 43.7732 110.279C43.7732 110.26 43.7732 110.241 43.7732 110.221V110.235C44.3865 110.121 45.0132 110.021 45.6666 109.935C45.6666 109.931 45.6666 109.927 45.6666 109.921C45.6532 111.049 45.6398 112.129 45.6132 113.095C45.2265 113.191 44.8266 113.289 44.4533 113.391V113.391ZM67.4399 110.797C66.8132 110.743 66.1466 110.715 65.4266 110.711L65.3065 109.615C65.9599 109.844 66.5599 110.152 67.0932 110.523L67.0798 110.537C67.1998 110.621 67.3199 110.708 67.4399 110.797Z" fill="#933711"/>
<path d="M65.3867 124.283C61.8667 123.503 57.5733 122.675 53.7466 121.22C53.3333 121.064 52.9333 120.9 52.5333 120.728V120.729C52.0533 120.524 51.5866 120.308 51.1333 120.08L51.1466 120.076C48.8666 118.928 46.8933 117.465 45.56 115.527C45.3067 115.161 45.0799 114.779 44.8799 114.379V114.372C44.7199 114.056 44.5734 113.729 44.4534 113.391C44.8267 113.289 45.2266 113.191 45.6133 113.095C45.5999 113.832 45.5733 114.501 45.5466 115.072C48.7466 116.405 51.64 117.013 54.24 117.013C58.7866 117.013 62.48 115.175 65.56 112.112V112.043C68.48 113.865 70.0133 116.841 70.8133 119.705C69.3733 121.259 67.5467 122.817 65.3867 124.283" fill="#884B35"/>
<path d="M70.8133 119.705C70.0133 116.841 68.4801 113.865 65.5601 112.043L65.4268 110.711C66.1468 110.715 66.8134 110.743 67.44 110.797C69.0534 112.025 70.1867 113.801 70.9734 115.648C71.3734 116.576 71.6801 117.52 71.9201 118.415C71.5868 118.844 71.2133 119.275 70.8133 119.705" fill="#793E26"/>
<path d="M71.9201 118.415C71.6801 117.52 71.3733 116.576 70.9733 115.648C71.0533 115.808 71.12 115.968 71.1733 116.128L74.3201 113.925C74.1468 114.648 73.84 115.405 73.4133 116.185L71.7733 117.341L72.24 118.009C72.1333 118.144 72.0268 118.28 71.9201 118.415V118.415ZM67.0934 110.523C66.5601 110.152 65.96 109.844 65.3067 109.615L65.2534 109.099C65.6001 109.085 65.96 109.076 66.3466 109.076C67.1733 109.076 68.0667 109.116 68.9601 109.219L67.0934 110.523V110.523ZM66.3334 109.077C66.2134 109.077 66.0934 109.077 65.9868 109.08L66.2667 109.481L66.84 109.081C66.6667 109.079 66.4934 109.077 66.3334 109.077" fill="#A6471E"/>
<path d="M54.2397 117.013C51.6397 117.013 48.7464 116.405 45.5464 115.072C45.5731 114.501 45.5997 113.832 45.6131 113.095C45.6397 112.129 45.6531 111.049 45.6664 109.921C45.6664 108.851 45.6664 107.737 45.6664 106.64C45.6531 104.649 45.6264 102.711 45.5998 101.171C45.6398 101.213 50.3731 106.161 58.3598 107.636C59.1465 107.821 60.0665 107.929 61.0532 107.981C61.6398 108.024 62.2398 108.047 62.8532 108.047C63.4265 108.047 63.9998 108.027 64.5998 107.985C64.5998 107.981 64.5865 107.976 64.5865 107.972C64.7732 107.964 64.9597 107.953 65.1464 107.944L65.2532 109.099L65.3064 109.615L65.4265 110.711L65.5598 112.043V112.112C62.4798 115.175 58.7864 117.013 54.2397 117.013V117.013ZM64.6532 109.129C64.0132 109.171 63.5998 109.219 63.5998 109.219C64.0664 109.273 64.4931 109.375 64.9064 109.496L64.6532 109.129Z" fill="#B55F43"/>
<path d="M37.9866 132.296C37.5333 132.292 37.0666 132.28 36.5999 132.263L36.4266 132.015L36.1066 132.241C35.3999 132.207 34.6933 132.159 33.9866 132.093L35.6666 130.924L31.6799 125.247L26.6666 128.764L28.4132 131.255C27.8665 131.141 27.32 131.017 26.7866 130.884L25.7465 129.408L24.5066 130.272C23.9732 130.115 23.4399 129.947 22.9066 129.769L24.9866 128.316L20.9999 122.64L16.8399 125.559C17.8666 124.123 18.9732 122.811 20.1465 121.611L20.2399 121.548L20.2266 121.532C20.4933 121.261 20.7599 120.996 21.0399 120.736L21.1599 120.907L26.1732 117.388L25.8266 116.896C26.1466 116.685 26.4532 116.48 26.7732 116.281L27.0933 116.747L31.3732 113.744C31.0266 113.909 30.6666 114.083 30.32 114.263C32.56 113.125 34.7466 112.264 36.7066 111.636L33.7999 113.677L37.7732 119.353L42.7866 115.836L39.3333 110.895C39.0933 110.955 38.84 111.017 38.5866 111.085C39.2666 110.903 39.9199 110.752 40.5066 110.629L43.7066 115.195L44.8799 114.379C45.0799 114.779 45.3066 115.161 45.5599 115.527L44.4799 116.285L48.4533 121.961L51.1332 120.08C51.5866 120.308 52.0532 120.524 52.5332 120.729L49.2132 123.053L53.1999 128.729L58.2132 125.212L55.9465 121.98C55.1999 121.747 54.4665 121.495 53.7465 121.22C57.5732 122.675 61.8666 123.503 65.3866 124.283C65.3866 124.284 65.3866 124.285 65.3732 124.288C64.5199 124.097 63.6266 123.904 62.6933 123.7L59.8933 125.661L60.8132 126.975C60.4799 127.144 60.1466 127.313 59.7999 127.477L58.9732 126.303L53.9599 129.82C52.6933 130.232 51.3999 130.603 50.0666 130.924L52.2799 129.372L48.2933 123.695L43.2799 127.213L46.3999 131.66C45.9866 131.727 45.5733 131.788 45.1599 131.844L42.3599 127.855L37.3465 131.373L37.9866 132.296V132.296ZM37.6266 121.088L32.5999 124.605L36.5732 130.281L41.5999 126.764L37.6266 121.088ZM26.9465 118.48L21.92 121.997L25.8933 127.673L30.92 124.156L26.9465 118.48ZM43.5599 116.928L38.5333 120.445L42.52 126.121L47.5333 122.604L43.5599 116.928ZM57.6666 122.487L59.1332 124.569L60.9332 123.307C59.8532 123.057 58.7599 122.787 57.6666 122.487ZM32.8799 114.32L27.8533 117.837L31.8399 123.513L36.8533 119.996L32.8799 114.32ZM16.7866 127.297C16.5066 127.163 16.2265 127.027 15.9465 126.887C16.0265 126.748 16.1199 126.612 16.2132 126.477L16.7866 127.297ZM30.2666 114.287C30.2799 114.283 30.2799 114.279 30.2933 114.275C30.2799 114.279 30.2799 114.283 30.2666 114.287ZM40.8533 110.563C41.4 110.455 41.9066 110.375 42.3599 110.319C41.9066 110.375 41.4 110.456 40.8533 110.563ZM43.7866 110.369C43.7866 110.367 43.7866 110.363 43.7866 110.359C43.7866 110.363 43.7866 110.367 43.7866 110.369ZM42.3732 110.317C42.3866 110.316 42.3999 110.315 42.3999 110.313C42.3999 110.315 42.3866 110.316 42.3732 110.317ZM43.7732 110.299C43.7732 110.292 43.7732 110.285 43.7732 110.279C43.7732 110.285 43.7732 110.292 43.7732 110.299ZM43.6399 110.217C43.6532 110.217 43.6533 110.217 43.6533 110.217C43.6533 110.217 43.6532 110.217 43.6399 110.217ZM43.6666 110.217C43.6799 110.217 43.6933 110.217 43.6933 110.217C43.6933 110.217 43.6799 110.217 43.6666 110.217ZM43.7066 110.216H43.72H43.7333C43.7199 110.216 43.7199 110.216 43.7066 110.216ZM43.7465 110.216C43.7599 110.216 43.7599 110.216 43.7732 110.216C43.7599 110.216 43.7465 110.216 43.7465 110.216Z" fill="#A6471E"/>
<path d="M20.1465 121.611C20.1732 121.585 20.1999 121.557 20.2266 121.532L20.2398 121.548L20.1465 121.611Z" fill="#B05D21"/>
<path d="M21.1601 120.907L21.04 120.736C22.5734 119.281 24.1868 118.007 25.8268 116.896L26.1734 117.388L21.1601 120.907Z" fill="#B05D21"/>
<path d="M27.0932 116.747L26.7732 116.281C27.9332 115.539 29.1066 114.876 30.2666 114.287C30.2799 114.283 30.2799 114.279 30.2932 114.275C30.3066 114.271 30.3066 114.267 30.3199 114.263C30.6666 114.083 31.0265 113.909 31.3732 113.744L27.0932 116.747" fill="#B05D21"/>
<path d="M22.9065 129.769C20.8798 129.096 18.8399 128.277 16.7866 127.297L16.2131 126.477C16.4131 126.165 16.6265 125.859 16.8398 125.559L20.9999 122.64L24.9866 128.316L22.9065 129.769" fill="#B05D21"/>
<path d="M25.8932 127.673L21.9199 121.997L26.9465 118.48L30.9199 124.156L25.8932 127.673Z" fill="#B05D21"/>
<path d="M31.8399 123.513L27.8533 117.837L32.8798 114.32L36.8533 119.996L31.8399 123.513Z" fill="#B05D21"/>
<path d="M37.7731 119.353L33.7998 113.677L36.7064 111.636C37.3598 111.428 37.9865 111.244 38.5865 111.085C38.8399 111.017 39.0931 110.955 39.3331 110.895L42.7865 115.836L37.7731 119.353Z" fill="#B05D21"/>
<path d="M43.7066 115.195L40.5066 110.629C40.6266 110.607 40.7333 110.584 40.8533 110.563C41.4 110.456 41.9066 110.375 42.36 110.319C42.3733 110.317 42.3733 110.317 42.3733 110.317C42.3866 110.316 42.4 110.315 42.4 110.313C42.8666 110.257 43.2666 110.227 43.6 110.219C43.6133 110.219 43.6266 110.217 43.6399 110.217C43.6533 110.217 43.6533 110.217 43.6533 110.217C43.6667 110.217 43.6666 110.217 43.6666 110.217C43.68 110.217 43.6933 110.217 43.6933 110.217C43.6933 110.216 43.7066 110.216 43.7066 110.216C43.7199 110.216 43.72 110.216 43.7333 110.216C43.7333 110.216 43.7332 110.216 43.7466 110.216C43.7466 110.216 43.7599 110.216 43.7733 110.216C43.7733 110.217 43.7733 110.22 43.7733 110.221C43.7733 110.241 43.7733 110.26 43.7733 110.279C43.7733 110.285 43.7733 110.292 43.7733 110.299C43.7866 110.319 43.7867 110.339 43.7867 110.359C43.7867 110.363 43.7867 110.367 43.7867 110.369C43.8667 111.471 44.0933 112.473 44.4533 113.391C44.5733 113.729 44.7199 114.056 44.8799 114.372V114.379L43.7066 115.195" fill="#B05D21"/>
<path d="M26.7867 130.884C26.0267 130.7 25.2666 130.496 24.5066 130.272L25.7466 129.408L26.7867 130.884" fill="#B05D21"/>
<path d="M33.9866 132.093C32.1599 131.924 30.2931 131.649 28.4131 131.255L26.6665 128.764L31.6798 125.247L35.6665 130.924L33.9866 132.093Z" fill="#B05D21"/>
<path d="M36.5732 130.281L32.5999 124.605L37.6265 121.088L41.5999 126.764L36.5732 130.281Z" fill="#B05D21"/>
<path d="M42.5199 126.121L38.5332 120.445L43.5599 116.928L47.5332 122.604L42.5199 126.121Z" fill="#B05D21"/>
<path d="M48.4534 121.961L44.48 116.285L45.5601 115.527C46.8934 117.465 48.8666 118.928 51.1466 120.076L51.1334 120.08L48.4534 121.961Z" fill="#B05D21"/>
<path d="M64.9065 109.496C64.4932 109.375 64.0665 109.273 63.5999 109.219C63.5999 109.219 64.0132 109.171 64.6532 109.129L64.9065 109.496Z" fill="#B05D21"/>
<path d="M66.2665 109.481L65.9866 109.08C66.0932 109.077 66.2132 109.077 66.3332 109.077C66.4932 109.077 66.6665 109.079 66.8398 109.081L66.2665 109.481" fill="#B05D21"/>
<path d="M36.5998 132.263C36.4265 132.256 36.2664 132.249 36.1064 132.241L36.4265 132.015L36.5998 132.263" fill="#B05D21"/>
<path d="M38.48 132.299C38.32 132.299 38.1468 132.297 37.9868 132.296L37.3467 131.373L42.3601 127.855L45.1601 131.844C43.0001 132.139 40.76 132.299 38.48 132.299" fill="#B05D21"/>
<path d="M46.3998 131.66L43.2798 127.213L48.2932 123.695L52.2798 129.372L50.0665 130.924C48.8665 131.209 47.6398 131.457 46.3998 131.66Z" fill="#B05D21"/>
<path d="M53.1999 128.729L49.2131 123.053L52.5332 120.729V120.728C52.9332 120.9 53.3331 121.064 53.7465 121.22C54.4665 121.495 55.1998 121.747 55.9465 121.98L58.2131 125.212L53.1999 128.729" fill="#B05D21"/>
<path d="M59.1332 124.569L57.6665 122.487C58.7598 122.787 59.8532 123.057 60.9332 123.307L59.1332 124.569Z" fill="#B05D21"/>
<path d="M71.1732 116.128C71.1199 115.968 71.0532 115.808 70.9732 115.648C70.1865 113.801 69.0532 112.025 67.4399 110.797C67.3199 110.708 67.1998 110.621 67.0798 110.537L67.0932 110.523L68.9599 109.219C71.0532 109.461 73.1465 110.06 74.3465 111.341C74.5598 112.123 74.5466 112.995 74.3199 113.925L71.1732 116.128" fill="#B05D21"/>
<path d="M53.96 129.82L58.9732 126.303L59.7999 127.477C57.9866 128.349 56.0266 129.141 53.96 129.82" fill="#B05D21"/>
<path d="M60.8132 126.975L59.8933 125.661L62.6933 123.7C63.6266 123.904 64.5199 124.097 65.3733 124.288C63.9866 125.232 62.4666 126.135 60.8132 126.975" fill="#B05D21"/>
<path d="M72.2399 118.009L71.7732 117.341L73.4132 116.185C73.0932 116.783 72.6932 117.393 72.2399 118.009Z" fill="#B05D21"/>
<path d="M69.8 79.1733C69.6133 83.6853 72.6534 85.1946 72.6534 85.1946C72.6534 85.1946 68.88 87.9867 66.64 84.4533C65.6933 82.936 69.8 79.1733 69.8 79.1733" fill="#593D36"/>
<path d="M69.56 76.7547C71.28 80.9293 74.6666 81.024 74.6666 81.024C74.6666 81.024 72.4132 85.1453 68.9066 82.872C67.3999 81.896 69.56 76.7547 69.56 76.7547" fill="#593D36"/>
<path d="M48.6399 84.4333C48.2399 93.12 48.2532 102.616 56.9066 107.125C59.7199 108.592 66.4666 107.903 70.0399 107.512C73.6799 98.276 68.6133 80.7746 68.0266 78.4573C67.4533 76.14 48.6399 84.4333 48.6399 84.4333" fill="#FFB882"/>
<path d="M68.8799 87.228L72.4533 86.0294L72.9333 88.636L69.2666 89.4574L68.8799 87.228Z" fill="#593D36"/>
<path d="M68.5867 86.368C68.5867 86.368 73.9999 94.768 74.4799 95.8294C74.9599 96.892 68.9733 97.664 68.9733 97.664L68.5867 86.368" fill="#EA7B59"/>
<path d="M67.3333 86.1747C67.3333 86.1747 72.7466 94.5747 73.2266 95.6374C73.7066 96.6987 67.72 97.4707 67.72 97.4707L67.3333 86.1747" fill="#FFB882"/>
<path d="M65.5466 89.4814C65.5466 88.3214 64.9466 87.3814 64.2132 87.3814C63.4799 87.3814 62.8933 88.3214 62.8933 89.4814C62.8933 90.6414 63.4799 91.5814 64.2132 91.5814C64.9466 91.5814 65.5466 90.6414 65.5466 89.4814Z" fill="#3D231D"/>
<path d="M58.6799 86.0094L68.0799 87.052L68.3066 89.2067L58.96 89.3054L58.6799 86.0094" fill="#593D36"/>
<path d="M60.7732 103.651C61.7865 99.4507 66.5599 97.664 68.9732 97.664C71.3865 97.664 74.3865 100.029 74.7732 102.927C70.0265 100.608 65.9865 101.229 60.7732 103.651" fill="#593D36"/>
<path d="M69.6934 103.312C69.6934 103.02 68.9733 102.395 67.8667 102.395C66.76 102.395 65.6934 103.02 65.6934 103.312C65.6934 103.607 66.8 103.312 67.9066 103.312C69.0133 103.312 69.6934 103.607 69.6934 103.312Z" fill="#EA7B59"/>
<path d="M52.32 81.8307C53.6133 86.1587 56.9733 86.5947 56.9733 86.5947C56.9733 86.5947 54.32 90.4667 51.0533 87.8507C49.6533 86.7281 52.32 81.8307 52.32 81.8307Z" fill="#593D36"/>
<path d="M51.6797 89.0734C51.2397 93.568 54.1731 95.252 54.1731 95.252C54.1731 95.252 50.2532 97.82 48.2265 94.16C47.3598 92.5893 51.6797 89.0734 51.6797 89.0734" fill="#593D36"/>
<path d="M50.3732 85.1867C52.0932 89.3627 55.4933 89.4573 55.4933 89.4573C55.4933 89.4573 53.2399 93.576 49.7333 91.304C48.2266 90.328 50.3732 85.1867 50.3732 85.1867" fill="#593D36"/>
<path d="M62.8532 108.047C62.2399 108.047 61.6399 108.024 61.0532 107.981C61.5599 108.008 62.0798 108.02 62.6131 108.02C63.2665 108.02 63.9332 108.003 64.5866 107.972C64.5866 107.976 64.5998 107.981 64.5998 107.985C63.9998 108.027 63.4266 108.047 62.8532 108.047" fill="#813123"/>
<path d="M45.5731 99.58C45.5597 99.0213 45.5597 98.5827 45.5464 98.304C45.5464 98.1014 45.5464 97.9613 45.5464 97.952C45.5464 97.952 45.5464 97.952 45.5464 97.9534C45.5464 97.9547 45.5464 97.956 45.5464 97.9587C45.5464 97.96 45.5464 97.9613 45.5464 97.9613V97.9627V97.964C45.5464 97.9667 45.5464 97.968 45.5464 97.9707C45.5464 98.0827 45.5597 98.672 45.5731 99.58V99.58ZM45.5464 97.9507L49.4265 97.516V97.5174L45.5464 97.9507Z" fill="#3F201C"/>
<path d="M45.5998 101.171C45.5998 100.575 45.5864 100.037 45.5731 99.5799C45.5597 98.6719 45.5464 98.0826 45.5464 97.9706C45.5464 98.1386 45.5731 99.3866 45.5998 101.171V101.171ZM45.5464 97.9639V97.9626V97.9639ZM45.5464 97.9613C45.5464 97.9613 45.5464 97.96 45.5464 97.9587C45.5464 97.96 45.5464 97.9613 45.5464 97.9613ZM45.5464 97.9507L49.4265 97.5173L45.5464 97.9507Z" fill="#2D100E"/>
<path d="M58.3598 107.636C50.3731 106.161 45.6398 101.213 45.5998 101.171C45.5731 99.3867 45.5464 98.1387 45.5464 97.9707C45.5464 97.968 45.5464 97.9666 45.5464 97.964V97.9627V97.9613C45.5464 97.9613 45.5464 97.96 45.5464 97.9587C45.5464 97.956 45.5464 97.9547 45.5464 97.9534C45.5464 97.952 45.5464 97.952 45.5464 97.9507L49.4265 97.5174C50.4798 101.469 52.6397 104.903 56.9064 107.125C57.3197 107.339 57.7998 107.507 58.3598 107.636" fill="#813123"/>
<path d="M72.6533 85.1947C72.6533 85.1947 71.72 84.7321 70.92 83.5547C70.9333 83.5547 70.9332 83.5547 70.9465 83.5547C71.7465 84.7121 72.6533 85.1947 72.6533 85.1947ZM74.6666 81.0241C74.6666 81.0241 71.2799 80.9294 69.5599 76.7547C69.8666 77.5134 70.2399 78.1347 70.6266 78.6467C71.3066 78.5187 71.9466 78.4121 72.5066 78.3547C72.8799 79.6534 73.0399 80.484 73.0666 80.6C73.9866 81.0014 74.6666 81.0241 74.6666 81.0241V81.0241ZM68.4933 80.2467C68.3866 79.8387 68.2932 79.4854 68.2132 79.1907C68.4132 79.1414 68.5866 79.1014 68.7732 79.0561C68.6666 79.4441 68.5733 79.8494 68.4933 80.2467ZM68.1732 79.0054C68.1066 78.776 68.0666 78.5907 68.0266 78.4574C68.0666 78.5894 68.1066 78.776 68.1732 79.0054Z" fill="#B58383"/>
<path d="M69.8798 86.2267C69.6398 85.0747 69.4132 84 69.1865 83.0374C69.8132 83.3894 70.3865 83.5413 70.9199 83.5547C71.7199 84.732 72.6532 85.1947 72.6532 85.1947C72.6532 85.1947 71.3731 86.128 69.8798 86.2267Z" fill="#3F201C"/>
<path d="M70.9464 83.5547C70.9331 83.5547 70.9332 83.5547 70.9199 83.5547C70.3865 83.5414 69.8132 83.3894 69.1865 83.0374C68.9332 81.952 68.6932 81.0067 68.4932 80.2467C68.5732 79.8493 68.6664 79.4441 68.7731 79.0561C69.1198 77.8214 69.5465 76.772 69.5598 76.7547C71.2798 80.9294 74.6665 81.024 74.6665 81.024C74.6665 81.044 73.2798 83.544 70.9998 83.544C70.9731 83.544 70.9598 83.544 70.9331 83.544C70.9465 83.548 70.9464 83.552 70.9464 83.5547" fill="#3F201C"/>
<path d="M62.6131 108.02C62.0797 108.02 61.5598 108.008 61.0532 107.981C60.1198 107.913 59.2131 107.795 58.3598 107.636C57.7998 107.507 57.3197 107.339 56.9064 107.125C52.6397 104.903 50.4798 101.469 49.4265 97.5173V97.516C49.2265 96.7386 49.0664 95.9426 48.9331 95.1306C49.6664 95.8813 50.5198 96.1266 51.3198 96.1266C52.8398 96.1266 54.1731 95.252 54.1731 95.252C54.1731 95.252 52.5465 94.3187 51.8931 91.9867C54.1331 91.928 55.4931 89.4573 55.4931 89.4573C55.4931 89.4573 54.5064 89.4293 53.3464 88.7573C53.3597 88.7586 53.3731 88.7587 53.3731 88.7587C55.4931 88.7587 56.9731 86.5946 56.9731 86.5946C56.9731 86.5946 54.0931 86.2213 52.6397 82.7347C57.2264 80.8427 64.4531 78.048 67.0664 78.048C67.6131 78.048 67.9598 78.1733 68.0265 78.4573C68.0665 78.5906 68.1064 78.776 68.1731 79.0053C68.1864 79.064 68.1997 79.1266 68.2131 79.1906C68.2931 79.4853 68.3865 79.8386 68.4931 80.2466C68.6931 81.0066 68.9332 81.952 69.1865 83.0373C69.4132 84 69.6397 85.0746 69.8797 86.2266C69.9197 86.4226 69.9598 86.6347 69.9865 86.8347L69.8664 86.8973L69.0931 87.1546C68.7731 86.6653 68.5865 86.368 68.5865 86.368L68.6265 87.4867L68.2797 87.652C68.2264 87.5613 68.1597 87.4733 68.1064 87.3893L68.0797 87.052L67.8797 87.0306C67.5464 86.5 67.3331 86.1746 67.3331 86.1746L67.3598 86.9733L58.6797 86.0093L58.9598 89.3053L62.8931 89.264C62.8931 89.3346 62.8931 89.408 62.8931 89.4813C62.8931 89.7293 62.9197 89.9667 62.9731 90.1867L54.6532 94.156C54.6532 94.156 56.5865 100.895 64.5865 107.972C63.9332 108.003 63.2664 108.02 62.6131 108.02" fill="#B55F43"/>
<path d="M69.1465 87.2386C69.1332 87.2093 69.1066 87.1827 69.0933 87.1547L69.8666 86.8973L69.1465 87.2386Z" fill="#3F201C"/>
<path d="M68.6266 87.4867L68.5867 86.368C68.5867 86.368 68.7733 86.6653 69.0933 87.1547C69.1066 87.1827 69.1332 87.2093 69.1466 87.2386L68.6266 87.4867" fill="#A6402E"/>
<path d="M68.1465 87.716L68.1066 87.3894C68.1599 87.4734 68.2265 87.5613 68.2799 87.652L68.1465 87.716ZM67.8799 87.0307L67.3599 86.9734L67.3333 86.1747C67.3333 86.1747 67.5465 86.5 67.8799 87.0307Z" fill="#B55F43"/>
<path d="M62.9733 90.1867C62.9199 89.9667 62.8933 89.7294 62.8933 89.4814C62.8933 89.408 62.8933 89.3347 62.8933 89.264L64.9466 89.2427L62.9733 90.1867Z" fill="#2C120F"/>
<path d="M58.96 89.3054L58.6799 86.0094L67.36 86.9734L67.8799 87.0307L68.0799 87.052L68.1066 87.3894L68.1466 87.716L64.9466 89.2427L62.8933 89.264L58.96 89.3054" fill="#3F201C"/>
<path d="M48.5333 87.3493L48.4534 87.1507C48.48 87.1373 48.5067 87.1226 48.5333 87.108C48.5333 87.188 48.5333 87.2693 48.5333 87.3493" fill="#B58383"/>
<path d="M42.3066 93.2453L41.3867 91.0547C43.7867 89.6427 46.1601 88.3334 48.4534 87.1507L48.5333 87.3493C48.5067 88.1333 48.5067 88.92 48.5201 89.7026C46.4801 90.788 44.4 91.9707 42.3066 93.2453" fill="#3F201C"/>
<path d="M48.6266 92.3227C48.56 91.456 48.5333 90.58 48.52 89.7013V89.7026C48.5067 88.92 48.5066 88.1333 48.5333 87.3493C48.5333 87.2693 48.5333 87.188 48.5333 87.108C48.5333 87.108 48.5333 87.108 48.5333 87.1067C48.56 86.212 48.5999 85.3186 48.6399 84.4333C48.6399 84.4333 49.8532 83.8946 51.6799 83.1306C51.3199 83.9453 50.9066 85.0147 50.7333 85.9507C50.6133 85.712 50.4933 85.4587 50.3733 85.1867C50.3733 85.1867 48.4266 89.8427 49.5333 91.1347C49.2 91.5187 48.8666 91.9253 48.6266 92.3227" fill="#B55F43"/>
<path d="M53.3734 88.7587C53.3734 88.7587 53.36 88.7587 53.3467 88.7574C52.4667 88.26 51.4934 87.4081 50.7334 85.9507C50.9067 85.0147 51.32 83.9453 51.68 83.1307C51.9867 83.004 52.3067 82.872 52.64 82.7347C54.0934 86.2214 56.9734 86.5947 56.9734 86.5947C56.9734 86.5947 55.4934 88.7587 53.3734 88.7587" fill="#3F201C"/>
<path d="M51.3198 96.1266C50.5198 96.1266 49.6664 95.8813 48.9331 95.1306C48.7864 94.2106 48.6798 93.272 48.6265 92.3227C48.8665 91.9253 49.1998 91.5186 49.5331 91.1346C49.5864 91.2 49.6531 91.2573 49.7331 91.304C50.4931 91.796 51.1864 91.988 51.8131 91.988C51.8397 91.988 51.8665 91.988 51.8931 91.9867C52.5465 94.3187 54.1731 95.252 54.1731 95.252C54.1731 95.252 52.8398 96.1266 51.3198 96.1266" fill="#3F201C"/>
<path d="M51.8131 91.988C51.1865 91.988 50.4932 91.796 49.7332 91.304C49.6532 91.2573 49.5865 91.2 49.5332 91.1347C48.4265 89.8427 50.3732 85.1867 50.3732 85.1867C50.4932 85.4587 50.6132 85.712 50.7332 85.9507C51.4932 87.408 52.4665 88.26 53.3465 88.7573C54.5065 89.4293 55.4932 89.4573 55.4932 89.4573C55.4932 89.4573 54.1332 91.928 51.8932 91.9867C51.8665 91.988 51.8398 91.988 51.8131 91.988Z" fill="#3F201C"/>
<path d="M40.6799 88.0306C42.7332 100.743 50.7065 107.287 52.0132 108.289L60.2533 108.216L60.9066 107.179C58.9066 105.355 51.5866 97.9946 49.0933 85.5026L40.6799 88.0306ZM51.4799 109.833L51.2933 109.697C50.8799 109.412 41.1733 102.516 39.0533 87.628L38.9465 86.9573L50.3066 83.544L50.4666 84.364C53.0133 98.5533 62.3199 106.339 62.4132 106.415L62.9333 106.836L61.0799 109.748L51.4799 109.833" fill="#AEC4C0"/>
<path d="M48.5866 84.524L38.7065 87.496C40.7999 102.235 50.6399 109.061 50.6399 109.061L59.5599 108.983L60.7999 107.016C60.7999 107.016 51.2133 99.1746 48.5866 84.524" fill="#879995"/>
<path d="M39.5732 88.0306C41.6265 100.743 49.5865 107.287 50.9065 108.289L59.1332 108.216L59.7999 107.179C57.7865 105.355 50.4799 97.9946 47.9866 85.5026L39.5732 88.0306ZM50.3732 109.833L50.1732 109.697C49.7732 109.412 40.0665 102.516 37.9332 87.628L37.8398 86.9573L49.1999 83.544L49.3465 84.364C51.8932 98.5533 61.2132 106.339 61.3065 106.415L61.8266 106.836L59.9732 109.748L50.3732 109.833" fill="#9EAFAC"/>
<path d="M36.6799 96.4587C51.7599 86.132 66.9066 80.6973 72.56 80.4133C72.56 80.4133 68.0133 55.1613 44.9333 63.28C23.5066 70.8186 36.6799 96.4587 36.6799 96.4587Z" fill="#9EAFAC"/>
<path d="M57.1732 77.224C48.7332 75.808 42.5065 70.2466 42.3732 64.3653C24.6399 72.996 36.6798 96.4587 36.6798 96.4587C51.7598 86.132 66.9066 80.6973 72.5599 80.4133C72.5599 80.4133 72.1333 78.0653 70.8933 75.0333C67.3999 77.1853 62.4265 78.108 57.1732 77.224Z" fill="#879995"/>
<path d="M46.8798 63.4788C46.5865 63.5641 46.3199 63.6667 46.0532 63.7601C46.7466 68.2427 52.3998 71.9587 59.4665 72.3161C62.5465 72.4707 65.4132 71.9547 67.7866 70.9694C64.6266 65.4227 58.5065 60.0374 46.8798 63.4788" fill="#B3C6C2"/>
<path d="M35.3733 94.7933C35.96 96.2067 36.3867 97.0507 36.3867 97.0507C51.8 86.4907 67.2933 80.9347 73.0799 80.6454C73.0799 80.6454 72.92 79.752 72.5066 78.3547C66 79.0307 50.8533 84.584 35.3733 94.7933" fill="#C1D3D0"/>
<path d="M66.8533 79.9933C67.6266 79.788 68.3466 79.628 68.9332 79.5454C68.9332 79.5454 64.5466 56.372 42.7866 64.124C60.0266 59.9107 65.76 76.188 66.8533 79.9933" fill="#C1D3D0"/>
<path d="M48.9599 96.4093C48.7866 94.9693 47.6532 93.8026 46.4266 93.8026C45.1999 93.8026 44.3466 94.9693 44.5199 96.4093C44.6933 97.8493 45.8266 99.016 47.0533 99.016C48.2799 99.016 49.1332 97.8493 48.9599 96.4093Z" fill="#9EAFAC"/>
<path d="M51.5465 101.816C51.4665 101.079 50.8799 100.479 50.2533 100.479C49.6266 100.479 49.1865 101.079 49.2798 101.816C49.3598 102.555 49.9465 103.153 50.5732 103.153C51.1999 103.153 51.6398 102.555 51.5465 101.816Z" fill="#9EAFAC"/>
<path d="M54.0667 84.4213C48.3067 87.0507 41.88 90.5053 35.3733 94.7933C35.96 96.2067 36.3867 97.0507 36.3867 97.0507C42.76 92.6854 49.1333 89.1893 54.84 86.552C54.5333 85.872 54.2667 85.1613 54.0667 84.4213" fill="#AEC4C0"/>
<path d="M35.7332 77.908C35.7332 74.972 36.2666 72.1867 37.2266 69.6613C29.4266 78.2133 37.0266 93.0213 37.0266 93.0213C37.9866 92.3627 38.9465 91.7387 39.9065 91.1294C37.3065 87.5614 35.7332 82.9507 35.7332 77.908" fill="#9EAFAC"/>
<path d="M46.5464 168.695C58.7731 169.211 74.5998 160.841 74.5998 160.841C74.5998 160.841 62.6397 168.437 57.4797 169.596C52.3331 170.755 46.5464 168.695 46.5464 168.695Z" fill="#AA784B"/>
<path d="M95.1465 167.925C92.5198 165.041 93.3065 159.208 95.6665 155.568C97.9198 152.108 101.267 150.808 104.853 151.997L104.36 153.464C100.44 152.156 98.0399 154.751 96.9599 156.412C94.7332 159.832 94.4132 164.824 96.2932 166.887L95.1465 167.925" fill="#49302B"/>
<path d="M103.387 171.916C100.76 169.032 101.533 163.199 103.907 159.559C106.16 156.099 109.507 154.799 113.08 155.989L112.6 157.455C108.68 156.147 106.28 158.741 105.2 160.403C102.973 163.823 102.653 168.815 104.533 170.879L103.387 171.916" fill="#49302B"/>
<path d="M102.187 277.444L99.9731 273.293L105.573 272.039L106.72 276.576L102.187 277.444" fill="#49302B"/>
<path d="M27.8398 275.128L28.0398 271.748L33.8266 272.617L31.7999 277.639L27.8398 275.128" fill="#49302B"/>
<path d="M108.787 157.789C108.787 157.789 111.067 159.657 112.453 159.367C114.573 158.92 117.16 158.435 120.507 158.405C121.48 158.397 124.68 162.225 125.613 163.711C124.48 164.004 118.64 170.481 118.64 170.481C118.64 170.481 114.24 169.695 111.587 168.175C115.253 163.407 108.787 157.789 108.787 157.789" fill="#FF9566"/>
<path d="M112.453 159.367C115.92 157.231 119.52 155.46 121.133 155.763C122.76 156.064 123.533 158.501 123.733 159.629C123.947 160.757 120.32 163.344 119.587 163.609C118.853 163.876 117.48 162.539 117.787 161.892C118.08 161.248 119.84 159.868 119.613 159.555C119.387 159.244 118.853 159.009 118.853 159.009C118.853 159.009 113.907 161.644 112.453 159.367" fill="#FFB882"/>
<path d="M119.96 163.251C119.52 162.117 121.333 160.721 121.947 161.06C122.56 161.4 126.533 162.868 126.427 163.781C126.333 164.697 125.133 166.199 124.507 166.089C123.867 165.979 120.32 164.167 119.96 163.251Z" fill="#FFB882"/>
<path d="M117.4 165.563C116.96 164.431 118.787 163.035 119.387 163.373C120 163.712 123.973 165.179 123.88 166.095C123.773 167.009 122.587 168.511 121.947 168.401C121.32 168.291 117.76 166.479 117.4 165.563" fill="#FFB882"/>
<path d="M115.2 168.085C114.826 166.976 116.506 165.521 117.066 165.835C117.613 166.149 121.24 167.457 121.133 168.371C121.04 169.283 119.92 170.82 119.333 170.735C118.76 170.649 115.52 168.981 115.2 168.085Z" fill="#FFB882"/>
<path d="M1.02658 195.872C0.653245 197.008 1.26655 198.232 2.39989 198.607C3.54655 198.981 4.75983 198.364 5.1465 197.227C5.51983 196.092 4.89324 194.868 3.75991 194.493C2.62658 194.119 1.39991 194.736 1.02658 195.872Z" fill="#593D36"/>
<path d="M14.1731 208.399L3.10645 197.777L3.94642 196.403L16.4665 205.123L14.1731 208.399" fill="#593D36"/>
<path d="M14.6265 208.856L62.3598 247.444C62.3598 247.444 71.0664 253.783 73.6131 250.385C76.1597 246.989 67.5598 240.371 67.5598 240.371L17.0664 205.371L14.6265 208.856Z" fill="#BCDDD8"/>
<path d="M15.7198 207.291L14.6265 208.856L62.3598 247.444C62.3598 247.444 71.0664 253.783 73.613 250.385L73.7598 250.113C72.5865 249.396 15.7198 207.291 15.7198 207.291Z" fill="#9BB2AF"/>
<path d="M12.16 214.391L21.7867 202.173L19.12 200.115L9.57324 211.815L12.16 214.391Z" fill="#CE973E"/>
<path d="M16.4132 191.031C16.4132 191.031 14.8665 195.585 15.1465 196.92C15.5732 198.975 15.5599 201.115 15.5866 204.339C15.5866 205.284 11.8799 208.369 10.4533 209.273C10.1733 208.177 3.91992 202.525 3.91992 202.525C3.91992 202.525 5.38654 196.309 7.19987 195.02C7.9332 194.499 16.4132 191.031 16.4132 191.031" fill="#FFB882"/>
<path d="M10.9065 203.809C11.9998 203.388 13.3464 205.145 13.0131 205.733C12.6931 206.323 11.2665 210.161 10.3731 210.064C9.49312 209.967 8.03976 208.811 8.14643 208.199C8.26643 207.585 10.0131 204.149 10.9065 203.809Z" fill="#FFB882"/>
<path d="M8.66648 201.333C9.77315 200.913 11.1199 202.669 10.7865 203.259C10.4532 203.845 9.02643 207.684 8.14643 207.588C7.26643 207.492 5.8132 206.333 5.91987 205.721C6.02653 205.109 7.78648 201.673 8.66648 201.333Z" fill="#FFB882"/>
<path d="M6.24 199.208C7.30666 198.836 8.71997 200.468 8.4133 201.003C8.10664 201.539 6.84005 205.041 5.96005 204.94C5.06671 204.837 3.58669 203.756 3.66669 203.196C3.76002 202.635 5.37333 199.505 6.24 199.208" fill="#FFB882"/>
</svg>
